<?xml version="1.0" encoding="UTF-8"?>
<svg width="490px" height="424px" viewBox="0 0 490 424" version="1.1" xmlns="http://www.w3.org/2000/svg" xmlns:xlink="http://www.w3.org/1999/xlink">
    <!-- Generator: Sketch 44 (41411) - http://www.bohemiancoding.com/sketch -->
    <title>Shape</title>
    <desc>Created with Sketch.</desc>
    <defs></defs>
    <g id="Page-1" stroke="none" stroke-width="1" fill="none" fill-rule="evenodd">
        <g id="003-refresh" fill-rule="nonzero" fill="#ABABAB">
            <path d="M278.235,0.267 C161.535,0.267 66.635,95.267 66.635,211.967 L66.635,212.667 L24.735,149.567 C20.635,143.367 12.235,141.667 6.035,145.767 C-0.165,149.867 -1.865,158.267 2.235,164.467 L63.035,255.967 C65.235,259.267 68.735,261.367 72.635,261.867 C73.235,261.967 73.735,261.967 74.335,261.967 C77.635,261.967 80.835,260.767 83.335,258.467 L167.835,182.367 C173.335,177.367 173.835,168.867 168.835,163.267 C163.835,157.767 155.335,157.267 149.735,162.267 L93.635,212.967 L93.635,211.967 C93.635,110.067 176.435,27.267 278.235,27.267 C380.035,27.267 462.935,110.067 462.935,211.967 C462.935,313.867 380.135,396.667 278.335,396.667 C229.035,396.667 182.635,377.467 147.835,342.567 C142.535,337.267 134.035,337.267 128.735,342.567 C123.435,347.867 123.435,356.367 128.735,361.667 C168.735,401.667 221.835,423.667 278.335,423.667 C394.935,423.667 489.935,328.767 489.935,211.967 C489.935,95.167 394.935,0.267 278.235,0.267 Z" id="Shape"></path>
        </g>
    </g>
</svg>