<?xml version="1.0" encoding="UTF-8"?>
<svg width="56px" height="60px" viewBox="0 0 56 60" version="1.1" xmlns="http://www.w3.org/2000/svg" xmlns:xlink="http://www.w3.org/1999/xlink">
    <!-- Generator: Sketch 44.1 (41455) - http://www.bohemiancoding.com/sketch -->
    <title>002-stopwatch</title>
    <desc>Created with Sketch.</desc>
    <defs></defs>
    <g id="Page-1" stroke="none" stroke-width="1" fill="none" fill-rule="evenodd">
        <g id="002-stopwatch" fill-rule="nonzero" fill="#FCFCFC">
            <path d="M30.53,30.553 L17.586,21.19 C17.19,20.905 16.641,20.947 16.293,21.294 C15.945,21.642 15.902,22.19 16.189,22.587 L25.554,35.533 C26.168,36.378 27.117,36.909 28.158,36.99 C28.252,36.997 28.345,37 28.437,37 C29.379,37 30.285,36.628 30.956,35.956 C31.693,35.219 32.07,34.2 31.989,33.159 C31.908,32.118 31.377,31.169 30.53,30.553 Z M29.542,34.542 C29.218,34.865 28.767,35.03 28.314,34.995 C27.858,34.96 27.441,34.726 27.173,34.358 L21.46,26.461 L29.355,32.172 C29.726,32.442 29.959,32.859 29.995,33.316 C30.031,33.771 29.865,34.219 29.542,34.542 Z" id="Shape"></path>
            <path d="M54.081,26.022 C54.08,26.019 54.081,26.015 54.08,26.012 C54.079,26.008 54.076,26.005 54.075,26.001 C53.463,23.722 52.557,21.564 51.405,19.564 C51.395,19.543 51.395,19.521 51.383,19.5 C51.371,19.48 51.352,19.469 51.339,19.45 C50.328,17.715 49.132,16.103 47.773,14.641 L49.92,12.494 L51.335,13.908 L55.577,9.666 L51.335,5.423 L47.092,9.666 L48.506,11.08 L46.359,13.227 C44.897,11.869 43.285,10.672 41.55,9.661 C41.531,9.648 41.52,9.629 41.5,9.617 C41.48,9.605 41.456,9.606 41.436,9.595 C39.436,8.442 37.278,7.537 35,6.925 C34.996,6.924 34.993,6.921 34.989,6.92 C34.985,6.919 34.982,6.92 34.979,6.92 C33.687,6.574 32.359,6.322 31,6.171 L31,5 L32.5,5 C33.879,5 35,3.879 35,2.5 C35,1.121 33.879,0 32.5,0 L23.5,0 C22.121,0 21,1.121 21,2.5 C21,3.879 22.121,5 23.5,5 L25,5 L25,6.171 C23.641,6.322 22.313,6.574 21.022,6.92 C21.018,6.921 21.015,6.92 21.012,6.921 C21.008,6.922 21.005,6.925 21.001,6.926 C18.723,7.538 16.565,8.444 14.565,9.596 C14.544,9.606 14.521,9.606 14.5,9.618 C14.48,9.63 14.469,9.649 14.45,9.662 C12.716,10.673 11.103,11.869 9.641,13.228 L7.494,11.08 L8.908,9.666 L4.665,5.423 L0.423,9.666 L4.665,13.908 L6.08,12.494 L8.227,14.641 C6.869,16.103 5.672,17.715 4.662,19.45 C4.649,19.469 4.629,19.48 4.618,19.5 C4.606,19.521 4.607,19.543 4.596,19.564 C3.443,21.564 2.538,23.722 1.926,26.001 C1.925,26.005 1.922,26.008 1.921,26.012 C1.92,26.015 1.921,26.019 1.92,26.022 C1.323,28.25 1,30.587 1,33 C1,35.413 1.323,37.75 1.919,39.978 C1.92,39.982 1.919,39.985 1.92,39.988 C1.921,39.993 1.925,39.997 1.926,40.002 C2.538,42.28 3.443,44.437 4.595,46.436 C4.605,46.457 4.605,46.479 4.617,46.5 C4.634,46.529 4.658,46.551 4.677,46.578 C5.842,48.571 7.25,50.405 8.868,52.032 C8.884,52.051 8.89,52.074 8.908,52.092 C8.926,52.11 8.949,52.116 8.968,52.132 C10.602,53.758 12.446,55.171 14.45,56.339 C14.469,56.352 14.48,56.371 14.5,56.383 C14.53,56.4 14.563,56.408 14.594,56.422 C16.585,57.566 18.734,58.466 21.001,59.075 C21.005,59.076 21.008,59.079 21.012,59.08 C21.017,59.081 21.022,59.081 21.027,59.082 C23.253,59.678 25.589,60 28,60 C30.411,60 32.747,59.678 34.973,59.082 C34.978,59.081 34.983,59.082 34.988,59.08 C34.992,59.079 34.995,59.076 34.999,59.075 C37.266,58.466 39.414,57.566 41.406,56.422 C41.437,56.408 41.47,56.401 41.5,56.383 C41.52,56.371 41.531,56.352 41.55,56.339 C43.554,55.171 45.397,53.758 47.032,52.132 C47.051,52.116 47.074,52.11 47.092,52.092 C47.11,52.074 47.116,52.05 47.132,52.032 C48.75,50.405 50.158,48.571 51.323,46.578 C51.342,46.551 51.366,46.53 51.383,46.5 C51.395,46.479 51.394,46.457 51.405,46.436 C52.557,44.437 53.462,42.28 54.074,40.002 C54.075,39.997 54.079,39.993 54.08,39.988 C54.081,39.985 54.08,39.981 54.081,39.978 C54.677,37.75 55,35.413 55,33 C55,30.587 54.677,28.25 54.081,26.022 Z M51.335,8.251 L52.749,9.666 L51.335,11.08 L49.92,9.666 L51.335,8.251 Z M3.251,9.666 L4.665,8.251 L6.08,9.666 L4.665,11.08 L3.251,9.666 Z M49.957,39.919 L51.872,40.432 C51.417,41.89 50.827,43.289 50.125,44.62 L48.418,43.634 C47.94,43.357 47.328,43.52 47.052,44 C46.776,44.479 46.94,45.09 47.418,45.366 L49.121,46.349 C48.308,47.631 47.385,48.835 46.359,49.945 L44.97,48.556 C44.579,48.165 43.947,48.165 43.556,48.556 C43.165,48.947 43.165,49.579 43.556,49.97 L44.945,51.359 C43.835,52.385 42.631,53.308 41.349,54.121 L40.366,52.418 C40.089,51.938 39.476,51.774 39,52.052 C38.521,52.328 38.357,52.94 38.634,53.418 L39.62,55.125 C38.289,55.827 36.891,56.417 35.432,56.872 L34.919,54.958 C34.776,54.424 34.228,54.106 33.694,54.251 C33.161,54.394 32.844,54.942 32.987,55.476 L33.498,57.384 C32.042,57.712 30.539,57.914 29,57.975 L29,56 C29,55.447 28.553,55 28,55 C27.447,55 27,55.447 27,56 L27,57.975 C25.461,57.914 23.958,57.712 22.502,57.384 L23.013,55.476 C23.156,54.943 22.839,54.394 22.306,54.251 C21.773,54.107 21.224,54.424 21.081,54.958 L20.568,56.872 C19.11,56.417 17.711,55.827 16.38,55.125 L17.366,53.418 C17.642,52.939 17.478,52.328 17,52.052 C16.522,51.775 15.91,51.938 15.634,52.418 L14.651,54.121 C13.369,53.308 12.165,52.385 11.055,51.359 L12.444,49.97 C12.835,49.579 12.835,48.947 12.444,48.556 C12.053,48.165 11.421,48.165 11.03,48.556 L9.641,49.945 C8.615,48.835 7.692,47.631 6.879,46.349 L8.582,45.366 C9.061,45.09 9.225,44.478 8.948,44 C8.671,43.52 8.058,43.356 7.582,43.634 L5.875,44.62 C5.173,43.289 4.583,41.891 4.128,40.432 L6.043,39.919 C6.576,39.776 6.893,39.228 6.75,38.694 C6.608,38.16 6.06,37.842 5.525,37.987 L3.616,38.498 C3.289,37.042 3.086,35.539 3.025,34 L5,34 C5.553,34 6,33.553 6,33 C6,32.447 5.553,32 5,32 L3.025,32 C3.086,30.461 3.288,28.958 3.616,27.502 L5.525,28.014 C5.612,28.037 5.699,28.048 5.785,28.048 C6.226,28.048 6.63,27.754 6.75,27.307 C6.894,26.774 6.576,26.225 6.043,26.082 L4.128,25.568 C4.583,24.11 5.173,22.711 5.875,21.38 L7.582,22.366 C7.738,22.457 7.91,22.5 8.08,22.5 C8.426,22.5 8.762,22.321 8.947,22 C9.223,21.521 9.059,20.91 8.581,20.634 L6.878,19.651 C7.691,18.369 8.614,17.165 9.64,16.055 L11.029,17.444 C11.224,17.639 11.48,17.737 11.736,17.737 C11.992,17.737 12.248,17.639 12.443,17.444 C12.834,17.053 12.834,16.421 12.443,16.03 L11.054,14.641 C12.164,13.616 13.368,12.692 14.65,11.879 L15.633,13.583 C15.819,13.903 16.154,14.083 16.5,14.083 C16.67,14.083 16.842,14.04 16.999,13.949 C17.478,13.673 17.642,13.061 17.365,12.583 L16.379,10.875 C17.71,10.173 19.108,9.583 20.567,9.128 L21.08,11.043 C21.199,11.489 21.603,11.784 22.045,11.784 C22.131,11.784 22.218,11.773 22.305,11.75 C22.838,11.607 23.155,11.059 23.012,10.525 L22.501,8.616 C23.673,8.352 24.874,8.171 26.101,8.079 C26.411,8.056 26.691,8.039 26.962,8.026 C26.975,8.026 26.987,8.026 27,8.025 L27,10 C27,10.553 27.447,11 28,11 C28.553,11 29,10.553 29,10 L29,8.025 C29.013,8.025 29.025,8.025 29.038,8.026 C29.309,8.039 29.588,8.056 29.899,8.079 C31.126,8.172 32.328,8.352 33.499,8.616 L32.988,10.525 C32.845,11.058 33.162,11.607 33.695,11.75 C33.782,11.773 33.869,11.784 33.955,11.784 C34.396,11.784 34.801,11.489 34.92,11.043 L35.433,9.128 C36.891,9.583 38.29,10.173 39.621,10.875 L38.635,12.583 C38.359,13.062 38.523,13.673 39.001,13.949 C39.158,14.04 39.33,14.083 39.5,14.083 C39.846,14.083 40.182,13.903 40.367,13.583 L41.35,11.879 C42.632,12.692 43.836,13.616 44.946,14.641 L43.557,16.03 C43.166,16.421 43.166,17.053 43.557,17.444 C43.752,17.639 44.008,17.737 44.264,17.737 C44.52,17.737 44.776,17.639 44.971,17.444 L46.36,16.055 C47.386,17.165 48.309,18.369 49.122,19.651 L47.419,20.634 C46.94,20.91 46.776,21.521 47.053,22 C47.239,22.321 47.574,22.5 47.92,22.5 C48.09,22.5 48.262,22.457 48.419,22.366 L50.126,21.38 C50.828,22.711 51.418,24.109 51.873,25.568 L49.958,26.082 C49.425,26.225 49.107,26.773 49.251,27.307 C49.371,27.754 49.774,28.048 50.216,28.048 C50.302,28.048 50.389,28.037 50.476,28.014 L52.385,27.502 C52.713,28.958 52.915,30.461 52.976,32 L51,32 C50.447,32 50,32.447 50,33 C50,33.553 50.447,34 51,34 L52.975,34 C52.914,35.539 52.712,37.042 52.384,38.499 L50.475,37.988 C49.944,37.844 49.393,38.162 49.25,38.695 C49.107,39.228 49.424,39.776 49.957,39.919 Z M27,6.022 L27,3 L23.5,3 C23.225,3 23,2.775 23,2.5 C23,2.225 23.225,2 23.5,2 L32.5,2 C32.775,2 33,2.225 33,2.5 C33,2.775 32.775,3 32.5,3 L29,3 L29,6.022 C28.65,6.007 28.321,6 28,6 C27.679,6 27.35,6.007 27,6.022 Z" id="Shape"></path>
        </g>
    </g>
</svg>