<?xml version="1.0" encoding="UTF-8"?>
<svg width="602px" height="602px" viewBox="0 0 602 602" version="1.1" xmlns="http://www.w3.org/2000/svg" xmlns:xlink="http://www.w3.org/1999/xlink">
    <!-- Generator: Sketch 44 (41411) - http://www.bohemiancoding.com/sketch -->
    <title>Jupiter</title>
    <desc>Created with Sketch.</desc>
    <defs>
        <circle id="path-1" cx="301" cy="301" r="301"></circle>
    </defs>
    <g id="Page-1" stroke="none" stroke-width="1" fill="none" fill-rule="evenodd">
        <g id="Jupiter">
            <mask id="mask-2" fill="white">
                <use xlink:href="#path-1"></use>
            </mask>
            <use id="Oval-7" fill="#EB8743" xlink:href="#path-1"></use>
            <ellipse id="Oval-8" fill="#A5775F" style="mix-blend-mode: luminosity;" mask="url(#mask-2)" cx="569.5" cy="280" rx="325.5" ry="325"></ellipse>
            <path d="M-69.2767035,385.28601 C136.936103,378.149265 274.695005,378.239114 344,385.555556 C449.25,396.666667 449.25,438.333333 344,449.444444 C274.695004,456.760886 136.936103,456.850735 -69.2767047,449.71399 L-69.2767046,449.713989 C-73.5847049,449.564895 -77,446.029356 -77,441.718777 L-77,393.281224 L-77.0000001,393.281224 C-77.0000001,388.970643 -73.5847045,385.435104 -69.2767035,385.28601 Z" id="Rectangle-6" fill="#9E4619" mask="url(#mask-2)"></path>
            <path d="M20.7232965,516.28601 C226.936103,509.149265 364.695005,509.239114 434,516.555556 C539.25,527.666667 539.25,569.333333 434,580.444444 C364.695004,587.760886 226.936103,587.850735 20.7232953,580.71399 L20.7232954,580.713989 C16.4152951,580.564895 13,577.029356 13,572.718777 L13,524.281224 L12.9999999,524.281224 C12.9999999,519.970643 16.4152955,516.435104 20.7232965,516.28601 Z" id="Rectangle-6-Copy-6" fill="#9E4619" mask="url(#mask-2)"></path>
            <path d="M-65.2767035,532.28601 C140.936103,525.149265 278.695005,525.239114 348,532.555556 C453.25,543.666667 453.25,585.333333 348,596.444444 C278.695004,603.760886 140.936103,603.850735 -65.2767047,596.71399 L-65.2767046,596.713989 C-69.5847049,596.564895 -73,593.029356 -73,588.718777 L-73,540.281224 L-73.0000001,540.281224 C-73.0000001,535.970643 -69.5847045,532.435104 -65.2767035,532.28601 Z" id="Rectangle-6-Copy-2" fill="#CF8A5D" mask="url(#mask-2)"></path>
            <path d="M-138.459833,192.709954 C42.592905,182.285969 163.571446,182.432034 224.475792,193.148148 C317.094739,209.444444 317.094739,270.555556 224.475792,286.851852 C163.571446,297.567966 42.5929041,297.714031 -138.459835,287.290045 L-138.459835,287.290044 C-142.692479,287.046352 -146,283.542925 -146,279.303272 L-146,200.696728 L-146,200.696728 C-146,196.457074 -142.692478,192.953646 -138.459833,192.709954 Z" id="Rectangle-6-Copy-3" fill="#CF8A5D" mask="url(#mask-2)"></path>
            <path d="M251.540167,239.709954 C432.592905,229.285969 553.571446,229.432034 614.475792,240.148148 C707.094739,256.444444 707.094739,317.555556 614.475792,333.851852 C553.571446,344.567966 432.592904,344.714031 251.540165,334.290045 L251.540165,334.290044 C247.307521,334.046352 244,330.542925 244,326.303272 L244,247.696728 L244,247.696728 C244,243.457074 247.307522,239.953646 251.540167,239.709954 Z" id="Rectangle-6-Copy-4" fill="#CF8A5D" mask="url(#mask-2)"></path>
            <path d="M80.5401671,27.7099544 C261.592905,17.285969 382.571446,17.4320336 443.475792,28.1481481 C536.094739,44.4444444 536.094739,105.555556 443.475792,121.851852 C382.571446,132.567966 261.592904,132.714031 80.5401651,122.290045 L80.5401652,122.290044 C76.3075211,122.046352 73,118.542925 73,114.303272 L73,35.696728 L73.0000001,35.696728 C73.0000001,31.4570735 76.307522,27.953646 80.5401671,27.7099544 Z" id="Rectangle-6-Copy-5" fill="#CF8A5D" mask="url(#mask-2)"></path>
            <path d="M-73.2767035,5.28601014 C132.936103,-1.85073476 270.695005,-1.76088629 340,5.55555556 C445.25,16.6666667 445.25,58.3333333 340,69.4444444 C270.695004,76.7608863 132.936103,76.8507348 -73.2767047,69.7139898 L-73.2767046,69.7139886 C-77.5847049,69.5648946 -81,66.029356 -81,61.7187765 L-81,13.2812235 L-81.0000001,13.2812235 C-81.0000001,8.97064331 -77.5847045,5.4351042 -73.2767035,5.28601014 Z" id="Rectangle-6-Copy" fill="#9E4619" mask="url(#mask-2)"></path>
            <path d="M180,170 C250.503086,155.009858 390.688672,154.835388 600.55676,169.47659 L600.556759,169.476592 C604.748781,169.769043 608,173.254982 608,177.457193 L608,253.541732 L608,253.541732 C608,257.744381 604.748123,261.230528 600.555622,261.522414 C390.579411,276.14113 250.394204,275.966992 180,261 C73.1656996,238.285231 73,192.75 180,170 Z" id="Rectangle-7" fill="#9E4719" mask="url(#mask-2)"></path>
            <path d="M-0.812125328,268.174266 C69.6734529,257.404773 209.806929,257.276784 419.588304,267.790299 L419.588304,267.790298 C423.845595,268.003659 427.187875,271.517637 427.187875,275.780271 L427.187875,325.961602 L427.187875,325.961602 C427.187875,330.224553 423.845115,333.738674 419.587486,333.951615 C209.697847,344.449003 69.5646428,344.321264 -0.812125328,333.568396 C-107.646426,317.245181 -107.812125,284.522799 -0.812125328,268.174266 Z" id="Rectangle-7-Copy" fill="#9E4719" mask="url(#mask-2)" transform="translate(173.093937, 300.865002) scale(-1, 1) translate(-173.093937, -300.865002) "></path>
        </g>
    </g>
</svg>