<?xml version="1.0" encoding="UTF-8"?>
<svg width="313px" height="313px" viewBox="0 0 313 313" version="1.1" xmlns="http://www.w3.org/2000/svg" xmlns:xlink="http://www.w3.org/1999/xlink">
    <!-- Generator: Sketch 44 (41411) - http://www.bohemiancoding.com/sketch -->
    <title>Shape</title>
    <desc>Created with Sketch.</desc>
    <defs></defs>
    <g id="Page-1" stroke="none" stroke-width="1" fill="none" fill-rule="evenodd">
        <g id="002-css-file" fill-rule="nonzero" fill="#4DADD9">
            <path d="M302.553,0 L10,0 C4.477,0 0,4.478 0,10 L0,302.553 C0,308.075 4.477,312.553 10,312.553 L302.553,312.553 C308.076,312.553 312.553,308.075 312.553,302.553 L312.553,10 C312.553,4.478 308.076,0 302.553,0 Z M120.934,192.814 C111.576,201.003 99.621,205.513 87.274,205.513 C59.527,205.513 36.953,183.401 36.953,156.22 C36.953,129.101 59.527,107.038 87.274,107.038 C99.639,107.038 111.553,111.51 120.822,119.63 C124.695,123.024 125.084,128.913 121.691,132.786 C118.299,136.66 112.408,137.051 108.534,133.655 C102.667,128.515 95.117,125.684 87.274,125.684 C69.809,125.684 55.6,139.382 55.6,156.219 C55.6,173.117 69.809,186.865 87.274,186.865 C95.104,186.865 102.697,183.993 108.655,178.779 C112.529,175.388 118.42,175.781 121.811,179.656 C125.201,183.533 124.809,189.423 120.934,192.814 Z M167.398,204.97 C155.055,204.97 142.462,199.765 134.534,191.384 C130.995,187.644 131.159,181.743 134.899,178.204 C138.64,174.666 144.541,174.828 148.079,178.569 C152.467,183.207 160.231,186.323 167.398,186.323 C174.706,186.323 183.24,184.209 183.24,178.251 C183.287,172.56 180.421,170.554 166.204,166.248 C153.684,162.457 134.765,156.727 134.765,134.882 C134.765,118.554 148.905,107.583 169.95,107.583 C179.308,107.583 189.513,110.422 196.581,114.991 C200.905,117.787 202.144,123.558 199.348,127.883 C196.553,132.208 190.78,133.447 186.456,130.652 C182.43,128.048 175.642,126.23 169.949,126.23 C162.32,126.23 153.412,128.497 153.412,134.882 C153.412,141.84 157.511,144.132 171.608,148.402 C183.734,152.075 202.057,157.624 201.886,178.329 C201.888,194.232 188.028,204.97 167.398,204.97 Z M241.109,204.97 C228.765,204.97 216.173,199.765 208.245,191.384 C204.706,187.644 204.869,181.743 208.61,178.204 C212.351,174.666 218.252,174.828 221.79,178.569 C226.178,183.207 233.942,186.323 241.109,186.323 C248.417,186.323 256.951,184.209 256.951,178.251 C256.998,172.56 254.133,170.554 239.916,166.248 C227.396,162.457 208.477,156.727 208.477,134.882 C208.477,118.554 222.617,107.583 243.662,107.583 C253.02,107.583 263.225,110.422 270.293,114.991 C274.617,117.787 275.857,123.558 273.061,127.883 C270.266,132.208 264.494,133.447 260.169,130.652 C256.143,128.048 249.355,126.23 243.662,126.23 C236.033,126.23 227.124,128.497 227.124,134.882 C227.124,141.84 231.223,144.132 245.321,148.402 C257.446,152.075 275.77,157.624 275.599,178.329 C275.599,194.232 261.739,204.97 241.109,204.97 Z" id="Shape"></path>
        </g>
    </g>
</svg>