<?xml version="1.0" encoding="UTF-8"?>
<svg width="16px" height="16px" viewBox="0 0 16 16" version="1.1" xmlns="http://www.w3.org/2000/svg" xmlns:xlink="http://www.w3.org/1999/xlink">
    <!-- Generator: Sketch 44 (41411) - http://www.bohemiancoding.com/sketch -->
    <title>Shape</title>
    <desc>Created with Sketch.</desc>
    <defs></defs>
    <g id="Page-1" stroke="none" stroke-width="1" fill="none" fill-rule="evenodd">
        <g id="001-technology" fill-rule="nonzero" fill="#4DADD9">
            <path d="M14.395,0 L0.938,0 C0.419,0 0,0.42 0,0.938 L0,14.393 C0,14.913 0.42,15.332 0.938,15.332 L14.394,15.332 C14.913,15.332 15.332,14.912 15.332,14.393 L15.332,0.938 C15.333,0.42 14.913,0 14.395,0 Z M4.463,9.427 L3.669,9.427 L3.669,7.955 L2.357,7.955 L2.357,9.427 L1.558,9.427 L1.558,5.906 L2.357,5.906 L2.357,7.26 L3.669,7.26 L3.669,5.906 L4.463,5.906 L4.463,9.427 L4.463,9.427 Z M7.6,6.574 L6.639,6.574 L6.639,9.427 L5.839,9.427 L5.839,6.574 L4.893,6.574 L4.893,5.906 L7.6,5.906 C7.6,5.906 7.6,6.574 7.6,6.574 Z M11.034,9.427 L10.982,8.08 C10.966,7.656 10.951,7.144 10.951,6.633 L10.936,6.633 C10.826,7.082 10.679,7.584 10.543,7.996 L10.114,9.371 L9.493,9.371 L9.116,8.007 C9.001,7.594 8.881,7.092 8.798,6.633 L8.787,6.633 C8.766,7.108 8.751,7.652 8.724,8.09 L8.661,9.427 L7.924,9.427 L8.149,5.906 L9.211,5.906 L9.556,7.082 C9.665,7.489 9.776,7.928 9.854,8.341 L9.87,8.341 C9.97,7.933 10.09,7.468 10.204,7.076 L10.581,5.906 L11.621,5.906 L11.814,9.427 C11.814,9.427 11.034,9.427 11.034,9.427 Z M14.626,9.427 L12.426,9.427 L12.426,5.906 L13.226,5.906 L13.226,8.76 L14.626,8.76 C14.626,8.76 14.626,9.427 14.626,9.427 Z" id="Shape"></path>
        </g>
    </g>
</svg>