<?xml version="1.0" encoding="utf-8"?>
<!-- Generator: Adobe Illustrator 16.0.4, SVG Export Plug-In . SVG Version: 6.00 Build 0)  -->
<!DOCTYPE svg PUBLIC "-//W3C//DTD SVG 1.1//EN" "http://www.w3.org/Graphics/SVG/1.1/DTD/svg11.dtd">
<svg version="1.1" id="Layer_1" xmlns="http://www.w3.org/2000/svg" xmlns:xlink="http://www.w3.org/1999/xlink" x="0px" y="0px"
	 width="960px" height="560px" viewBox="0 0 960 560" enable-background="new 0 0 960 560" xml:space="preserve">
<g>
	<g>
		<path fill="#FFFFFF" d="M736.594,47.031H616.828v-35h-22.859v35H365.922v-35h-22.859v35H223.406
			c-6.781,0-11.375,4.594-11.375,11.594v477.641c0,7,4.594,11.703,11.375,11.703h513.078c6.891,0,11.375-4.703,11.375-11.703V58.625
			C747.969,51.625,743.375,47.031,736.594,47.031z M725.109,524.672H234.891V70.328h108.281v35h22.859v-35h228.047v35h22.859v-35
			h108.281v454.344H725.109z"/>
		<path fill="#FFFFFF" d="M291.875,186.812c-6.891,0-11.375,4.703-11.375,11.703v267.969c0,7,4.594,11.703,11.375,11.703h376.25
			c6.891,0,11.375-4.703,11.375-11.703V198.516c0-7-4.594-11.703-11.375-11.703H291.875z M656.75,454.781h-353.5V210.109h353.5
			V454.781z"/>
		<rect x="434.391" y="254.406" fill="#FFFFFF" width="22.859" height="23.297"/>
		<rect x="502.859" y="254.406" fill="#FFFFFF" width="22.859" height="23.297"/>
		<rect x="571.219" y="254.406" fill="#FFFFFF" width="22.859" height="23.297"/>
		<rect x="365.922" y="320.797" fill="#FFFFFF" width="22.859" height="23.297"/>
		<rect x="434.391" y="320.797" fill="#FFFFFF" width="22.859" height="23.297"/>
		<rect x="502.859" y="320.797" fill="#FFFFFF" width="22.859" height="23.297"/>
		<rect x="571.219" y="320.797" fill="#FFFFFF" width="22.859" height="23.297"/>
		<rect x="365.922" y="388.391" fill="#FFFFFF" width="22.859" height="23.297"/>
		<rect x="434.391" y="388.391" fill="#FFFFFF" width="22.859" height="23.297"/>
		<rect x="502.859" y="388.391" fill="#FFFFFF" width="22.859" height="23.297"/>
		<rect x="571.219" y="388.391" fill="#FFFFFF" width="22.859" height="23.297"/>
	</g>
</g>
</svg>
