<?xml version="1.0" encoding="UTF-8"?>
<svg width="293px" height="340px" viewBox="0 0 293 340" version="1.1" xmlns="http://www.w3.org/2000/svg" xmlns:xlink="http://www.w3.org/1999/xlink">
    <!-- Generator: Sketch 44.1 (41455) - http://www.bohemiancoding.com/sketch -->
    <title>Person</title>
    <desc>Created with Sketch.</desc>
    <defs></defs>
    <g id="Page-1" stroke="none" stroke-width="1" fill="none" fill-rule="evenodd">
        <g id="Person" transform="translate(1.000000, 2.000000)">
            <g id="tee" stroke-width="1" fill-rule="evenodd" transform="translate(0.000000, 216.000000)" stroke="#766F6B">
                <path d="M229.824974,26.7584442 L230,26 L204,3 L202,22 L157,59 L135,61 L142,64 L146,84 L146,121 L150,64 L157,59 L182,77 L201,98 L224,52 L229.824974,26.7584442 L291,83 L229.824974,26.7584442 Z" id="Path-2" stroke-width="2"></path>
                <path d="M0,82 L62,26 L65,42 L74,68 L90,98 C99.3587704,86.3642703 106.692104,78.3642703 112,74 C117.307896,69.6357297 124.974563,65.3023964 135,61 L88,21 L89,0 L62,26 L0,82 Z" id="Path" stroke-width="2"></path>
            </g>
            <polyline id="Path-5" stroke="#817B77" stroke-width="2" points="90 216 89 207 135 225 157 225 203 208 203 235"></polyline>
            <polyline id="Path-6" stroke="#766F6B" stroke-width="2" points="90 206 80 176 75.6453672 159.203559 75.0015326 156.720197 73 149 71 140 75 130 76 125 74 113 67 115 60 124 59 143 67 154 76 164"></polyline>
            <polyline id="Path-7" stroke="#766F6B" stroke-width="2" points="203 208 218 168 219 160 223 143 217 128 219 115 231 123 234 141 228 153"></polyline>
            <path d="M67,154 L75,159" id="Path-8"></path>
            <path d="M228,153 L221,159" id="Path-9" stroke="#766F6B" stroke-width="2"></path>
            <path d="M222,158 L219,161" id="Path-10" stroke="#979797" stroke-width="1"></path>
            <polyline id="Path-11" stroke="#979797" stroke-width="1" points="155 274 155 238 189 226 198 210"></polyline>
            <polyline id="Path-12" stroke="#766F6B" stroke-width="2" points="115 171 122 178 176 178 182 170"></polyline>
            <path d="M140,200 L155.5,200" id="Path-13" stroke="#79726E" stroke-width="3"></path>
            <polyline id="Path-14" stroke="#78716D" stroke-width="2" points="126 144 124 150 134 149 136 155 158 155 161 149 169 150 169 143"></polyline>
            <polygon id="Path-15" stroke="#75716C" stroke-width="2" fill="#DCDCA3" fill-rule="evenodd" points="124 97 131 107 128 111 104 111 94 113 98 100"></polygon>
            <polygon id="Path-16" stroke="#75716C" stroke-width="2" fill="#DCDCA3" fill-rule="evenodd" points="162 108 165 111 192 112 200 113 195 100 170 98"></polygon>
            <g id="hair" stroke-width="1" fill-rule="evenodd" transform="translate(59.000000, 0.000000)">
                <polyline id="Path-17" stroke="#979797" stroke-width="2" fill="#DCDCA3" points="24 43 0 70 9 103 10 113 16 115 17 126 25 121 26 105 17 93 17 74 35 59 37 47 66 51 109 91 147 82 153 73"></polyline>
                <path d="M129,87 C130.333333,87 136.333333,92 147,102 L171,92 L174,85" id="Path-18" stroke="#979797" stroke-width="2" fill="#DCDCA3"></path>
                <polygon id="Path-19" stroke="#77706C" stroke-width="2" fill="#DCDCA3" points="152 102 152 119 160 127 161 113 167 116 181 96 173 38 127 14 69 0 28 32 26 42 0 69 10 111 13 112 17 124 25 120 27 105 18 93 17 73 36 59 37 47 68 51 109 90 131 85 147 102"></polygon>
                <path d="M153,103 L154,99" id="Path-20" stroke="#979797"></path>
            </g>
        </g>
    </g>
</svg>