<?xml version="1.0" encoding="iso-8859-1"?>
<!DOCTYPE svg PUBLIC "-//W3C//DTD SVG 1.1//EN" "http://www.w3.org/Graphics/SVG/1.1/DTD/svg11.dtd">
<svg xmlns="http://www.w3.org/2000/svg" xmlns:xlink="http://www.w3.org/1999/xlink" version="1.1" viewBox="0 0 460 460" enable-background="new 0 0 460 460" width="512px" height="512px">
  <g>
    <path d="m214.024,323.207c17.739,2.506 30.799,18.547 29.747,36.426-2.293,38.92-4.857,92.001-4.883,92.533-0.099,2.042 0.644,4.036 2.055,5.516 1.411,1.48 3.366,2.318 5.411,2.318h57.849c3.349,0 6.289-2.227 7.195-5.451 0.432-1.536 38.194-135.6 70.296-234.355 29.072-19.785 49.735-47.936 53.682-77.601 13.758-5.739 22.76-20.003 21.124-35.571-1.732-16.477-14.818-29.056-30.653-30.797-4.574-11.804-10.541-23.112-17.674-33.228-19.553-27.727-44.635-42.997-70.625-42.997s-51.073,15.27-70.625,42.998c-4.69,6.65-8.87,13.82-12.487,21.303-39.827,12.49-55.306,34.284-70.268,55.367-3.005,4.235-5.844,8.234-8.901,12.191-2.684,3.473-5.299,7.087-7.828,10.582-18.378,25.398-37.382,51.661-106.905,62.639-24.64,3.891-41.608,15.631-50.432,34.897-31.347,68.438 55.751,210.235 59.474,216.238 1.363,2.198 3.765,3.535 6.352,3.535h58.623c4.069,0 7.39-3.255 7.473-7.323l2.815-138.832c0.001-0.001 51.894,7.169 69.185,9.612zm24.909-198.888c-0.398-0.412-0.782-0.841-1.146-1.291-3.309-4.086-4.828-9.215-4.278-14.443 0.549-5.228 3.102-9.929 7.187-13.237 0.944-0.764 1.948-1.419 2.991-1.986-2.727,10.346-4.358,20.809-4.754,30.957zm-125.756,320.481l-3.384-95.239c-0.366-10.314 3.827-20.186 11.505-27.083 2.581-2.319 5.458-4.198 8.523-5.631l-2.594,127.953h-14.05zm185.371,.251h-14.632l34.9-154.912c0.908-4.027-1.622-8.027-5.649-8.934-4.028-0.91-8.027,1.622-8.934,5.649l-35.64,158.198h-14.39c0.802-16.253 2.728-54.602 4.491-84.539 0.735-12.472-3.213-24.669-11.115-34.345-7.901-9.675-19.063-15.981-31.43-17.757l-64.568-9.272c-14.612-2.097-29.29,2.356-40.272,12.22-10.982,9.864-16.979,23.982-16.455,38.734l3.365,94.708h-18.069c-5.974-10.054-23.405-40.354-38.182-75.595-23.332-55.638-29.651-98.174-18.272-123.009 6.702-14.628 19.515-23.247 39.17-26.351 75.66-11.946 97.455-42.067 116.684-68.641 2.574-3.558 5.006-6.918 7.546-10.204 3.244-4.198 6.304-8.51 9.263-12.68 7.175-10.11 14.156-19.935 23.858-28.598-0.774,2.345-1.311,4.786-1.575,7.301-0.967,9.199 1.706,18.225 7.527,25.413 3.673,4.536 8.326,7.99 13.569,10.17 3.755,27.968 19.276,53.122 45.469,73.365 22.469,17.366 44.716,24.982 45.652,25.298 0.774,0.261 1.581,0.392 2.389,0.392 0.635,0 1.271-0.081 1.891-0.243 0.7-0.183 12.284-3.27 27.408-10.545-27.296,85.413-56.985,189.439-63.999,214.177zm78.606-239.778c-18.527,12.687-37.367,19.121-43.629,21.047-5.836-2.259-22.811-9.451-39.51-22.436-26.696-20.759-40.233-45.91-40.233-74.756 0-26.021 9.479-54.998 25.357-77.515 16.672-23.643 37.415-36.664 58.408-36.664 20.993,0 41.736,13.021 58.408,36.664 15.878,22.517 25.357,51.494 25.357,77.515 0.001,30.461-14.856,56.08-44.158,76.145zm59.009-80.943c-0.395-10.154-2.027-20.623-4.756-30.974 5.514,2.984 9.521,8.534 10.225,15.229 0.633,6.027-1.548,11.702-5.469,15.745z" fill="#9b9b9b"/>
    <path d="m337.548,73.944c-7.937-8.267-19-13.118-30.751-13.118-23.5,0-42.619,19.119-42.619,42.619 0,13.796 6.568,26.419 17.336,34.325-5.159,6.909-7.922,14.753-7.922,22.784 0,13.07 7.007,25.174 19.732,34.08 11.913,8.339 27.619,12.932 44.225,12.932s32.312-4.592 44.225-12.932c12.724-8.907 19.732-21.01 19.732-34.08 0-8.03-2.763-15.874-7.922-22.783 10.767-7.907 17.335-20.53 17.335-34.326 0-23.5-19.118-42.619-42.619-42.619-11.752,0.001-22.815,4.853-30.752,13.118zm58.421,29.502c0,11.239-6.714,21.279-17.105,25.577-2.387,0.988-4.095,3.138-4.517,5.686-0.422,2.548 0.502,5.134 2.443,6.838 4.455,3.911 9.766,10.384 9.766,19.008 0,17.38-22.443,32.063-49.007,32.063s-49.007-14.683-49.007-32.063c0-8.625 5.311-15.097 9.766-19.008 1.941-1.704 2.865-4.29 2.443-6.839-0.422-2.548-2.13-4.698-4.517-5.686-10.391-4.298-17.105-14.338-17.105-25.577 0-15.257 12.413-27.67 27.67-27.67 10.052,0 19.33,5.472 24.214,14.28 1.318,2.376 3.82,3.85 6.537,3.85 2.717,0 5.22-1.474 6.537-3.85 4.884-8.808 14.162-14.28 24.214-14.28 15.255,0.001 27.668,12.413 27.668,27.671z" fill="#9b9b9b"/>
    <path d="m364.435,105.324c-0.927,0.927-1.455,2.212-1.455,3.528 0,1.315 0.528,2.601 1.455,3.518 0.927,0.937 2.213,1.465 3.528,1.465 1.316,0 2.591-0.528 3.518-1.465 0.927-0.917 1.465-2.202 1.465-3.518 0-1.316-0.538-2.601-1.465-3.528-0.927-0.927-2.202-1.455-3.518-1.455-1.316,0-2.601,0.528-3.528,1.455z" fill="#9b9b9b"/>
    <path d="m307.13,103.869c-1.306,0-2.591,0.528-3.518,1.455-0.927,0.927-1.465,2.212-1.465,3.528 0,1.315 0.538,2.601 1.465,3.518 0.927,0.937 2.212,1.465 3.518,1.465 1.316,0 2.602-0.528 3.528-1.465 0.927-0.917 1.455-2.202 1.455-3.518 0-1.316-0.528-2.601-1.455-3.528-0.927-0.927-2.212-1.455-3.528-1.455z" fill="#9b9b9b"/>
    <path d="m346.237,132.442c-1.047,0-2.073,0.429-2.82,1.166-0.738,0.747-1.166,1.774-1.166,2.82 0,1.046 0.428,2.083 1.166,2.82 0.747,0.747 1.774,1.166 2.82,1.166 1.046,0 2.073-0.418 2.82-1.166 0.737-0.738 1.166-1.774 1.166-2.82 0-1.046-0.429-2.073-1.166-2.82-0.747-0.737-1.774-1.166-2.82-1.166z" fill="#9b9b9b"/>
    <path d="m331.677,139.249c0.737-0.747 1.166-1.774 1.166-2.82 0-1.046-0.429-2.073-1.166-2.82-0.747-0.737-1.774-1.166-2.82-1.166-1.047,0-2.073,0.429-2.82,1.166-0.738,0.747-1.166,1.774-1.166,2.82 0,1.046 0.428,2.083 1.166,2.82 0.747,0.747 1.774,1.166 2.82,1.166 1.045,0 2.072-0.419 2.82-1.166z" fill="#9b9b9b"/>
    <path d="m342.617,174.894h-10.138c-2.752,0-4.983,2.231-4.983,4.983s2.231,4.983 4.983,4.983h10.138c2.752,0 4.983-2.231 4.983-4.983s-2.232-4.983-4.983-4.983z" fill="#9b9b9b"/>
  </g>
</svg>
