<?xml version="1.0" encoding="iso-8859-1"?>
<!-- Generator: Adobe Illustrator 19.0.0, SVG Export Plug-In . SVG Version: 6.00 Build 0)  -->
<svg xmlns="http://www.w3.org/2000/svg" xmlns:xlink="http://www.w3.org/1999/xlink" version="1.1" id="Capa_1" x="0px" y="0px" viewBox="0 0 512 512" style="enable-background:new 0 0 512 512;" xml:space="preserve" width="512px" height="512px">
<g>
	<g>
		<path d="M268.23,461.05c-0.13-0.64-0.319-1.27-0.569-1.87c-0.25-0.61-0.561-1.19-0.92-1.73c-0.37-0.55-0.79-1.06-1.25-1.52    c-0.46-0.46-0.971-0.88-1.521-1.24c-0.54-0.36-1.12-0.67-1.72-0.92c-0.61-0.25-1.24-0.45-1.87-0.57c-1.29-0.26-2.62-0.26-3.91,0    c-0.64,0.12-1.269,0.32-1.87,0.57c-0.609,0.25-1.189,0.56-1.729,0.92c-0.551,0.36-1.061,0.78-1.521,1.24    c-0.46,0.46-0.88,0.97-1.24,1.52c-0.359,0.54-0.67,1.12-0.92,1.73c-0.25,0.6-0.439,1.23-0.569,1.87c-0.13,0.64-0.2,1.3-0.2,1.95    c0,0.65,0.07,1.31,0.2,1.95s0.319,1.27,0.569,1.87c0.25,0.61,0.561,1.19,0.92,1.73c0.36,0.55,0.78,1.06,1.24,1.52    c0.46,0.46,0.97,0.88,1.521,1.24c0.54,0.36,1.12,0.67,1.729,0.92c0.6,0.25,1.23,0.45,1.87,0.57c0.64,0.13,1.3,0.2,1.95,0.2    c0.649,0,1.309-0.07,1.96-0.2c0.63-0.12,1.26-0.32,1.87-0.57c0.6-0.25,1.18-0.56,1.72-0.92c0.55-0.36,1.061-0.78,1.521-1.24    c0.46-0.46,0.88-0.97,1.25-1.52c0.359-0.54,0.67-1.12,0.92-1.73c0.25-0.6,0.439-1.23,0.569-1.87s0.19-1.3,0.19-1.95    S268.36,461.69,268.23,461.05z" fill="#9b9b9b"/>
	</g>
</g>
<g>
	<g>
		<path d="M207.119,71.146L207.119,71.146c-1.206-18.835-16.328-33.903-35.174-35.05c-1.798-0.111-3.597-0.092-5.384,0.053    c-6.015-5.692-13.992-8.771-22.168-8.737C136.928,10.8,120.506,0,101.876,0C79.549,0,60.852,15.573,56.284,36.672    c-0.581,0.012-1.162,0.037-1.742,0.076c-18.489,1.24-33.376,16.115-34.629,34.6c-0.706,10.442,2.826,20.389,9.946,28.008    c7.023,7.513,16.946,11.822,27.226,11.822h112.538c10.341,0,20.331-4.327,27.409-11.873    C204.21,91.652,207.792,81.652,207.119,71.146z M182.443,85.624c-3.359,3.582-7.913,5.555-12.821,5.555H57.085    c-4.832,0-9.311-1.946-12.613-5.479c-3.298-3.529-4.933-8.146-4.604-13.001c0.578-8.546,7.462-15.423,16.013-15.996    c0.389-0.026,0.778-0.039,1.168-0.039c1.07,0,2.142,0.098,3.201,0.294c0.371,0.069,0.743,0.116,1.113,0.142    c1.992,0.17,5.866,0.069,9.278-2.598c2.62-2.049,4.233-5.038,4.551-8.355c0.009-0.085,0.018-0.17,0.025-0.254    c0.012-0.142,0.022-0.285,0.028-0.428C75.872,31.186,87.569,20,101.876,20c11.79,0,22.032,7.569,25.487,18.835    c1.949,6.359,8.321,10.157,14.832,8.826c4.373-0.897,8.861,0.703,11.695,4.173c2.996,3.671,7.744,5.395,12.396,4.507    c1.449-0.277,2.944-0.372,4.441-0.281c8.661,0.527,15.878,7.716,16.432,16.366C187.475,77.358,185.8,82.045,182.443,85.624z" fill="#9b9b9b"/>
	</g>
</g>
<g>
	<g>
		<path d="M446.04,0c-33.084,0-60,26.916-60,60s26.916,60,60,60c33.084,0,60-26.916,60-60S479.124,0,446.04,0z M446.04,100    c-22.056,0-40-17.944-40-40c0-22.056,17.944-40,40-40c22.056,0,40,17.944,40,40C486.04,82.056,468.096,100,446.04,100z" fill="#9b9b9b"/>
	</g>
</g>
<g>
	<g>
		<path d="M424.025,402.529c-12.957,0-25.433,2.747-36.872,8.048v-36.418c41.858-4.962,74.429-40.668,74.429-83.839    c0-22.513-8.983-44.001-24.827-59.797c0.258-2.267,0.388-4.554,0.388-6.842c0-33.079-26.911-59.99-59.989-59.99    c-33.078,0-59.989,26.911-59.989,59.99c0,2.288,0.13,4.575,0.388,6.842c-15.843,15.795-24.826,37.284-24.826,59.797    c0,43.171,32.57,78.878,74.428,83.839v40.181c-3.433-0.87-6.988-1.315-10.606-1.315c-8.823,0-17.354,2.745-24.467,7.66    c-7.919-11.116-20.925-18.157-35.08-18.157c-10.405,0-20.232,3.684-27.95,10.309c-12.569-5.849-26.572-9.116-41.323-9.116h-8.868    v-72.02c28.064-4.769,49.5-29.258,49.5-58.659v-96.084c0-32.809-26.691-59.5-59.5-59.5s-59.5,26.691-59.5,59.5v38.708    c-1.529-1.806-3.139-3.554-4.827-5.237c0.258-2.267,0.388-4.554,0.388-6.842c0-33.078-26.911-59.989-59.989-59.989    S24.94,170.509,24.94,203.587c0,2.288,0.13,4.575,0.388,6.842C9.484,226.225,0.501,247.713,0.501,270.226    c0,43.171,32.57,78.878,74.429,83.839v49.657H10c-5.523,0-10,4.477-10,10V502c0,5.523,4.477,10,10,10h491.158    c4.958,0,9.167-3.633,9.893-8.537c0.63-4.261,0.949-8.621,0.949-12.959C512,441.994,472.535,402.529,424.025,402.529z     M367.152,251.58v41.724l-14.536-14.537c-3.905-3.905-10.235-3.905-14.143-0.001c-3.905,3.905-3.905,10.237,0,14.142    l26.751,26.752c0.592,0.592,1.241,1.094,1.928,1.507v32.805c-30.792-4.818-54.426-31.527-54.426-63.652    c0-18.628,8.062-36.338,22.116-48.589c2.741-2.389,3.969-6.077,3.208-9.632c-0.588-2.746-0.886-5.578-0.886-8.418    c0-22.05,17.939-39.99,39.989-39.99s39.989,17.939,39.989,39.99c0,2.84-0.298,5.673-0.886,8.418    c-0.761,3.555,0.467,7.243,3.208,9.632c14.056,12.251,22.117,29.961,22.117,48.589c0,32.125-23.634,58.834-54.429,63.653v-32.805    c0.687-0.413,1.335-0.914,1.928-1.507l26.752-26.752c3.905-3.905,3.905-10.237,0-14.143c-3.906-3.905-10.236-3.905-14.143,0    l-14.537,14.537V251.58c0-5.523-4.477-10-10-10C371.63,241.58,367.152,246.057,367.152,251.58z M169.358,176.958    c0-21.78,17.72-39.5,39.5-39.5c21.78,0,39.5,17.72,39.5,39.5v96.084c0,18.327-12.546,33.778-29.5,38.217v-22.922l20.472-20.471    c3.905-3.905,3.905-10.237,0-14.142c-3.905-3.905-10.235-3.905-14.143-0.001l-6.329,6.329v-16.739l20.472-20.472    c3.905-3.905,3.905-10.237,0-14.143c-3.906-3.904-10.236-3.904-14.143,0l-6.329,6.329v-46.635c0-5.523-4.477-10-10-10    c-5.522,0-10,4.477-10,10V230.1l-6.33-6.33c-3.906-3.905-10.236-3.905-14.143,0c-3.905,3.905-3.905,10.237,0,14.142l20.473,20.472    v52.873c-16.954-4.44-29.5-19.891-29.5-38.217V176.958z M160.554,307.747c8.958,12.434,22.593,21.284,38.305,23.954v72.02H94.93    v-49.656C123.728,350.652,148.131,332.685,160.554,307.747z M20.501,270.226c0-18.628,8.062-36.337,22.117-48.588    c2.741-2.389,3.969-6.077,3.208-9.632c-0.588-2.746-0.886-5.579-0.886-8.419c0-22.05,17.94-39.989,39.989-39.989    s39.989,17.939,39.989,39.989c0,2.84-0.298,5.673-0.886,8.418c-0.761,3.555,0.467,7.243,3.207,9.631    c14.057,12.253,22.118,29.963,22.118,48.589c0,32.125-23.634,58.834-54.429,63.653v-32.805c0.687-0.413,1.335-0.914,1.928-1.507    l26.751-26.751c3.905-3.905,3.905-10.237,0-14.142c-3.906-3.905-10.236-3.905-14.143,0L94.93,273.21v-41.724    c0-5.523-4.478-10-10-10c-5.522,0-10,4.477-10,10v41.724l-14.537-14.537c-3.906-3.905-10.236-3.905-14.143,0    c-3.905,3.905-3.905,10.237,0,14.142l26.752,26.751c0.592,0.592,1.241,1.094,1.928,1.507v32.805    C44.135,329.06,20.501,302.351,20.501,270.226z M20,492v-19h198.421c5.523,0,10-4.477,10-10s-4.477-10-10-10H20v-29.278h207.727    c39.775,0,72.717,29.821,77.643,68.278H20z M491.983,492H325.5c-2.784-27.426-16.892-51.555-37.561-67.624    c2.82-1.207,5.891-1.847,9.061-1.847c10.213,0,19.307,6.846,22.114,16.648c1.071,3.741,4.216,6.522,8.061,7.126    c0.263,0.042,0.524,0.087,0.784,0.138c3.814,0.739,7.701-0.797,9.982-3.934c4.321-5.936,11.276-9.481,18.605-9.481    c4.853,0,9.491,1.492,13.412,4.315c3.62,2.606,8.529,2.498,12.032-0.261c12.079-9.519,26.614-14.551,42.034-14.551    c37.481,0,67.975,30.494,67.975,67.975C492,491.002,491.994,491.501,491.983,492z" fill="#9b9b9b"/>
	</g>
</g>
<g>
</g>
<g>
</g>
<g>
</g>
<g>
</g>
<g>
</g>
<g>
</g>
<g>
</g>
<g>
</g>
<g>
</g>
<g>
</g>
<g>
</g>
<g>
</g>
<g>
</g>
<g>
</g>
<g>
</g>
</svg>
