<?xml version="1.0" encoding="utf-8"?>
<!-- Generator: Adobe Illustrator 16.0.4, SVG Export Plug-In . SVG Version: 6.00 Build 0)  -->
<!DOCTYPE svg PUBLIC "-//W3C//DTD SVG 1.1//EN" "http://www.w3.org/Graphics/SVG/1.1/DTD/svg11.dtd">
<svg version="1.1" id="Layer_1" xmlns="http://www.w3.org/2000/svg" xmlns:xlink="http://www.w3.org/1999/xlink" x="0px" y="0px"
	 width="268.182px" height="417.424px" viewBox="0 0 268.182 417.424" enable-background="new 0 0 268.182 417.424"
	 xml:space="preserve">
<g>
	<path fill="#4D4D4D" d="M165.381,320.169c-15.061,0.146-28.11-2.375-37.124-8.394c-11.473-7.828-14.424-18.383-14.569-33.442
		c-0.07-7.327,3.101-16.313,7.1-23.679c6.997-13.094,19.708-24.817,33.14-24.946c16.484-0.158,29.836,12.535,40.671,38.687
		c3.979,11.563,9.47,32.271,9.634,49.365c0.103,10.583-0.617,20.359-2.976,29.134c-0.952,6.726-8.191,15.954-14.848,22.124
		c-19.773,17.897-50.143,34.677-84.942,35.012c-40.093,0.386-77.19-26.531-77.669-76.188c-0.199-20.759,4.279-41.766,11.658-57.508
		l8.569,2.156c-3.955,12.046-6.694,23.471-6.595,33.85c0.411,42.737,27.121,68.736,64.364,68.378
		c18.927-0.183,42.692-5.093,65.14-20.166c12.333-8.465,24.849-19.169,24.794-24.866c-0.037-3.867-1.297-7.926-2.962-11.777
		C182.061,319.195,174.131,320.085,165.381,320.169z M125.153,200.677c-8.421-7.856-15.811-14.298-24.016-20.936
		c5.221-7.377,10.854-14.148,15.892-19.488c8.406,6.432,15.391,13.082,23.41,21.552C134.819,190,130.8,195.331,125.153,200.677z
		 M150.722,256.199c-11.6,0.111-24.74,9.396-24.645,19.369c0.082,8.547,11.577,18.613,40.272,18.337
		c7.326-0.07,13.227-0.331,18.305-1.397C177.511,269.374,165.782,256.054,150.722,256.199z M164.405,197.653
		c-8.42-7.856-15.811-14.298-24.015-20.936c5.221-7.377,10.854-14.147,15.892-19.488c8.406,6.433,15.39,13.081,23.409,21.553
		C174.071,186.976,170.053,192.307,164.405,197.653z"/>
</g>
<g>
	<path d="M199.421,110.965c-32.671,12.706-63.527,26.188-88.159,40.968C85.072,167.75,67.7,189.013,67.7,209.237
		c0,43.561,47.71,73.379,118.497,73.379c25.67,0,49.006-3.111,66.119-7.52l1.815,4.668c-13.225,9.854-27.485,19.965-43.562,29.041
		c-8.298,4.666-23.596,7.52-44.339,7.52c-63.008,0-116.163-29.818-116.163-96.717c0-33.967,18.15-61.971,43.042-83.751
		c-28.003-19.965-38.894-33.967-38.894-56.526c0-11.149,3.89-26.448,11.668-39.671c11.928-19.707,29.56-30.337,48.229-30.337
		c22.818,0,39.932,11.409,55.748,32.671l-4.148,5.445c-13.483-6.223-26.448-8.557-40.19-8.557c-28.781,0-51.858,14.52-51.858,25.151
		c0,11.668,6.741,21.002,22.559,32.93c9.334,6.741,22.299,14.001,27.484,14.001c5.187,0,9.854-2.593,14.262-4.667
		c23.336-11.15,46.672-21.262,70.009-30.078l1.296,0.778L199.421,110.965z"/>
</g>
<g>
	<path fill="#333333" d="M98.942,291.427c-23.77,1.435-44.962-8.501-46.592-35.521c-0.81-13.408,3.583-25.091,10.893-35.727
		c8.731-10.722,18.484-18.039,28.032-18.615c11.783-0.711,23.257,6.956,32.062,21.105c8.565,13.552,15.013,32.532,16.373,55.082
		c1.141,18.893-2.453,37.053-12.215,54.36c-16.425,28.517-33.02,40.732-49.881,41.75c-18.689,1.128-38.356-3.802-59.507-16.39
		l2.656-6.686c10.261,4.479,20.122,5.718,30.077,5.117c20.518-1.238,40.411-12.837,57.851-34.687
		c8.541-10.507,16.351-23.007,17.049-35.079C117.152,289.105,108.084,290.875,98.942,291.427z M86.117,227.567
		c-9.549,0.576-22.115,11.938-21.662,19.454c0.761,12.596,19.177,20.455,35.836,19.449c7.72-0.466,15.594-1.757,22.796-4.026
		C116.363,242.257,103.588,226.512,86.117,227.567z"/>
</g>
<g>
	<path fill="#1A1A1A" d="M172.512,201.983c-3.875,12.187-2.23,23.503,15.265,29.744c10.917,3.895,21.354,3.831,33.617,1.737
		c2.17-0.331,3.6-1.24,3.998-2.36c2.697-7.559,1.344-19.243-3.669-31.287c-4.933-11.384-12.874-22.737-21.014-31.321
		c-2.761-2.878-3.23-5.098-2.631-6.776c1.248-3.499,7.764-9.38,12.83-13.409l1.17,0.259c8.84,11.043,17.883,25.944,23.115,40.907
		c4.743,13.684,6.217,26.357,2.022,38.114c-3.096,8.678-8.28,16.138-14.616,22.397c-15.104,2.974-30.397,3.829-43.555-0.865
		c-15.955-5.691-23.728-18.404-16.337-39.119c0.799-2.239,2.047-5.738,4.345-9.968L172.512,201.983z M225.666,101.192
		c4.241,6.247,8.042,13.282,11.453,20.968c-4.878,3.94-10.304,7.211-16.511,9.572c-3.611-7.126-7.472-13.552-11.372-20.308
		C214.812,107.733,220.339,104.183,225.666,101.192z"/>
</g>
</svg>
