<?xml version="1.0" encoding="utf-8"?>
<!-- Generator: Adobe Illustrator 16.0.4, SVG Export Plug-In . SVG Version: 6.00 Build 0)  -->
<!DOCTYPE svg PUBLIC "-//W3C//DTD SVG 1.1//EN" "http://www.w3.org/Graphics/SVG/1.1/DTD/svg11.dtd">
<svg version="1.1" xmlns="http://www.w3.org/2000/svg" xmlns:xlink="http://www.w3.org/1999/xlink" x="0px" y="0px"
	 width="82.495px" height="86.996px" viewBox="0 0 82.495 86.996" enable-background="new 0 0 82.495 86.996" xml:space="preserve">
<g id="Layer_1">
	<rect x="-1741.03" y="-580.581" fill="#FCEDDB" stroke="#000000" stroke-miterlimit="10" width="1047" height="786"/>
</g>
<g id="Layer_3">
	<path opacity="0.4" fill="#F4D3AE" d="M-1395.439-252.943l58.852,91.774l-9.943,62.088l-0.792,23.968l-3.06,26.732
		c0,0-56.215-103.017-82.106-121.234c-36.529-25.704-163.958-31.466-163.958-31.466l-71.149,26.147l61.702-51.958l203.4,7.225"/>
	<path opacity="0.4" fill="#F4D3AE" d="M-1183.741-252.943l-58.853,91.774l9.943,62.088l0.791,23.968l3.061,26.732
		c0,0,56.215-103.017,82.105-121.234c36.529-25.704,163.958-31.466,163.958-31.466l71.148,26.147l-61.702-51.958l-203.4,7.225"/>
</g>
<g id="Layer_2">
	<g>
		<path fill="#282624" stroke="#282624" stroke-miterlimit="10" d="M-1442.126-590.892l-298.904,10.811v347.444
			c0,0,7.417,52.929,14.428,64.084c-5.242-25.208,26.755-89.68,18.508-136.411c-9.575-54.255,30.862-49.759,40.415-71.263
			c22.999-51.774-6.807-68.44,34.786-93.803c32.291-19.69,48.404,1.828,80.13-34.693c35.058-40.357,110.596,22.34,110.596,22.34
			s119.41-121.431,204.558,9.828c35.032,54.003,67.825-1.314,117.928,16.713c2.002,0.72,42.592,6.44,51.595,74.589
			c8.847,66.968,13.986,55.253,69.204,78.716c60.311,25.626,97.428,13.051,101.928,74.548c5.647,77.178-14.631,31.035-14.631,94.495
			c0,50.998,49.129,47.998,10.131,85.112c-95.677,91.055,32.999,108.378-28.498,174.375
			c-20.323,21.81-67.093,216.224,18.367,121.494c10.319-11.438,68.628,13.499,68.628,13.499l173.991,25.499l-26.062-866.067
			L-1442.126-590.892z"/>
	</g>
	
		<line fill="#FCEDDB" stroke="#F4D3AE" stroke-width="4.0132" stroke-miterlimit="10" x1="-1336.587" y1="-161.169" x2="-1357.529" y2="21.81"/>
	
		<line fill="#FCEDDB" stroke="#F4D3AE" stroke-width="4.1063" stroke-miterlimit="10" x1="-1243.009" y1="-161.169" x2="-1221.711" y2="27.193"/>
	
		<line fill="#FCEDDB" stroke="#F4D3AE" stroke-width="4.1063" stroke-miterlimit="10" x1="-1371.88" y1="-216.204" x2="-1335.631" y2="-161.116"/>
	
		<line fill="#FCEDDB" stroke="#F4D3AE" stroke-width="4.1063" stroke-miterlimit="10" x1="-1212.632" y1="-216.204" x2="-1244.001" y2="-161.116"/>
	<polygon fill="#282624" stroke="#282624" stroke-width="4" stroke-miterlimit="10" points="-1398.756,-247.225 -1401.491,-219.667 
		-1604.379,-225.86 -1662.27,-183.841 -1610.224,-257.526 	"/>
	<polygon fill="#282624" stroke="#282624" stroke-width="4" stroke-miterlimit="10" points="-1186.271,-247.225 -1183.536,-219.667 
		-980.648,-225.86 -922.757,-183.841 -974.804,-257.526 	"/>
	<g>
		<g opacity="0.4">
			<path fill="#F4D3AE" d="M-1194.494,90.827c0,0,4.123,4.098,7.833,16.491c11.67,38.979-28.941,35.044-39.728,35.044l3.333-3.473
				c-3.461,7.778-51.104,39.728-67,41.123s-73.572-35.189-73.572-35.189l8.054,3.539c-10.786,0-51.397,3.935-39.728-35.044
				c3.71-12.394,7.833-16.491,7.833-16.491"/>
			<path fill="none" stroke="#F4D3AE" stroke-width="4.0132" stroke-miterlimit="10" d="M-1194.494,90.827
				c0,0,4.123,4.098,7.833,16.491c11.67,38.979-28.941,35.044-39.728,35.044l3.333-3.473c-3.461,7.778-51.104,39.728-67,41.123
				s-73.572-35.189-73.572-35.189l8.054,3.539c-10.786,0-51.397,3.935-39.728-35.044c3.71-12.394,7.833-16.491,7.833-16.491"/>
		</g>
		<g>
			<path fill="#FCEDDB" d="M-1194.494,70.827c0,0,4.123,4.098,7.833,16.491c11.67,38.979-28.941,35.044-39.728,35.044l3.333-3.473
				c-3.461,7.778-51.104,39.728-67,41.123s-73.572-35.189-73.572-35.189l8.054,3.539c-10.786,0-51.397,3.935-39.728-35.044
				c3.71-12.394,7.833-16.491,7.833-16.491"/>
			<path fill="none" stroke="#F4D3AE" stroke-width="4.0132" stroke-miterlimit="10" d="M-1194.494,70.827
				c0,0,4.123,4.098,7.833,16.491c11.67,38.979-28.941,35.044-39.728,35.044l3.333-3.473c-3.461,7.778-51.104,39.728-67,41.123
				s-73.572-35.189-73.572-35.189l8.054,3.539c-10.786,0-51.397,3.935-39.728-35.044c3.71-12.394,7.833-16.491,7.833-16.491"/>
		</g>
	</g>
</g>
<g id="Layer_4">
	<path fill="#FCFCFC" stroke="#F4D3AE" stroke-width="4.0132" stroke-miterlimit="10" d="M-1181.174-118.924
		c0,0,2.173-49.499,82.146-62.919c91.098-15.286,141.409,57.746,125.396,39.497c0,0-22.398,71.535-100.444,72.654
		S-1181.174-118.924-1181.174-118.924z"/>
	<path fill="#FCFCFC" stroke="#F4D3AE" stroke-width="4.0132" stroke-miterlimit="10" d="M-1399.686-118.924
		c0,0-2.173-49.499-82.146-62.919c-91.098-15.286-141.409,57.746-125.396,39.497c0,0,22.398,71.535,100.444,72.654
		S-1399.686-118.924-1399.686-118.924z"/>
</g>
<g id="Layer_5">
	<g>
		
			<circle opacity="0.9" fill="#996633" stroke="#996633" stroke-width="4.0132" stroke-miterlimit="10" cx="-1499.663" cy="-134.243" r="35.248"/>
		
			<ellipse fill="#333333" stroke="#333333" stroke-width="1.4308" stroke-miterlimit="10" cx="-1499.663" cy="-133.648" rx="17.775" ry="18.553"/>
		
			<ellipse fill="#FFFFFF" stroke="#333333" stroke-width="0.6834" stroke-miterlimit="10" cx="-1490.161" cy="-150.811" rx="8.49" ry="8.861"/>
	</g>
	<g>
		
			<circle opacity="0.9" fill="#996633" stroke="#996633" stroke-width="4.0132" stroke-miterlimit="10" cx="-1079.663" cy="-130.243" r="35.248"/>
		
			<ellipse fill="#333333" stroke="#333333" stroke-width="1.4308" stroke-miterlimit="10" cx="-1079.663" cy="-129.648" rx="17.775" ry="18.553"/>
		
			<ellipse fill="#FFFFFF" stroke="#333333" stroke-width="0.6834" stroke-miterlimit="10" cx="-1070.161" cy="-146.811" rx="8.49" ry="8.861"/>
	</g>
	<g>
		
			<circle opacity="0.9" fill="#996633" stroke="#996633" stroke-width="4.0132" stroke-miterlimit="10" cx="41.337" cy="41.757" r="35.248"/>
		
			<ellipse fill="#333333" stroke="#333333" stroke-width="1.4308" stroke-miterlimit="10" cx="41.337" cy="42.352" rx="17.775" ry="18.553"/>
		
			<ellipse fill="#FFFFFF" stroke="#333333" stroke-width="0.6834" stroke-miterlimit="10" cx="50.839" cy="25.189" rx="8.49" ry="8.861"/>
	</g>
</g>
</svg>
