<?xml version="1.0" encoding="utf-8"?>
<!-- Generator: Adobe Illustrator 16.0.4, SVG Export Plug-In . SVG Version: 6.00 Build 0)  -->
<!DOCTYPE svg PUBLIC "-//W3C//DTD SVG 1.1//EN" "http://www.w3.org/Graphics/SVG/1.1/DTD/svg11.dtd">
<svg version="1.1" xmlns="http://www.w3.org/2000/svg" xmlns:xlink="http://www.w3.org/1999/xlink" x="0px" y="0px" width="1024px"
	 height="768px" viewBox="0 0 1024 768" enable-background="new 0 0 1024 768" xml:space="preserve">
<g id="Layer_1">
	<rect x="-9.5" y="-10.5" fill="#FCEDDB" stroke="#000000" stroke-miterlimit="10" width="1047" height="786"/>
</g>
<g id="Layer_3">
	<path opacity="0.4" fill="#F4D3AE" d="M336.091,317.138l58.852,91.774L385,471l-0.792,23.968l-3.06,26.732
		c0,0-56.215-103.017-82.106-121.234C262.514,374.762,135.085,369,135.085,369l-71.149,26.147l61.702-51.958l203.4,7.225"/>
	<path opacity="0.4" fill="#F4D3AE" d="M547.789,317.138l-58.853,91.774L498.88,471l0.791,23.968l3.061,26.732
		c0,0,56.215-103.017,82.105-121.234C621.366,374.762,748.795,369,748.795,369l71.148,26.147l-61.702-51.958l-203.4,7.225"/>
</g>
<g id="Layer_2">
	<g>
		<path fill="#282624" stroke="#282624" stroke-miterlimit="10" d="M289.404-20.811L-9.5-10v347.444c0,0,7.417,52.929,14.428,64.084
			c-5.242-25.208,26.755-89.68,18.508-136.411c-9.575-54.255,30.862-49.759,40.415-71.263c22.999-51.774-6.807-68.44,34.786-93.803
			c32.291-19.69,48.404,1.828,80.13-34.693c35.058-40.357,110.596,22.34,110.596,22.34s119.41-121.431,204.558,9.828
			c35.032,54.003,67.825-1.314,117.928,16.713c2.002,0.72,42.592,6.44,51.595,74.589c8.847,66.968,13.986,55.253,69.204,78.716
			c60.311,25.626,97.428,13.051,101.928,74.548c5.647,77.178-14.631,31.035-14.631,94.495c0,50.998,49.129,47.998,10.131,85.112
			c-95.677,91.055,32.999,108.378-28.498,174.375c-20.323,21.81-67.093,216.224,18.367,121.494
			c10.319-11.438,68.628,13.499,68.628,13.499l173.991,25.499L1036.5-9.5L289.404-20.811z"/>
	</g>
	
		<line fill="#FCEDDB" stroke="#F4D3AE" stroke-width="4.0132" stroke-miterlimit="10" x1="394.943" y1="408.912" x2="374.001" y2="591.891"/>
	
		<line fill="#FCEDDB" stroke="#F4D3AE" stroke-width="4.1063" stroke-miterlimit="10" x1="488.521" y1="408.912" x2="509.819" y2="597.274"/>
	
		<line fill="#FCEDDB" stroke="#F4D3AE" stroke-width="4.1063" stroke-miterlimit="10" x1="359.65" y1="353.877" x2="395.899" y2="408.965"/>
	
		<line fill="#FCEDDB" stroke="#F4D3AE" stroke-width="4.1063" stroke-miterlimit="10" x1="518.898" y1="353.877" x2="487.529" y2="408.965"/>
	<polygon fill="#282624" stroke="#282624" stroke-width="4" stroke-miterlimit="10" points="332.774,322.856 330.039,350.415 
		127.151,344.221 69.26,386.24 121.307,312.555 	"/>
	<polygon fill="#282624" stroke="#282624" stroke-width="4" stroke-miterlimit="10" points="545.26,322.856 547.994,350.415 
		750.882,344.221 808.773,386.24 756.727,312.555 	"/>
	<g>
		<g opacity="0.4">
			<path fill="#F4D3AE" d="M537.036,660.908c0,0,4.123,4.098,7.833,16.491c11.67,38.979-28.941,35.044-39.728,35.044l3.333-3.473
				c-3.461,7.778-51.104,39.728-67,41.123s-73.572-35.189-73.572-35.189l8.054,3.539c-10.786,0-51.397,3.935-39.728-35.044
				c3.71-12.394,7.833-16.491,7.833-16.491"/>
			<path fill="none" stroke="#F4D3AE" stroke-width="4.0132" stroke-miterlimit="10" d="M537.036,660.908
				c0,0,4.123,4.098,7.833,16.491c11.67,38.979-28.941,35.044-39.728,35.044l3.333-3.473c-3.461,7.778-51.104,39.728-67,41.123
				s-73.572-35.189-73.572-35.189l8.054,3.539c-10.786,0-51.397,3.935-39.728-35.044c3.71-12.394,7.833-16.491,7.833-16.491"/>
		</g>
		<g>
			<path fill="#FCEDDB" d="M537.036,640.908c0,0,4.123,4.098,7.833,16.491c11.67,38.979-28.941,35.044-39.728,35.044l3.333-3.473
				c-3.461,7.778-51.104,39.728-67,41.123s-73.572-35.189-73.572-35.189l8.054,3.539c-10.786,0-51.397,3.935-39.728-35.044
				c3.71-12.394,7.833-16.491,7.833-16.491"/>
			<path fill="none" stroke="#F4D3AE" stroke-width="4.0132" stroke-miterlimit="10" d="M537.036,640.908
				c0,0,4.123,4.098,7.833,16.491c11.67,38.979-28.941,35.044-39.728,35.044l3.333-3.473c-3.461,7.778-51.104,39.728-67,41.123
				s-73.572-35.189-73.572-35.189l8.054,3.539c-10.786,0-51.397,3.935-39.728-35.044c3.71-12.394,7.833-16.491,7.833-16.491"/>
		</g>
	</g>
</g>
<g id="Layer_4">
	<path fill="#FCFCFC" stroke="#F4D3AE" stroke-width="4.0132" stroke-miterlimit="10" d="M550.356,451.157
		c0,0,2.173-49.499,82.146-62.919c91.098-15.286,141.409,57.746,125.396,39.497c0,0-22.398,71.535-100.444,72.654
		S550.356,451.157,550.356,451.157z"/>
	<path fill="#FCFCFC" stroke="#F4D3AE" stroke-width="4.0132" stroke-miterlimit="10" d="M331.845,451.157
		c0,0-2.173-49.499-82.146-62.919c-91.098-15.286-141.409,57.746-125.396,39.497c0,0,22.398,71.535,100.444,72.654
		S331.845,451.157,331.845,451.157z"/>
</g>
<g id="Layer_5" display="none">
	<g display="inline">
		
			<circle opacity="0.9" fill="#996633" stroke="#996633" stroke-width="4.0132" stroke-miterlimit="10" cx="231.867" cy="435.838" r="35.248"/>
		
			<ellipse fill="#333333" stroke="#333333" stroke-width="1.4308" stroke-miterlimit="10" cx="231.867" cy="436.433" rx="17.775" ry="18.553"/>
		
			<ellipse fill="#FFFFFF" stroke="#333333" stroke-width="0.6834" stroke-miterlimit="10" cx="241.369" cy="419.271" rx="8.49" ry="8.861"/>
	</g>
	<g display="inline">
		
			<circle opacity="0.9" fill="#996633" stroke="#996633" stroke-width="4.0132" stroke-miterlimit="10" cx="651.867" cy="439.838" r="35.248"/>
		
			<ellipse fill="#333333" stroke="#333333" stroke-width="1.4308" stroke-miterlimit="10" cx="651.867" cy="440.433" rx="17.775" ry="18.553"/>
		
			<ellipse fill="#FFFFFF" stroke="#333333" stroke-width="0.6834" stroke-miterlimit="10" cx="661.369" cy="423.271" rx="8.49" ry="8.861"/>
	</g>
</g>
</svg>
