<?xml version="1.0" encoding="utf-8"?>
<!-- Generator: Adobe Illustrator 16.0.4, SVG Export Plug-In . SVG Version: 6.00 Build 0)  -->
<!DOCTYPE svg PUBLIC "-//W3C//DTD SVG 1.1//EN" "http://www.w3.org/Graphics/SVG/1.1/DTD/svg11.dtd">
<svg version="1.1" id="Layer_1" xmlns="http://www.w3.org/2000/svg" xmlns:xlink="http://www.w3.org/1999/xlink" x="0px" y="0px"
	 width="594px" height="604px" viewBox="0 0 594 604" enable-background="new 0 0 594 604" xml:space="preserve">
<rect x="298.406" y="21.867" transform="matrix(-0.7071 -0.7071 0.7071 -0.7071 507.6172 281.3221)" fill="#E63C2F" width="27.33" height="27.33"/>
<rect x="317.732" y="41.192" transform="matrix(-0.7071 -0.7071 0.7071 -0.7071 526.9362 327.9814)" fill="#FF9E16" width="27.329" height="27.329"/>
<rect x="337.056" y="60.517" transform="matrix(-0.7071 -0.7071 0.7071 -0.7071 546.2633 374.633)" fill="#F7D93E" width="27.33" height="27.33"/>
<rect x="356.381" y="79.842" transform="matrix(-0.7071 -0.7071 0.7071 -0.7071 565.5929 421.2852)" fill="#8BDC65" width="27.33" height="27.33"/>
<rect x="375.706" y="99.167" transform="matrix(-0.7071 -0.7071 0.7071 -0.7071 584.9053 467.947)" fill="#67B2E8" width="27.329" height="27.329"/>
<rect x="395.03" y="118.491" transform="matrix(-0.7071 -0.7071 0.7071 -0.7071 604.2379 514.5961)" fill="#0071CE" width="27.33" height="27.33"/>
<rect x="414.356" y="137.816" transform="matrix(-0.7071 -0.7071 0.7071 -0.7071 623.5634 561.2507)" fill="#B34FC5" width="27.33" height="27.33"/>
<rect x="433.681" y="157.141" transform="matrix(-0.7071 -0.7071 0.7071 -0.7071 642.8889 607.9051)" fill="#E63C2F" width="27.33" height="27.33"/>
<rect x="453.005" y="176.466" transform="matrix(-0.7071 -0.7071 0.7071 -0.7071 662.2183 654.5571)" fill="#FF9E16" width="27.33" height="27.33"/>
<rect x="472.33" y="195.791" transform="matrix(-0.7071 -0.7071 0.7071 -0.7071 681.5378 701.2143)" fill="#F7D93E" width="27.33" height="27.33"/>
<rect x="491.656" y="215.116" transform="matrix(-0.7071 -0.7071 0.7071 -0.7071 700.8697 747.8665)" fill="#8BDC65" width="27.33" height="27.33"/>
<rect x="510.981" y="234.441" transform="matrix(-0.7071 -0.7071 0.7071 -0.7071 720.1749 794.5283)" fill="#67B2E8" width="27.329" height="27.329"/>
<rect x="530.305" y="253.766" transform="matrix(-0.7071 -0.7071 0.7071 -0.7071 739.5124 841.1774)" fill="#0071CE" width="27.33" height="27.33"/>
<rect x="549.63" y="273.091" transform="matrix(-0.7071 -0.7071 0.7071 -0.7071 758.8376 887.8325)" fill="#B34FC5" width="27.33" height="27.33"/>
<rect x="266.947" y="551.982" transform="matrix(0.7071 0.7071 -0.7071 0.7071 482.1624 -32.7482)" fill="#E63C2F" width="27.33" height="27.33"/>
<rect x="247.622" y="532.658" transform="matrix(0.7071 0.7071 -0.7071 0.7071 462.8377 -24.7437)" fill="#FF9E16" width="27.33" height="27.329"/>
<rect x="228.297" y="513.333" transform="matrix(0.7071 0.7071 -0.7071 0.7071 443.5057 -16.7415)" fill="#F7D93E" width="27.329" height="27.33"/>
<rect x="208.972" y="494.008" transform="matrix(0.7071 0.7071 -0.7071 0.7071 424.1878 -8.7344)" fill="#8BDC65" width="27.33" height="27.33"/>
<rect x="189.647" y="474.683" transform="matrix(0.7071 0.7071 -0.7071 0.7071 404.8688 -0.7271)" fill="#67B2E8" width="27.33" height="27.33"/>
<rect x="170.323" y="455.358" transform="matrix(0.7071 0.7071 -0.7071 0.7071 385.5263 7.2699)" fill="#0071CE" width="27.329" height="27.33"/>
<rect x="150.998" y="436.033" transform="matrix(0.7071 0.7071 -0.7071 0.7071 366.2133 15.2795)" fill="#B34FC5" width="27.33" height="27.33"/>
<rect x="131.673" y="416.708" transform="matrix(0.7071 0.7071 -0.7071 0.7071 346.8932 23.2868)" fill="#E63C2F" width="27.33" height="27.33"/>
<rect x="112.348" y="397.384" transform="matrix(0.7071 0.7071 -0.7071 0.7071 327.5633 31.2888)" fill="#FF9E16" width="27.33" height="27.329"/>
<rect x="93.023" y="378.058" transform="matrix(0.7071 0.7071 -0.7071 0.7071 308.2337 39.291)" fill="#F7D93E" width="27.329" height="27.33"/>
<rect x="73.698" y="358.733" transform="matrix(0.7071 0.7071 -0.7071 0.7071 288.9135 47.2982)" fill="#8BDC65" width="27.33" height="27.33"/>
<rect x="54.373" y="339.408" transform="matrix(0.7071 0.7071 -0.7071 0.7071 269.592 55.3055)" fill="#67B2E8" width="27.33" height="27.33"/>
<rect x="35.048" y="320.084" transform="matrix(0.7071 0.7071 -0.7071 0.7071 250.2567 63.3024)" fill="#0071CE" width="27.329" height="27.33"/>
<rect x="15.723" y="300.759" transform="matrix(0.7071 0.7071 -0.7071 0.7071 230.9388 71.312)" fill="#B34FC5" width="27.33" height="27.33"/>
<polygon fill="#FFFFFF" points="200.357,246.096 200.357,251.722 205.983,251.722 205.983,262.941 200.357,262.941 200.357,251.722 
	183.512,251.722 183.512,291.004 200.357,291.004 200.357,279.785 205.983,279.785 205.983,291.004 200.357,291.004 200.357,296.63 
	177.887,296.63 177.887,291.004 172.294,291.004 172.294,251.722 177.887,251.722 177.887,246.096 "/>
<path fill="#FFFFFF" d="M218.347,262.94h22.471v5.626h5.626v22.438h-5.626v5.626h-22.471v-5.626h-5.593v-22.438h5.593V262.94z
	 M223.973,291.004h16.845v-22.438h-16.845V291.004z"/>
<rect x="255.45" y="246.096" fill="#FFFFFF" width="11.219" height="50.534"/>
<path fill="#FFFFFF" d="M279.056,262.94h22.47v5.626h5.626v22.438h-5.626v5.626h-22.47v-5.626h-5.593v-22.438h5.593V262.94z
	 M284.682,291.004h16.845v-22.438h-16.845V291.004z"/>
<polygon fill="#FFFFFF" points="313.924,262.94 325.143,262.94 325.143,268.566 330.769,268.566 330.769,262.94 341.987,262.94 
	341.987,268.566 330.769,268.566 330.769,274.16 325.143,274.16 325.143,296.63 313.924,296.63 "/>
<path fill="#FFFFFF" d="M353.24,262.94h22.471v5.626h5.625v11.219h-22.47v11.219h16.845v-5.593h5.625v5.593h-5.625v5.626H353.24
	v-5.626h-5.593v-22.438h5.593V262.94z M358.866,274.159h16.845v-5.593h-16.845V274.159z"/>
<path fill="#FFFFFF" d="M421.797,246.096v50.534h-28.096v-5.626h-5.593v-22.438h5.593v-5.626h16.845v-16.844H421.797z
	 M393.701,291.004h16.845v-22.438h-16.845V291.004z"/>
<path fill="#FFFFFF" d="M310.499,332.554H299.28v-11.219h11.219V332.554z M299.28,338.18h11.219v33.689H299.28V338.18z"/>
<polygon fill="#FFFFFF" points="326.266,332.555 337.484,332.555 337.484,338.181 343.11,338.181 343.11,343.807 337.484,343.807 
	337.484,366.243 343.11,366.243 343.11,371.869 331.892,371.869 331.892,366.243 326.266,366.243 326.266,343.807 320.64,343.807 
	320.64,338.181 326.266,338.181 "/>
<rect x="234.549" y="360.88" fill="#FFFFFF" width="11.219" height="11.219"/>
<path fill="#FFFFFF" d="M284.682,321.336v5.625h5.626v16.845h-5.626v5.594h5.626v16.845h-5.626v5.625h-28.064v-50.533H284.682z
	 M267.837,343.806h16.845v-16.845h-16.845V343.806z M267.837,366.244h16.845v-16.845h-16.845V366.244z"/>
</svg>
