<?xml version="1.0" encoding="utf-8"?>
<!-- Generator: Adobe Illustrator 16.0.4, SVG Export Plug-In . SVG Version: 6.00 Build 0)  -->
<!DOCTYPE svg PUBLIC "-//W3C//DTD SVG 1.1//EN" "http://www.w3.org/Graphics/SVG/1.1/DTD/svg11.dtd">
<svg version="1.1" id="Capa_1" xmlns="http://www.w3.org/2000/svg" xmlns:xlink="http://www.w3.org/1999/xlink" x="0px" y="0px"
	 width="960px" height="560px" viewBox="0 0 960 560" enable-background="new 0 0 960 560" xml:space="preserve">
<path stroke="#000000" stroke-width="0.25" stroke-miterlimit="10" d="M523.288,78.356c0-38.036-35.945-74.419-37.477-75.949
	C484.207,0.804,482.104,0,480,0c-2.082,0-4.163,0.785-5.764,2.358c-1.531,1.507-37.524,37.345-37.524,75.998
	c0,14.229,6.903,26.874,17.534,34.769l-8.744,122.416c0,0.007-0.001,0.012-0.001,0.019l-0.001,0.02
	c-0.006,0.096-0.002,0.189-0.005,0.284c-0.007,0.175-0.017,0.35-0.013,0.528l0.001,0.037c0,0.001,0,0.001,0,0.002l8.251,298.574
	C454.16,549.03,465.468,560,479.478,560h1.046c14.009,0,25.316-10.97,25.742-24.973l8.251-298.597c0-0.001,0-0.001,0-0.002
	l0.001-0.037c0.004-0.178-0.006-0.354-0.013-0.528c-0.003-0.096,0.001-0.188-0.005-0.284l-0.001-0.02
	c0-0.007-0.001-0.012-0.001-0.019l-8.744-122.416C516.385,105.23,523.288,92.585,523.288,78.356z M463.857,209.315h32.287
	l1.33,18.63h-34.948L463.857,209.315z M470.165,534.528l-8.017-290.145h35.703l-8.019,290.167c-0.153,5.043-4.243,9.011-9.311,9.011
	h-1.046C474.409,543.562,470.32,539.594,470.165,534.528z M470.198,120.511c3.151,0.733,6.43,1.133,9.801,1.133
	s6.648-0.4,9.801-1.133l5.169,72.366H465.03L470.198,120.511z M506.85,78.356c0,14.804-12.045,26.849-26.85,26.849
	s-26.85-12.045-26.85-26.849c0-23.392,17.426-46.932,26.803-57.905C489.33,31.564,506.85,55.401,506.85,78.356z"/>
</svg>
