<?xml version="1.0" encoding="utf-8"?>
<!-- Generator: Adobe Illustrator 23.0.3, SVG Export Plug-In . SVG Version: 6.00 Build 0)  -->
<svg version="1.1" id="Capa_1" xmlns="http://www.w3.org/2000/svg" xmlns:xlink="http://www.w3.org/1999/xlink" x="0px" y="0px"
	 viewBox="0 0 438.3 438.3" style="enable-background:new 0 0 438.3 438.3;" xml:space="preserve">
<style type="text/css">
	.st0{fill:#BBBBBB;}
</style>
<g>
	<path class="st0" d="M427.7,153.3L427.7,153.3c-14.1-14.1-37-14.1-51.1,0l-26.1,26.1l-44-44c14.8-0.1,29.3-6,40.1-16.9
		c10.9-10.9,16.9-25.3,16.9-40.7c0-15.4-6-29.8-16.9-40.7c-22.4-22.4-58.9-22.4-81.4,0c-10.9,10.9-16.7,25.4-16.9,40.2L199.1,28
		c-20.5-20.5-53.9-20.5-74.5,0c-13,13-27.5,27.5-38.8,38.8C79.4,73.1,76,81.5,76,90.5c0,9,3.5,17.4,9.9,23.8l0.5,0.5
		c6.2,6.2,14.4,9.6,23.2,9.6c0,0,0,0,0,0c8.8,0,17-3.4,23.2-9.6l22.1-22.1l30.4,30.4l-39.6,39.6H51.7c-27,0-49,22-49,49
		c0,19.5,0,41.9,0,59c0,8.9,3.5,17.3,9.8,23.6c6.3,6.3,14.7,9.8,23.7,9.8h0.7c8.7,0,16.9-3.4,23-9.5s9.5-14.3,9.5-23l-0.1-39.7h76
		L10.1,367.1c-13.4,13.4-13.4,35.2,0,48.6c6.5,6.5,15.1,10.1,24.3,10.1c9.2,0,17.8-3.6,24.3-10.1l125.8-125.8c5,3.3,11,5.2,17.1,5.2
		c6.8,0,13.3-2.2,18.6-6.2c6.1,2.8,12.7,4.2,19.4,4.2c25.6,0,46.5-20.9,46.5-46.5c0-15.5-7.6-29.7-20-38.2l7.3-7.3l46.7,46.7
		c8.6,8.6,20,13.3,32.2,13.3s23.6-4.7,32.2-13.3l43.3-43.3c6.8-6.8,10.6-15.9,10.6-25.5C438.3,169.2,434.6,160.1,427.7,153.3z
		 M273.1,246.5c0,18.5-15,33.5-33.5,33.5c-6,0-11.9-1.6-17-4.7c-2.6-1.5-5.9-1.1-8,1.1c-3.4,3.6-8,5.6-12.9,5.6
		c-2.7,0-5.2-0.6-7.6-1.7l62.6-62.6C266.8,223.7,273.1,234.5,273.1,246.5z M418.6,195.2l-43.3,43.3c-6.1,6.1-14.3,9.5-23,9.5
		s-16.8-3.4-23-9.5L278,187.2c-2.5-2.5-6.7-2.5-9.2,0L49.5,406.5c-4,4-9.4,6.3-15.1,6.3c-5.7,0-11.1-2.2-15.1-6.3
		c-8.3-8.3-8.3-21.9,0-30.2l146.4-146.4c1.9-1.9,2.4-4.7,1.4-7.1c-1-2.4-3.4-4-6-4H62.8c-1.7,0-3.4,0.7-4.6,1.9
		c-1.2,1.2-1.9,2.9-1.9,4.6l0.1,46.2c0,5.2-2,10.1-5.7,13.8S42,291,36.8,291h-0.7c-5.5,0-10.6-2.1-14.5-6c-3.8-3.8-6-8.9-6-14.4
		c0-17.1,0-39.6,0-59c0-19.9,16.2-36,36-36h96.5c1.7,0,3.4-0.7,4.6-1.9l46.1-46.1c2.5-2.5,2.5-6.7,0-9.2l-39.6-39.6
		c-1.2-1.2-2.9-1.9-4.6-1.9s-3.4,0.7-4.6,1.9l-26.7,26.7c-3.7,3.7-8.7,5.8-14,5.8c0,0,0,0,0,0c-5.3,0-10.2-2.1-14-5.8l-0.5-0.5
		C91.1,101.2,89,96,89,90.5c0-5.5,2.1-10.7,6-14.6c11.3-11.3,25.8-25.8,38.8-38.8c15.5-15.5,40.6-15.5,56.1,0l64,64
		c2.2,2.2,5.6,2.5,8.2,0.8c2.6-1.7,3.6-4.9,2.5-7.8c-6.5-16.5-2.6-35.3,10-47.8c17.4-17.4,45.6-17.4,63,0c17.4,17.4,17.4,45.6,0,63
		c-12.5,12.5-31.3,16.4-47.8,10c-2.9-1.1-6.1-0.1-7.8,2.5c-1.7,2.6-1.3,6,0.8,8.2l63.2,63.3c2.5,2.5,6.7,2.5,9.2,0l30.7-30.7
		c9-9,23.7-9,32.7,0h0c4.4,4.4,6.8,10.2,6.8,16.3C425.3,185,422.9,190.8,418.6,195.2z"/>
	<path class="st0" d="M223.6,315.1c-10.8,0-19.5,8.7-19.5,19.5s8.7,19.5,19.5,19.5s19.5-8.7,19.5-19.5S234.3,315.1,223.6,315.1z
		 M223.6,341.1c-3.6,0-6.5-2.9-6.5-6.5s2.9-6.5,6.5-6.5s6.5,2.9,6.5,6.5S227.2,341.1,223.6,341.1z"/>
</g>
</svg>
