<?xml version="1.0" encoding="iso-8859-1"?>
<!-- Generator: Adobe Illustrator 18.0.0, SVG Export Plug-In . SVG Version: 6.00 Build 0)  -->
<!DOCTYPE svg PUBLIC "-//W3C//DTD SVG 1.1//EN" "http://www.w3.org/Graphics/SVG/1.1/DTD/svg11.dtd">
<svg version="1.1" id="Capa_1" xmlns="http://www.w3.org/2000/svg" xmlns:xlink="http://www.w3.org/1999/xlink" x="0px" y="0px"
	 viewBox="0 0 438.32 438.32" style="enable-background:new 0 0 438.32 438.32;" xml:space="preserve">
<g>
	<path d="M427.743,153.301L427.743,153.301c-14.079-14.079-36.987-14.079-51.065,0l-26.131,26.13l-44.021-44.021
		c14.8-0.143,29.288-5.991,40.15-16.854c10.87-10.87,16.856-25.322,16.856-40.694c0-15.373-5.986-29.825-16.856-40.695
		c-22.438-22.439-58.949-22.438-81.389,0c-10.862,10.864-16.711,25.352-16.854,40.151l-49.353-49.353
		c-20.534-20.534-53.946-20.538-74.479-0.009c-13.016,13.012-27.546,27.539-38.805,38.79c-6.353,6.349-9.843,14.79-9.829,23.768
		c0.014,8.979,3.536,17.438,9.918,23.82l0.479,0.48c6.19,6.19,14.42,9.598,23.173,9.598c0.004,0,0.007,0,0.01,0
		c8.757-0.002,16.988-3.416,23.178-9.611l22.104-22.128l30.358,30.358l-39.62,39.621H51.725c-27.036,0-49.036,21.991-49.042,49.021
		c-0.005,19.466-0.014,41.944-0.029,59.018c-0.008,8.919,3.464,17.297,9.775,23.592c6.313,6.295,14.724,9.762,23.685,9.762h0.676
		c8.702,0,16.882-3.391,23.031-9.549s9.529-14.341,9.518-23.044l-0.054-39.66h76.044L10.053,367.068
		c-13.404,13.404-13.404,35.215,0,48.62c6.493,6.493,15.127,10.07,24.31,10.07c9.184,0,17.816-3.576,24.31-10.07l125.823-125.823
		c5.025,3.331,10.974,5.172,17.083,5.172c6.825,0,13.28-2.187,18.611-6.238c6.061,2.783,12.678,4.238,19.389,4.238
		c25.641,0,46.5-20.86,46.5-46.5c0-15.516-7.622-29.672-20.022-38.233l7.298-7.298l46.695,46.695
		c8.596,8.596,20.023,13.33,32.18,13.33s23.584-4.734,32.179-13.33l43.335-43.333c6.819-6.82,10.576-15.888,10.576-25.533
		C438.32,169.189,434.563,160.121,427.743,153.301z M273.079,246.537c0,18.472-15.028,33.5-33.5,33.5
		c-5.997,0-11.889-1.612-17.038-4.662c-2.604-1.543-5.925-1.083-8.014,1.103c-3.423,3.585-8.021,5.559-12.948,5.559
		c-2.675,0-5.237-0.591-7.572-1.683l62.64-62.64C266.757,223.684,273.079,234.545,273.079,246.537z M418.551,195.175l-43.335,43.333
		c-6.14,6.14-14.303,9.522-22.986,9.522s-16.848-3.382-22.988-9.522l-51.29-51.291c-2.539-2.538-6.655-2.538-9.192,0L49.48,406.495
		c-4.037,4.038-9.406,6.262-15.117,6.262c-5.71,0-11.079-2.224-15.116-6.262c-8.336-8.336-8.336-21.899,0-30.235l146.37-146.371
		c1.859-1.859,2.416-4.655,1.409-7.083c-1.006-2.429-3.376-4.013-6.005-4.013H62.776c-1.726,0-3.38,0.686-4.6,1.907
		c-1.219,1.221-1.902,2.876-1.9,4.602l0.063,46.169c0.007,5.227-2.022,10.142-5.716,13.84s-8.606,5.735-13.833,5.735h-0.676
		c-5.495,0-10.646-2.119-14.505-5.966c-3.845-3.835-5.96-8.94-5.955-14.376c0.016-17.076,0.024-39.558,0.029-59.027
		c0.004-19.863,16.173-36.023,36.042-36.023h96.537c1.724,0,3.377-0.685,4.597-1.904l46.12-46.121c2.538-2.539,2.538-6.654,0-9.192
		l-39.553-39.553c-1.22-1.219-2.874-1.904-4.599-1.904s-3.378,0.686-4.597,1.906l-26.701,26.729
		c-3.734,3.738-8.7,5.797-13.984,5.799c-0.001,0-0.003,0-0.005,0c-5.281,0-10.246-2.056-13.982-5.792l-0.479-0.48
		c-3.932-3.931-6.101-9.133-6.109-14.647c-0.009-5.496,2.129-10.665,6.019-14.552c11.259-11.251,25.791-25.779,38.807-38.792
		c15.465-15.461,40.628-15.459,56.095,0.008l63.986,63.987c2.178,2.177,5.584,2.527,8.158,0.842
		c2.575-1.687,3.614-4.948,2.488-7.814c-6.483-16.511-2.575-35.279,9.958-47.813c17.37-17.369,45.633-17.371,63.005,0
		c17.37,17.37,17.37,45.634-0.001,63.004c-12.532,12.534-31.301,16.443-47.813,9.958c-2.863-1.124-6.128-0.086-7.813,2.489
		c-1.687,2.575-1.336,5.98,0.842,8.157l63.25,63.251c2.538,2.539,6.654,2.539,9.192,0l30.728-30.726
		c9.011-9.012,23.672-9.01,32.681,0h0.001c4.364,4.365,6.769,10.168,6.769,16.341C425.32,185.007,422.916,190.811,418.551,195.175z"
		/>
	<path d="M223.574,315.132c-10.752,0-19.5,8.748-19.5,19.5s8.748,19.5,19.5,19.5s19.5-8.748,19.5-19.5
		S234.326,315.132,223.574,315.132z M223.574,341.132c-3.584,0-6.5-2.916-6.5-6.5s2.916-6.5,6.5-6.5s6.5,2.916,6.5,6.5
		S227.158,341.132,223.574,341.132z"/>
</g>
<g>
</g>
<g>
</g>
<g>
</g>
<g>
</g>
<g>
</g>
<g>
</g>
<g>
</g>
<g>
</g>
<g>
</g>
<g>
</g>
<g>
</g>
<g>
</g>
<g>
</g>
<g>
</g>
<g>
</g>
</svg>
