<?xml version="1.0" encoding="UTF-8"?>
<svg width="512px" height="478px" viewBox="0 0 512 478" version="1.1" xmlns="http://www.w3.org/2000/svg" xmlns:xlink="http://www.w3.org/1999/xlink">
    <!-- Generator: Sketch 53.2 (72643) - https://sketchapp.com -->
    <title>education</title>
    <desc>Created with Sketch.</desc>
    <g id="Page-1" stroke="none" stroke-width="1" fill="none" fill-rule="evenodd">
        <g id="education" fill="#BBBBBB" fill-rule="nonzero">
            <path d="M360.465,426.988 C355.891,425.827 351.258,428.626 350.123,433.192 L341.59,467.325 C340.438,471.907 343.228,476.532 347.802,477.676 C348.493,477.855 349.193,477.932 349.876,477.932 C353.699,477.932 357.172,475.346 358.145,471.472 L366.678,437.339 C367.821,432.765 365.039,428.132 360.465,426.988 Z" id="Path"></path>
            <path d="M256,256.066 C257.109,256.066 258.219,255.853 259.26,255.418 L353.127,216.574 C357.479,214.773 359.544,209.781 357.744,205.429 C355.943,201.068 350.934,199.02 346.591,200.804 L256,238.299 L17.067,139.432 L17.067,136.599 C17.067,131.889 13.244,128.066 8.534,128.066 C3.824,128.066 0,131.889 0,136.599 L0,145.132 C0,148.588 2.082,151.703 5.274,153.017 L252.741,255.417 C253.781,255.852 254.891,256.066 256,256.066 Z" id="Path"></path>
            <path d="M357.513,343.49 C355.431,339.266 350.328,337.525 346.087,339.616 C329.882,347.629 302.814,356.947 264.534,358.219 L264.534,281.666 C264.534,276.956 260.711,273.133 256.001,273.133 C251.291,273.133 247.468,276.956 247.468,281.666 L247.468,358.142 C141.51,354.763 107.317,290.575 102.401,279.891 L102.401,221.933 C102.401,217.223 98.578,213.4 93.868,213.4 C89.158,213.4 85.335,217.223 85.335,221.933 L85.335,281.666 C85.335,282.75 85.54,283.825 85.941,284.84 C87.426,288.535 123.744,375.532 256.002,375.532 C302.227,375.532 334.62,364.319 353.649,354.915 C357.879,352.825 359.612,347.714 357.513,343.49 Z" id="Path"></path>
            <path d="M384,435.266 C379.281,435.266 375.467,439.089 375.467,443.799 L375.467,469.399 C375.467,474.109 379.281,477.932 384,477.932 C388.719,477.932 392.533,474.109 392.533,469.399 L392.533,443.799 C392.533,439.089 388.719,435.266 384,435.266 Z" id="Path"></path>
            <path d="M503.467,128.066 C498.748,128.066 494.934,131.889 494.934,136.599 L494.934,139.415 L392.534,181.561 L392.534,166.141 L506.727,118.883 C509.918,117.569 512.001,114.454 512.001,110.998 C512.001,107.542 509.919,104.436 506.736,103.113 L259.26,0.714 C257.169,-0.148 254.831,-0.148 252.741,0.714 L5.274,103.114 C2.082,104.437 0,107.543 0,110.999 C0,114.455 2.082,117.57 5.274,118.884 L252.741,221.284 C253.782,221.719 254.891,221.933 256.001,221.933 C257.111,221.933 258.22,221.72 259.261,221.284 L348.742,184.258 C353.103,182.466 355.168,177.474 353.367,173.113 C351.566,168.761 346.574,166.704 342.222,168.496 L256,204.166 L30.848,110.999 L256,17.832 L481.152,110.999 L383.181,151.541 L289.34,116.503 C289.835,114.728 290.134,112.902 290.134,110.999 C290.134,96.646 275.141,85.399 256.001,85.399 C236.861,85.399 221.868,96.646 221.868,110.999 C221.868,125.352 236.861,136.599 256.001,136.599 C264.543,136.599 272.163,134.269 278.085,130.515 L375.467,166.876 L375.467,194.217 L375.467,194.226 L375.467,377.104 C365.56,380.645 358.4,390.023 358.4,401.134 C358.4,415.248 369.886,426.734 384,426.734 C398.114,426.734 409.6,415.248 409.6,401.134 C409.6,390.024 402.441,380.646 392.533,377.104 L392.533,328.669 C417.032,310.177 425.813,285.55 426.197,284.458 C426.504,283.562 426.666,282.615 426.666,281.668 L426.666,221.935 C426.666,217.225 422.852,213.402 418.133,213.402 C413.414,213.402 409.6,217.225 409.6,221.935 L409.6,280.09 C408.124,283.708 402.995,294.861 392.533,305.869 L392.533,200.019 L506.718,153.026 C509.918,151.712 512,148.589 512,145.133 L512,136.6 C512,131.889 508.186,128.066 503.467,128.066 Z M256,119.532 C245.581,119.532 238.933,114.48 238.933,110.999 C238.933,107.517 245.58,102.466 256,102.466 C266.42,102.466 273.067,107.518 273.067,110.999 C273.067,114.481 266.419,119.532 256,119.532 Z M384,409.666 C379.29,409.666 375.467,405.835 375.467,401.133 C375.467,396.431 379.29,392.6 384,392.6 C388.71,392.6 392.533,396.431 392.533,401.133 C392.533,405.834 388.71,409.666 384,409.666 Z" id="Shape"></path>
            <path d="M417.877,433.192 C416.734,428.627 412.091,425.836 407.535,426.988 C402.961,428.131 400.179,432.765 401.323,437.339 L409.856,471.472 C410.829,475.346 414.302,477.932 418.125,477.932 C418.808,477.932 419.507,477.855 420.199,477.676 C424.773,476.533 427.555,471.907 426.411,467.325 L417.877,433.192 Z" id="Path"></path>
        </g>
    </g>
</svg>