<svg height="512pt" viewBox="0 -44 512.001 512" width="512pt" xmlns="http://www.w3.org/2000/svg"><path d="m452.140625 423.105469c-33.003906 0-59.859375-26.851563-59.859375-59.859375v-291.625c0-4.140625 3.359375-7.5 7.5-7.5h91.179688c11.601562 0 21.039062 9.4375 21.039062 21.039062v278.085938c0 33.007812-26.851562 59.859375-59.859375 59.859375zm-44.859375-343.984375v284.125c0 24.734375 20.125 44.859375 44.859375 44.859375s44.859375-20.121094 44.859375-44.859375v-278.085938c0-3.328125-2.710938-6.039062-6.039062-6.039062zm0 0"/><path d="m357.089844 97.128906h-119.097656c-4.140626 0-7.5-3.355468-7.5-7.5v-31.828125c0-4.140625 3.359374-7.5 7.5-7.5h119.097656c4.140625 0 7.5 3.359375 7.5 7.5v31.828125c0 4.144532-3.359375 7.5-7.5 7.5zm-111.597656-15h104.097656v-16.828125h-104.097656zm0 0"/><path d="m357.089844 151.277344h-119.097656c-4.140626 0-7.5-3.355469-7.5-7.5 0-4.144532 3.359374-7.5 7.5-7.5h119.097656c4.140625 0 7.5 3.355468 7.5 7.5 0 4.144531-3.359375 7.5-7.5 7.5zm0 0"/><path d="m357.089844 214.136719h-309.035156c-4.144532 0-7.5-3.355469-7.5-7.5s3.355468-7.5 7.5-7.5h309.035156c4.140625 0 7.5 3.355469 7.5 7.5s-3.359375 7.5-7.5 7.5zm0 0"/><path d="m357.089844 276.996094h-309.035156c-4.144532 0-7.5-3.359375-7.5-7.5 0-4.144532 3.355468-7.5 7.5-7.5h309.035156c4.140625 0 7.5 3.355468 7.5 7.5 0 4.140625-3.359375 7.5-7.5 7.5zm0 0"/><path d="m357.089844 339.855469h-309.035156c-4.144532 0-7.5-3.355469-7.5-7.5s3.355468-7.5 7.5-7.5h309.035156c4.140625 0 7.5 3.355469 7.5 7.5s-3.359375 7.5-7.5 7.5zm0 0"/><path d="m452.140625 423.105469h-194.320313c-4.140624 0-7.5-3.355469-7.5-7.5s3.359376-7.5 7.5-7.5h154.730469c-12.421875-10.976563-20.269531-27.019531-20.269531-44.859375v-341.84375c0-3.53125-2.871094-6.402344-6.398438-6.402344h-364.480468c-3.53125 0-6.402344 2.871094-6.402344 6.402344v340.480468c0 25.488282 20.734375 46.222657 46.21875 46.222657h168.601562c4.144532 0 7.5 3.355469 7.5 7.5s-3.355468 7.5-7.5 7.5h-168.601562c-33.753906 0-61.21875-27.464844-61.21875-61.222657v-340.480468c0-11.800782 9.601562-21.402344 21.402344-21.402344h364.480468c11.800782 0 21.398438 9.601562 21.398438 21.402344v341.84375c0 24.734375 20.125 44.859375 44.859375 44.859375 4.144531 0 7.5 3.355469 7.5 7.5s-3.355469 7.5-7.5 7.5zm0 0"/><path d="m204.113281 167.972656h-87.113281c-4.140625 0-7.5-3.355468-7.5-7.5 0-4.144531 3.359375-7.5 7.5-7.5h79.613281v-87.671875h-141.058593v87.671875h33.445312c4.140625 0 7.5 3.355469 7.5 7.5 0 4.144532-3.359375 7.5-7.5 7.5h-40.945312c-4.144532 0-7.5-3.355468-7.5-7.5v-102.671875c0-4.140625 3.355468-7.5 7.5-7.5h156.058593c4.140625 0 7.5 3.359375 7.5 7.5v102.671875c0 4.144532-3.359375 7.5-7.5 7.5zm0 0"/></svg>