<?xml version="1.0" encoding="UTF-8"?>
<svg width="490px" height="490px" viewBox="0 0 490 490" version="1.1" xmlns="http://www.w3.org/2000/svg" xmlns:xlink="http://www.w3.org/1999/xlink">
    <!-- Generator: Sketch 53.2 (72643) - https://sketchapp.com -->
    <title>search</title>
    <desc>Created with Sketch.</desc>
    <g id="Page-1" stroke="none" stroke-width="1" fill="none" fill-rule="evenodd">
        <g id="search" fill="#03446A" fill-rule="nonzero">
            <path d="M484,455.2 L366.2,337.4 C395.4,301.8 413,256.2 413,206.5 C413,92.5 320.5,0 206.5,0 C92.4,0 0,92.5 0,206.5 C0,320.5 92.4,413 206.5,413 C256.2,413 301.7,395.5 337.3,366.3 L455.1,484 C463.1,492 476,492 484,484 C492,476.1 492,463.1 484,455.2 Z M206.5,371.9 C115.2,371.9 41,297.7 41,206.5 C41,115.3 115.2,41 206.5,41 C297.7,41 372,115.3 372,206.5 C372,297.7 297.7,371.9 206.5,371.9 Z" id="Shape"></path>
        </g>
    </g>
</svg>