<?xml version="1.0" encoding="UTF-8"?>
<svg width="392px" height="406px" viewBox="0 0 392 406" version="1.1" xmlns="http://www.w3.org/2000/svg" xmlns:xlink="http://www.w3.org/1999/xlink">
    <!-- Generator: Sketch 53.2 (72643) - https://sketchapp.com -->
    <title>stories-1</title>
    <desc>Created with Sketch.</desc>
    <g id="Page-1" stroke="none" stroke-width="1" fill="none" fill-rule="evenodd">
        <g id="stories-1" fill="#BBBBBB" fill-rule="nonzero">
            <path d="M26,405.944 L366,405.944 C380.352778,405.928018 391.984018,394.296778 392,379.944 L392,156.055 C391.983468,141.70245 380.35255,130.071532 366,130.055 L96.444,130.055 L96.444,113.884 C96.4418674,111.339645 94.8351878,109.073301 92.435,108.229 L224.1,37.135 C231.704971,44.9007967 243.868608,45.8780254 252.615844,39.4259678 C261.363079,32.9739101 264.021079,21.0640785 258.847129,11.5051339 C253.673179,1.94618924 242.24825,-2.34100532 232.063076,1.45444209 C221.877903,5.24988949 216.044701,15.9682293 218.388,26.582 L67.813,107.882 L48.222,107.882 C44.9082915,107.882 42.222,110.568292 42.222,113.882 L42.222,130.053 L26,130.053 C11.6474499,130.069532 0.0165320381,141.70045 -2.84217094e-14,156.053 L-2.84217094e-14,379.944 C0.0159821436,394.296778 11.6472217,405.928018 26,405.944 Z M239.712,12.056 C243.689664,12.0555955 247.275867,14.4514245 248.79824,18.1262292 C250.320613,21.8010339 249.479321,26.0310551 246.666688,28.843688 C243.854055,31.656321 239.624034,32.4976128 235.949229,30.9752399 C232.274424,29.4528671 229.878596,25.8666637 229.879,21.889 C229.885062,16.4608971 234.283897,12.0620622 239.712,12.056 L239.712,12.056 Z M54.222,119.884 L84.444,119.884 L84.444,130.055 L54.222,130.055 L54.222,119.884 Z M12,156.055 C12.0082673,148.326441 18.2714405,142.063267 26,142.055 L366,142.055 C373.728559,142.063267 379.991733,148.326441 380,156.055 L380,379.944 C379.991733,387.672559 373.728559,393.935733 366,393.944 L26,393.944 C18.2714405,393.935733 12.0082673,387.672559 12,379.944 L12,156.055 Z" id="Shape"></path>
            <path d="M48.222,236.5 L343.778,236.5 C347.091708,236.5 349.778,233.813708 349.778,230.5 L349.778,177.719 C349.778,174.405292 347.091708,171.719 343.778,171.719 L48.222,171.719 C44.9082915,171.719 42.222,174.405292 42.222,177.719 L42.222,230.5 C42.222,233.813708 44.9082915,236.5 48.222,236.5 Z M54.222,183.722 L65.444,183.722 L65.444,210.444 C65.444,213.757708 68.1302915,216.444 71.444,216.444 C74.7577085,216.444 77.444,213.757708 77.444,210.444 L77.444,183.719 L96.715,183.719 L96.715,198.83 C96.715,202.143708 99.4012915,204.83 102.715,204.83 C106.028708,204.83 108.715,202.143708 108.715,198.83 L108.715,183.719 L127.986,183.719 L127.986,210.441 C127.986,213.754708 130.672292,216.441 133.986,216.441 C137.299708,216.441 139.986,213.754708 139.986,210.441 L139.986,183.719 L159.257,183.719 L159.257,198.83 C159.257,202.143708 161.943292,204.83 165.257,204.83 C168.570708,204.83 171.257,202.143708 171.257,198.83 L171.257,183.719 L190.528,183.719 L190.528,210.441 C190.528,213.754708 193.214292,216.441 196.528,216.441 C199.841708,216.441 202.528,213.754708 202.528,210.441 L202.528,183.719 L221.8,183.719 L221.8,198.83 C221.8,202.143708 224.486292,204.83 227.8,204.83 C231.113708,204.83 233.8,202.143708 233.8,198.83 L233.8,183.719 L253.07,183.719 L253.07,210.441 C253.07,213.754708 255.756292,216.441 259.07,216.441 C262.383708,216.441 265.07,213.754708 265.07,210.441 L265.07,183.719 L284.34,183.719 L284.34,198.83 C284.34,202.143708 287.026292,204.83 290.34,204.83 C293.653708,204.83 296.34,202.143708 296.34,198.83 L296.34,183.719 L315.611,183.719 L315.611,210.441 C315.611,213.754708 318.297292,216.441 321.611,216.441 C324.924708,216.441 327.611,213.754708 327.611,210.441 L327.611,183.719 L337.778,183.719 L337.778,224.5 L54.222,224.5 L54.222,183.722 Z" id="Shape"></path>
            <path d="M43.7,329.615 C45.4879309,337.458965 48.8737298,344.850124 53.646,351.327 C53.861731,351.683322 54.1141011,352.016129 54.399,352.32 C65.5032293,366.824812 82.7287208,375.331441 100.996,375.331441 C119.263279,375.331441 136.488771,366.824812 147.593,352.32 C147.879346,352.013835 148.133047,351.678696 148.35,351.32 C153.121568,344.842836 156.506989,337.451758 158.295,329.608 C158.374656,329.345816 158.436464,329.078537 158.48,328.808 C160.029122,321.574831 160.189973,314.113208 158.954,306.82 C158.923875,306.524453 158.871391,306.231614 158.797,305.944 C157.375402,298.176583 154.394036,290.777938 150.033,284.195 C149.826889,283.806111 149.578377,283.441223 149.292,283.107 C138.331794,267.242294 120.279005,257.772172 100.9965,257.772172 C81.7139946,257.772172 63.6612062,267.242294 52.701,283.107 C52.4160667,283.440811 52.1682769,283.804616 51.962,284.192 C47.6000569,290.77577 44.6180074,298.175444 43.196,305.944 C43.1225091,306.231086 43.0703667,306.523217 43.04,306.818 C41.8042453,314.110515 41.964756,321.571379 43.513,328.804 C43.5564545,329.078342 43.6189386,329.349329 43.7,329.615 Z M60.611,293 L141.389,293 C142.950594,295.667329 144.242638,298.483563 145.246,301.407 L56.754,301.407 C57.7573619,298.483563 59.0494058,295.667329 60.611,293 Z M147.66,313.407 C147.73,314.449 147.778,315.496 147.778,316.555 C147.776752,318.31224 147.676594,320.068017 147.478,321.814 L54.526,321.814 C54.3274061,320.068017 54.2272477,318.31224 54.226,316.555 C54.226,315.496 54.274,314.449 54.344,313.407 L147.66,313.407 Z M140.079,342.222 L61.921,342.222 C60.177868,339.575357 58.7086307,336.758175 57.536,333.814 L144.464,333.814 C143.291369,336.758175 141.822132,339.575357 140.079,342.222 L140.079,342.222 Z M73.303,354.222 L128.7,354.222 C112.23342,366.370088 89.7725797,366.370088 73.306,354.222 L73.303,354.222 Z M131.346,281 L70.654,281 C88.1175721,266.036021 113.882428,266.036021 131.346,281 Z" id="Shape"></path>
            <path d="M327.944,257.777 C315.885415,257.777 306.11,267.552415 306.11,279.611 C306.11,291.669585 315.885415,301.445 327.944,301.445 C340.002585,301.445 349.778,291.669585 349.778,279.611 C349.764223,267.558126 339.996874,257.790777 327.944,257.777 L327.944,257.777 Z M327.944,289.444 C323.966427,289.444 320.380531,287.047915 318.858473,283.373078 C317.336415,279.698241 318.177954,275.468384 320.990666,272.655958 C323.803377,269.843533 328.03332,269.002424 331.708002,270.524856 C335.382684,272.047287 337.778404,275.633427 337.778,279.611 C337.771937,285.039493 333.372493,289.438489 327.944,289.444 L327.944,289.444 Z" id="Shape"></path>
            <path d="M327.944,331.667 C315.886097,331.667552 306.111632,341.442764 306.112,353.500667 C306.112368,365.558569 315.887431,375.333184 327.945333,375.333 C340.003236,375.332816 349.778,365.557903 349.778,353.5 C349.764222,341.447288 339.996712,331.680226 327.944,331.667 L327.944,331.667 Z M327.944,363.333 C322.513514,363.332448 318.111632,358.929819 318.112,353.499333 C318.112368,348.068848 322.514848,343.666816 327.945333,343.667 C333.375819,343.667184 337.778,348.069514 337.778,353.5 C337.771937,358.928493 333.372493,363.327489 327.944,363.333 L327.944,363.333 Z" id="Shape"></path>
            <path d="M262.5,257.777 C253.66888,257.776596 245.707105,263.096022 242.327301,271.254797 C238.947498,279.413572 240.815275,288.804928 247.059677,295.049616 C253.304079,301.294303 262.69535,303.162511 270.854279,299.783081 C279.013208,296.403652 284.333,288.44212 284.333,279.611 C284.319774,267.558288 274.552712,257.790778 262.5,257.777 Z M262.5,289.444 C258.522336,289.444404 254.936133,287.048576 253.41376,283.373771 C251.891387,279.698966 252.732679,275.468945 255.545312,272.656312 C258.357945,269.843679 262.587966,269.002387 266.262771,270.52476 C269.937576,272.047133 272.333404,275.633336 272.333,279.611 C272.326938,285.039103 267.928103,289.437938 262.5,289.444 L262.5,289.444 Z" id="Shape"></path>
            <path d="M262.5,331.667 C250.441967,331.667 240.667,341.441967 240.667,353.5 C240.667,365.558033 250.441967,375.333 262.5,375.333 C274.558033,375.333 284.333,365.558033 284.333,353.5 C284.319773,341.44745 274.55255,331.680227 262.5,331.667 L262.5,331.667 Z M262.5,363.333 C257.069384,363.333 252.667,358.930616 252.667,353.5 C252.667,348.069384 257.069384,343.667 262.5,343.667 C267.930616,343.667 272.333,348.069384 272.333,353.5 C272.326938,358.928103 267.928103,363.326938 262.5,363.333 L262.5,363.333 Z" id="Shape"></path>
        </g>
    </g>
</svg>