<?xml version="1.0" encoding="UTF-8"?>
<svg width="465px" height="381px" viewBox="0 0 465 381" version="1.1" xmlns="http://www.w3.org/2000/svg" xmlns:xlink="http://www.w3.org/1999/xlink">
    <!-- Generator: Sketch 53.2 (72643) - https://sketchapp.com -->
    <title>stories</title>
    <desc>Created with Sketch.</desc>
    <g id="Page-1" stroke="none" stroke-width="1" fill="none" fill-rule="evenodd">
        <g id="stories" fill="#BBBBBB" fill-rule="nonzero">
            <path d="M240,314.071 L240,90.12 C240,85.977 236.643,82.62 232.5,82.62 C228.357,82.62 225,85.977 225,90.12 L225,314.071 C225,318.214 228.357,321.571 232.5,321.571 C236.643,321.571 240,318.214 240,314.071 Z" id="Path"></path>
            <path d="M457.5,33.782 C441.644,33.782 421.886,26.94 400.967,19.697 C374.475,10.523 344.446,0.126 313.304,0.126 C277.269,0.126 255.285,15.917 243.189,29.164 C238.665,34.12 235.159,39.086 232.501,43.491 C229.843,39.086 226.337,34.12 221.813,29.164 C209.716,15.917 187.733,0.126 151.698,0.126 C120.555,0.126 90.527,10.523 64.035,19.697 C43.114,26.94 23.356,33.782 7.5,33.782 C3.357,33.782 0,37.139 0,41.282 L0,343.374 C0,347.517 3.357,350.874 7.5,350.874 C25.88,350.874 46.797,343.631 68.941,335.963 C94.316,327.177 123.077,317.218 151.696,317.218 C176.236,317.218 196.099,325.344 210.734,341.37 C213.526,344.428 218.271,344.643 221.33,341.85 C224.389,339.057 224.603,334.313 221.81,331.254 C209.713,318.008 187.73,302.217 151.696,302.217 C120.553,302.217 90.525,312.614 64.033,321.788 C46.298,327.931 29.396,333.782 15,335.422 L15,48.41 C31.491,46.839 49.755,40.514 68.941,33.871 C94.316,25.085 123.077,15.126 151.696,15.126 C209.577,15.126 224.721,61.088 225.33,63.02 C226.298,66.168 229.206,68.318 232.5,68.318 C235.794,68.318 238.702,66.169 239.67,63.02 C239.816,62.541 255.053,15.126 313.304,15.126 C341.923,15.126 370.684,25.085 396.059,33.871 C415.246,40.515 433.509,46.839 450,48.41 L450,335.422 C435.604,333.782 418.702,327.931 400.967,321.789 C374.475,312.615 344.446,302.218 313.304,302.218 C277.268,302.218 255.284,318.009 243.189,331.256 C240.396,334.316 240.611,339.059 243.669,341.852 C246.729,344.645 251.473,344.43 254.265,341.372 C268.9,325.345 288.763,317.219 313.304,317.219 C341.923,317.219 370.684,327.178 396.059,335.964 C418.204,343.632 439.121,350.875 457.5,350.875 C461.643,350.875 465,347.518 465,343.375 L465,41.282 C465,37.14 461.643,33.782 457.5,33.782 Z" id="Path"></path>
            <path d="M457.5,365.874 C441.644,365.874 421.886,359.032 400.967,351.789 C374.475,342.615 344.446,332.218 313.304,332.218 C279.461,332.218 258.013,346.146 245.508,358.814 L219.491,358.813 C206.986,346.145 185.537,332.218 151.696,332.218 C120.553,332.218 90.525,342.615 64.033,351.789 C43.114,359.032 23.356,365.874 7.5,365.874 C3.357,365.874 -2.84217094e-14,369.231 -2.84217094e-14,373.374 C-2.84217094e-14,377.517 3.357,380.874 7.5,380.874 C25.88,380.874 46.797,373.631 68.941,365.963 C94.316,357.177 123.077,347.218 151.696,347.218 C176.236,347.218 196.099,355.344 210.734,371.37 C212.155,372.926 214.165,373.812 216.272,373.812 L248.726,373.813 C250.833,373.813 252.843,372.926 254.264,371.371 C268.899,355.344 288.762,347.218 313.303,347.218 C341.922,347.218 370.683,357.177 396.058,365.963 C418.203,373.631 439.12,380.874 457.499,380.874 C461.642,380.874 464.999,377.517 464.999,373.374 C464.999,369.231 461.643,365.874 457.5,365.874 Z" id="Path"></path>
        </g>
    </g>
</svg>