<?xml version="1.0"?>
<svg xmlns="http://www.w3.org/2000/svg" id="Layer_1" data-name="Layer 1" viewBox="0 0 512 512" width="512" height="512"><title>Radio Ads</title><path d="M86,458.944H426a26.029,26.029,0,0,0,26-26V209.055a26.03,26.03,0,0,0-26-26H156.444V166.884a6,6,0,0,0-4.009-5.655L284.1,90.135a21.8,21.8,0,1,0-5.712-10.553l-150.575,81.3H108.222a6,6,0,0,0-6,6v16.171H86a26.03,26.03,0,0,0-26,26V432.944A26.029,26.029,0,0,0,86,458.944ZM299.712,65.056a9.834,9.834,0,1,1-9.833,9.833A9.844,9.844,0,0,1,299.712,65.056ZM114.222,172.884h30.222v10.171H114.222ZM72,209.055a14.015,14.015,0,0,1,14-14H426a14.015,14.015,0,0,1,14,14V432.944a14.015,14.015,0,0,1-14,14H86a14.015,14.015,0,0,1-14-14Z"/><path d="M108.222,289.5H403.778a6,6,0,0,0,6-6V230.719a6,6,0,0,0-6-6H108.222a6,6,0,0,0-6,6V283.5A6,6,0,0,0,108.222,289.5Zm6-52.778h11.222v26.722a6,6,0,0,0,12,0V236.719h19.271V251.83a6,6,0,0,0,12,0V236.719h19.271v26.722a6,6,0,0,0,12,0V236.719h19.271V251.83a6,6,0,1,0,12,0V236.719h19.271v26.722a6,6,0,1,0,12,0V236.719H281.8V251.83a6,6,0,1,0,12,0V236.719h19.27v26.722a6,6,0,0,0,12,0V236.719H344.34V251.83a6,6,0,0,0,12,0V236.719h19.271v26.722a6,6,0,0,0,12,0V236.719h10.167V277.5H114.222Z"/><path d="M103.7,382.615a58.531,58.531,0,0,0,9.946,21.712,5.98,5.98,0,0,0,.753.993,58.684,58.684,0,0,0,93.194,0,6.041,6.041,0,0,0,.757-1,58.545,58.545,0,0,0,9.945-21.712,6.069,6.069,0,0,0,.185-.8,58.4,58.4,0,0,0,.474-21.988,5.879,5.879,0,0,0-.157-.876,58.426,58.426,0,0,0-8.764-21.749,5.966,5.966,0,0,0-.741-1.088,58.7,58.7,0,0,0-96.591,0,6.054,6.054,0,0,0-.739,1.085,58.433,58.433,0,0,0-8.766,21.752,6.006,6.006,0,0,0-.156.874,58.412,58.412,0,0,0,.473,21.986A5.99,5.99,0,0,0,103.7,382.615ZM120.611,346h80.778a46.548,46.548,0,0,1,3.857,8.407H116.754A46.548,46.548,0,0,1,120.611,346Zm87.049,20.407c.07,1.042.118,2.089.118,3.148a46.828,46.828,0,0,1-.3,5.259H114.526a46.828,46.828,0,0,1-.3-5.259c0-1.059.048-2.106.118-3.148Zm-7.581,28.815H121.921a46.706,46.706,0,0,1-4.385-8.408h86.928A46.706,46.706,0,0,1,200.079,395.222Zm-66.776,12H188.7a46.654,46.654,0,0,1-55.394,0ZM191.346,334H130.654a46.638,46.638,0,0,1,60.692,0Z"/><path d="M387.944,310.777a21.834,21.834,0,1,0,21.834,21.834A21.859,21.859,0,0,0,387.944,310.777Zm0,31.667a9.834,9.834,0,1,1,9.834-9.833A9.844,9.844,0,0,1,387.944,342.444Z"/><path d="M387.944,384.667A21.833,21.833,0,1,0,409.778,406.5,21.858,21.858,0,0,0,387.944,384.667Zm0,31.666a9.833,9.833,0,1,1,9.834-9.833A9.844,9.844,0,0,1,387.944,416.333Z"/><path d="M322.5,310.777a21.834,21.834,0,1,0,21.833,21.834A21.858,21.858,0,0,0,322.5,310.777Zm0,31.667a9.834,9.834,0,1,1,9.833-9.833A9.844,9.844,0,0,1,322.5,342.444Z"/><path d="M322.5,384.667A21.833,21.833,0,1,0,344.333,406.5,21.857,21.857,0,0,0,322.5,384.667Zm0,31.666a9.833,9.833,0,1,1,9.833-9.833A9.844,9.844,0,0,1,322.5,416.333Z"/></svg>
