<?xml version="1.0" encoding="UTF-8"?>
<svg width="490px" height="490px" viewBox="0 0 490 490" version="1.1" xmlns="http://www.w3.org/2000/svg" xmlns:xlink="http://www.w3.org/1999/xlink">
    <!-- Generator: Sketch 53.2 (72643) - https://sketchapp.com -->
    <title>Untitled</title>
    <desc>Created with Sketch.</desc>
    <g id="Page-1" stroke="none" stroke-width="1" fill="none" fill-rule="evenodd">
        <g id="website" fill="#7BB1CF" fill-rule="nonzero">
            <path d="M245,490 C380.31,490 490,380.311 490,245 C490,109.69 380.31,0 245,0 C109.69,0 0,109.69 0,245 C0,380.311 109.69,490 245,490 Z M245,30.625 C363.206,30.625 459.375,126.794 459.375,245 C459.375,363.207 363.206,459.375 245,459.375 C126.794,459.375 30.625,363.207 30.625,245 C30.625,126.794 126.794,30.625 245,30.625 Z" id="Shape"></path>
            <polygon id="Path" points="128.297 222.899 146.077 289.622 165.188 289.622 186.871 200.378 168.732 200.378 155.034 262.72 139.378 200.378 117.949 200.378 101.635 261.673 88.177 200.378 69.724 200.378 91.033 289.622 110.577 289.622"></polygon>
            <polygon id="Path" points="228.262 289.622 245.982 222.899 263.762 289.622 282.873 289.622 304.556 200.378 286.417 200.378 272.719 262.72 257.063 200.378 235.634 200.378 219.32 261.673 205.862 200.378 187.409 200.378 208.718 289.622"></polygon>
            <polygon id="Path" points="345.947 289.622 363.667 222.899 381.447 289.622 400.558 289.622 422.241 200.378 404.102 200.378 390.404 262.72 374.748 200.378 353.319 200.378 337.005 261.673 323.547 200.378 305.094 200.378 326.403 289.622"></polygon>
        </g>
    </g>
</svg>