<?xml version="1.0" encoding="utf-8"?>
<!-- Generator: Adobe Illustrator 16.0.0, SVG Export Plug-In . SVG Version: 6.00 Build 0)  -->
<!DOCTYPE svg PUBLIC "-//W3C//DTD SVG 1.1//EN" "http://www.w3.org/Graphics/SVG/1.1/DTD/svg11.dtd">
<svg version="1.1" xmlns="http://www.w3.org/2000/svg" xmlns:xlink="http://www.w3.org/1999/xlink" x="0px" y="0px" width="250px"
	 height="250px" viewBox="0 0 250 250" enable-background="new 0 0 250 250" xml:space="preserve">
<g id="Layer_1">
</g>
<g id="Layer_2">
	<g>
		<path d="M23.037,134.963v-20.312c0-1.603,0.575-2.973,1.725-4.111c1.149-1.138,2.514-1.707,4.093-1.707h5.818
			c1.579,0,2.938,0.575,4.076,1.725c1.138,1.149,1.707,2.514,1.707,4.093v20.312h-5.783v-11.602h-5.818v11.602H23.037z
			 M28.854,120.435h5.818v-5.783c0-0.812-0.285-1.503-0.854-2.073c-0.569-0.569-1.26-0.854-2.073-0.854
			c-0.79,0-1.469,0.285-2.038,0.854c-0.569,0.569-0.854,1.26-0.854,2.073V120.435z"/>
		<path d="M46.274,134.963v-26.129h1.359l16.061,14.528v-14.528h2.926v26.129h-1.324L49.2,120.435v14.528H46.274z"/>
		<path d="M75.329,134.963v-26.129h5.783v26.129H75.329z"/>
		<path d="M89.822,134.963v-26.129h1.358l12.403,12.368l12.367-12.368h2.927v26.129h-5.818v-15.957l-10.173,10.173l-10.138-10.173
			v15.957H89.822z"/>
		<path d="M124.661,134.963v-20.312c0-1.603,0.575-2.973,1.724-4.111c1.15-1.138,2.514-1.707,4.094-1.707h5.818
			c1.578,0,2.938,0.575,4.076,1.725c1.137,1.149,1.707,2.514,1.707,4.093v20.312h-5.783v-11.602h-5.818v11.602H124.661z
			 M130.479,120.435h5.818v-5.783c0-0.812-0.285-1.503-0.854-2.073c-0.57-0.569-1.26-0.854-2.072-0.854
			c-0.791,0-1.471,0.285-2.039,0.854c-0.568,0.569-0.854,1.26-0.854,2.073V120.435z"/>
		<path d="M150.824,134.963v-23.238h-5.818v-2.892h17.42v2.892h-5.818v23.238H150.824z"/>
		<path d="M168.244,134.963v-26.129h5.783v26.129H168.244z"/>
		<path d="M188.555,108.833h5.816c1.58,0,2.939,0.575,4.076,1.725c1.139,1.149,1.707,2.514,1.707,4.093v14.493
			c0,1.58-0.568,2.943-1.707,4.094c-1.137,1.149-2.496,1.725-4.076,1.725h-5.816c-1.58,0-2.945-0.569-4.094-1.707
			c-1.15-1.139-1.725-2.509-1.725-4.111v-14.493c0-1.603,0.574-2.973,1.725-4.111C185.609,109.403,186.975,108.833,188.555,108.833z
			 M188.555,114.651v14.493c0,0.789,0.283,1.475,0.854,2.055c0.568,0.582,1.248,0.871,2.037,0.871c0.812,0,1.504-0.289,2.072-0.871
			c0.57-0.58,0.854-1.266,0.854-2.055v-14.493c0-0.812-0.283-1.503-0.854-2.073c-0.568-0.569-1.26-0.854-2.072-0.854
			c-0.789,0-1.469,0.285-2.037,0.854C188.838,113.148,188.555,113.839,188.555,114.651z"/>
		<path d="M205.973,134.963v-26.129h1.359l16.061,14.528v-14.528h2.926v26.129h-1.324L208.9,120.435v14.528H205.973z"/>
	</g>
	<line fill="none" stroke="#000000" stroke-width="3" stroke-miterlimit="10" x1="20.145" y1="99.229" x2="228.45" y2="99.229"/>
	<line fill="none" stroke="#000000" stroke-width="3" stroke-miterlimit="10" x1="20.145" y1="143.865" x2="228.45" y2="143.865"/>
</g>
</svg>
