<?xml version="1.0" encoding="iso-8859-1"?>
<!-- Generator: Adobe Illustrator 18.0.0, SVG Export Plug-In . SVG Version: 6.00 Build 0)  -->
<!DOCTYPE svg PUBLIC "-//W3C//DTD SVG 1.1//EN" "http://www.w3.org/Graphics/SVG/1.1/DTD/svg11.dtd">
<svg version="1.1" id="Capa_1" xmlns="http://www.w3.org/2000/svg" xmlns:xlink="http://www.w3.org/1999/xlink" x="0px" y="0px"
	 viewBox="0 0 447.987 447.987" style="enable-background:new 0 0 447.987 447.987;" xml:space="preserve">
<g>
	<path d="M446.426,10.464c-1.781-3.55-4.845-6.169-8.628-7.376c-3.784-1.206-7.799-0.846-11.306,1.018
		c-3.508,1.863-6.055,4.988-7.173,8.798l-17.157,58.479l-9.12-2.909c-2.898-0.922-5.988,0.675-6.912,3.569l-7.097,22.248
		c-0.443,1.39-0.316,2.898,0.354,4.195c0.669,1.296,1.825,2.273,3.216,2.717l1.99,0.635l-6.446,20.207
		c-17.526-25.676-40.72-47.264-67.675-62.842c-31.31-18.096-67.079-27.66-103.442-27.66C92.873,31.54,0,124.413,0,238.57
		c0,55.303,21.534,107.293,60.635,146.394c39.102,39.101,91.092,60.635,146.395,60.635c114.156,0,207.029-92.873,207.029-207.029
		c0-21.398-3.26-42.477-9.673-62.69l19.609-61.476l1.992,0.635c0.545,0.174,1.108,0.26,1.671,0.26c0.87,0,1.736-0.207,2.523-0.613
		c1.296-0.669,2.273-1.826,2.717-3.216l7.096-22.248c0.923-2.894-0.675-5.988-3.568-6.911l-9.12-2.909l19.873-57.613
		C448.473,18.036,448.206,14.014,446.426,10.464z M351.548,222.423c-0.2,0.464-0.377,0.937-0.53,1.418
		c-1.267,3.968-0.911,8.19,0.999,11.891c1.91,3.7,5.147,6.435,9.115,7.701c1.569,0.501,3.16,0.739,4.727,0.739
		c6.604,0,12.752-4.234,14.866-10.856c0.152-0.481,0.282-0.969,0.387-1.462c4.297-2.564,7.523-6.596,9.072-11.45l8.048-25.23
		c3.202,14.173,4.827,28.704,4.827,43.396c0,15.626-1.849,30.827-5.32,45.407l-81.775-21.912c1.632-7.577,2.5-15.435,2.5-23.494
		c0-8.058-0.867-15.916-2.5-23.493l35.547-9.529l-0.729,2.286C349.233,212.689,349.53,217.845,351.548,222.423z M132.25,321.127
		c11.599,10.516,25.418,18.621,40.658,23.534l-21.909,81.766c-29.755-8.891-56.565-24.665-78.57-45.479L132.25,321.127z
		 M106.587,238.571c0-55.382,45.057-100.438,100.438-100.438s100.438,45.057,100.438,100.438s-45.057,100.438-100.438,100.438
		S106.587,293.953,106.587,238.571z M11,238.57c0-15.626,1.849-30.827,5.32-45.407l81.768,21.91
		c-1.633,7.579-2.501,15.438-2.501,23.498c0,8.059,0.868,15.918,2.5,23.496l-81.768,21.91C12.849,269.397,11,254.196,11,238.57z
		 M100.938,204.448L19.172,182.54c8.891-29.755,24.665-56.565,45.479-78.57l59.822,59.822
		C113.957,175.39,105.851,189.209,100.938,204.448z M132.251,156.014L72.429,96.192c22.005-20.814,48.815-36.588,78.57-45.479
		l21.91,81.768C157.669,137.394,143.85,145.499,132.251,156.014z M281.805,321.123l59.825,59.825
		c-22.005,20.814-48.816,36.588-78.571,45.479l-21.91-81.768C256.388,339.745,270.207,331.639,281.805,321.123z M289.583,313.345
		c10.515-11.599,18.62-25.417,23.532-40.656l81.771,21.911c-8.891,29.755-24.665,56.565-45.479,78.57L289.583,313.345z
		 M355.483,193.096l-42.368,11.357c-4.913-15.239-13.018-29.058-23.533-40.657l59.878-59.878
		c9.157,9.681,17.33,20.295,24.368,31.668L355.483,193.096z M341.674,96.147l-59.87,59.871
		c-11.598-10.516-25.417-18.621-40.655-23.535l21.912-81.775c14.594,4.341,28.674,10.368,41.907,18.016
		C318.256,76.405,330.567,85.642,341.674,96.147z M252.433,47.868l-21.909,81.766c-7.579-1.633-15.438-2.501-23.499-2.501
		c-8.058,0-15.916,0.867-23.492,2.5L161.622,47.86c14.579-3.471,29.781-5.32,45.407-5.32
		C222.386,42.54,237.627,44.353,252.433,47.868z M19.172,294.6l81.764-21.909c4.913,15.24,13.019,29.059,23.535,40.658
		L64.651,373.17C43.838,351.165,28.063,324.355,19.172,294.6z M161.622,429.279l21.91-81.77c7.577,1.632,15.435,2.5,23.493,2.5
		c8.06,0,15.92-0.868,23.499-2.501l21.911,81.772c-14.579,3.471-29.78,5.32-45.406,5.32
		C191.403,434.599,176.202,432.75,161.622,429.279z M379.703,217.061c-0.893,2.8-2.985,5.017-5.74,6.082
		c-2.177,0.842-3.586,2.966-3.514,5.299c0.017,0.538-0.054,1.055-0.205,1.533c-0.771,2.411-3.359,3.749-5.77,2.979
		c-1.168-0.373-2.121-1.177-2.684-2.267c-0.563-1.089-0.667-2.333-0.294-3.504c0.153-0.479,0.395-0.939,0.72-1.368
		c1.409-1.86,1.49-4.407,0.203-6.354c-1.63-2.464-2.052-5.483-1.158-8.283l33.811-105.999l18.442,5.883L379.703,217.061z
		 M424.089,102.888l-32.904-10.495l3.754-11.768l32.903,10.495L424.089,102.888z M436.779,18.203l-19.957,57.856l-4.178-1.333
		l17.229-58.726c0.277-0.945,0.909-1.719,1.778-2.181c0.871-0.462,1.868-0.551,2.802-0.252c0.938,0.299,1.697,0.948,2.139,1.828
		C437.034,16.275,437.101,17.272,436.779,18.203z"/>
	<path d="M293.026,288.224c0.983-1.702,0.983-3.798,0-5.5l-81.238-140.709c-0.982-1.702-2.798-2.75-4.763-2.75
		s-3.78,1.048-4.763,2.75l-81.238,140.709c-0.983,1.702-0.983,3.798,0,5.5c0.982,1.702,2.798,2.75,4.763,2.75h162.477
		C290.229,290.974,292.044,289.926,293.026,288.224z M135.313,279.974l71.712-124.209l71.712,124.209H135.313z"/>
</g>
<g>
</g>
<g>
</g>
<g>
</g>
<g>
</g>
<g>
</g>
<g>
</g>
<g>
</g>
<g>
</g>
<g>
</g>
<g>
</g>
<g>
</g>
<g>
</g>
<g>
</g>
<g>
</g>
<g>
</g>
</svg>
