<?xml version="1.0" encoding="utf-8"?>
<!-- Generator: Adobe Illustrator 16.0.4, SVG Export Plug-In . SVG Version: 6.00 Build 0)  -->
<!DOCTYPE svg PUBLIC "-//W3C//DTD SVG 1.1//EN" "http://www.w3.org/Graphics/SVG/1.1/DTD/svg11.dtd">
<svg version="1.1" id="Layer_1" xmlns="http://www.w3.org/2000/svg" xmlns:xlink="http://www.w3.org/1999/xlink" x="0px" y="0px"
	 width="308.984px" height="379.481px" viewBox="299.599 74.101 308.984 379.481"
	 style="enable-background:new 299.599 74.101 308.984 379.481;" xml:space="preserve">
<pattern  x="0.5" y="560.5" width="6.619" height="6.619" patternUnits="userSpaceOnUse" id="SVGID_2_" viewBox="0.772 -7.392 6.619 6.619" style="overflow:visible;">
	<g>
		<polygon style="fill:none;" points="0.772,-0.772 7.392,-0.772 7.392,-7.392 0.772,-7.392 		"/>
		<g>
			<polygon style="fill:none;" points="0.772,-0.772 7.392,-0.772 7.392,-7.392 0.772,-7.392 			"/>
			<path style="fill:#656668;" d="M4.744-0.772c0-0.441-0.331-0.772-0.662-0.772S3.31-1.214,3.31-0.772S3.641,0,4.082,0
				S4.744-0.441,4.744-0.772z"/>
			<path style="fill:#656668;" d="M8.054-2.428c0-0.441-0.331-0.771-0.772-0.771s-0.662,0.33-0.662,0.771S6.95-1.655,7.392-1.655
				S8.054-2.096,8.054-2.428z"/>
			<path style="fill:#656668;" d="M4.744-4.082c0-0.441-0.331-0.772-0.662-0.772S3.31-4.523,3.31-4.082s0.331,0.771,0.772,0.771
				S4.744-3.751,4.744-4.082z"/>
			<path style="fill:#656668;" d="M1.434-2.428c0-0.441-0.331-0.771-0.772-0.771C0.221-3.199,0-2.869,0-2.428
				s0.331,0.772,0.772,0.772C1.213-1.655,1.434-2.096,1.434-2.428z"/>
			<path style="fill:#656668;" d="M8.054-5.736c0-0.441-0.331-0.773-0.772-0.773S6.619-6.178,6.619-5.736
				c0,0.44,0.331,0.771,0.772,0.771S8.054-5.406,8.054-5.736z"/>
			<path style="fill:#656668;" d="M4.744-7.392c0-0.441-0.331-0.772-0.662-0.772S3.31-7.833,3.31-7.392
				c0,0.44,0.331,0.772,0.772,0.772S4.744-7.061,4.744-7.392z"/>
			<path style="fill:#656668;" d="M1.434-5.736c0-0.441-0.331-0.773-0.772-0.773C0.221-6.51,0-6.178,0-5.736
				c0,0.44,0.331,0.771,0.772,0.771C1.213-4.965,1.434-5.406,1.434-5.736z"/>
		</g>
	</g>
</pattern>
<g id="ALL">
	<rect x="237.117" y="-508.804" style="fill:#FFFFFF;" width="1377.871" height="1014.079"/>
	<g>
		<path style="fill:#FFFFFF;stroke:#656668;stroke-width:1.8028;stroke-miterlimit:10;" d="M382.845,385.008
			c0,0-5.94,34.362,0,44.152c10.097,16.979,65.734,15.381,78.01,0c5.743-6.992,0-27.372,0-36.362"/>
		<path style="fill:#FFFFFF;stroke:#656668;stroke-width:1.8028;stroke-miterlimit:10;" d="M404.625,171.045l-26.731,3.996
			c0,0-5.938,20.776-37.619,33.562v44.752v59.933c0,50.744,40.79,83.51,91.079,83.51c50.292,0,91.08-32.766,91.08-83.51v-63.13
			C522.63,250.157,427.988,220.79,404.625,171.045z"/>
		
			<ellipse style="fill:none;stroke:#656668;stroke-width:1.8028;stroke-miterlimit:10;" cx="381.459" cy="270.334" rx="26.73" ry="26.97"/>
		
			<line style="fill:none;stroke:#656668;stroke-width:1.8028;stroke-linecap:round;stroke-miterlimit:10;" x1="360.273" y1="227.583" x2="395.714" y2="227.583"/>
		<path style="fill:none;stroke:#656668;stroke-width:1.8028;stroke-linecap:round;stroke-miterlimit:10;" d="M421.851,265.74
			l-1.387,54.339c-0.199,4.194,3.366,7.792,7.524,7.792c0,0,10.295,1.599,16.832,0"/>
		
			<ellipse style="fill:none;stroke:#656668;stroke-width:1.8028;stroke-miterlimit:10;" cx="481.645" cy="270.334" rx="26.73" ry="26.97"/>
		<ellipse style="fill:#656668;" cx="481.645" cy="270.335" rx="5.149" ry="5.195"/>
		<path style="fill:none;stroke:#656668;stroke-width:1.8028;stroke-miterlimit:10;" d="M408.189,270.335
			c15.641-7.393,31.084-7.393,46.726,0"/>
		<path style="fill:none;stroke:#656668;stroke-width:1.8028;stroke-linecap:round;stroke-miterlimit:10;" d="M408.189,357.239
			c15.641,7.39,31.084,7.39,46.726,0"/>
		<polygon style="fill:#656668;" points="382.25,428.158 409.772,394.796 383.833,385.607 380.864,400.789 380.271,417.771 		"/>
		<g>
			
				<line style="fill:none;stroke:#FFB8AC;stroke-width:1.8028;stroke-linecap:round;stroke-miterlimit:10;" x1="374.133" y1="310.289" x2="379.279" y2="317.881"/>
			
				<line style="fill:none;stroke:#FFB8AC;stroke-width:1.8028;stroke-linecap:round;stroke-miterlimit:10;" x1="364.035" y1="310.289" x2="369.38" y2="317.881"/>
			
				<line style="fill:none;stroke:#FFB8AC;stroke-width:1.8028;stroke-linecap:round;stroke-miterlimit:10;" x1="496.693" y1="310.289" x2="502.039" y2="317.881"/>
			
				<line style="fill:none;stroke:#FFB8AC;stroke-width:1.8028;stroke-linecap:round;stroke-miterlimit:10;" x1="486.794" y1="310.289" x2="491.941" y2="317.881"/>
		</g>
		<path style="fill:#FFFFFF;stroke:#656668;stroke-width:1.8028;stroke-miterlimit:10;" d="M339.284,254.553
			c0,0-19.404-1.799-17.622,23.175c1.782,24.973,17.622,32.364,17.622,32.364"/>
		<path style="fill:#F3F4F4;stroke:#656668;stroke-width:1.8028;stroke-miterlimit:10;" d="M327.009,258.949
			c0,0-20.196-4.596-10.693-31.366c0,0,3.959-18.382-5.146-35.761c-9.109-17.382,8.117-25.972,8.117-25.972
			s8.117-5.995,11.286-21.176c2.773-13.585,24.157-17.781,35.245-13.786c4.158,1.397,7.721-2.996,8.117-6.392
			c1.188-7.592,6.535-18.98,21.582-28.77c12.87-8.59,28.116-12.785,43.56-10.988c10.295,1.199,21.383,5.195,27.522,15.183
			c9.702,15.984,31.086,12.387,42.174,9.191c7.327-2.198,15.246-1.999,22.373,1c12.277,4.994,26.73,17.58,24.75,48.746
			c0,0.996,0,2.197,0,3.195c0.793,6.792-2.177,27.57,18.611,36.561c16.436,7.191,19.999,35.36,19.999,35.36
			s4.752,16.182-9.108,40.354c-8.315,14.386-8.91,32.364-0.594,46.749c0.99,1.798,2.179,3.595,3.563,5.593
			c17.425,24.571,4.158,52.94,4.158,52.94s-13.464,31.167-46.53,29.768c0,0-15.443-1.398-21.185,9.99
			c-3.169,6.192-7.722,11.586-14.059,14.781c-11.88,5.796-30.69,9.593-47.124-9.388l-2.575-31.366c0,0,58.213-12.584,61.777-79.511
			v-63.729c0,0-106.325-38.557-118.009-79.112l-26.729,3.996c0,0-10.098,24.374-37.62,33.562v45.95
			C340.474,254.553,334.135,252.754,327.009,258.949z"/>
		<pattern  id="SVGID_1_" xlink:href="#SVGID_2_" patternTransform="matrix(1.1032 0 0 -1.1032 1572.3242 -17895.3359)">
		</pattern>
		<path style="fill:url(#SVGID_1_);stroke:#656668;stroke-width:1.8028;stroke-miterlimit:10;" d="M327.009,258.949
			c0,0-20.196-4.596-10.693-31.366c0,0,3.959-18.382-5.146-35.761c-9.109-17.382,8.117-25.972,8.117-25.972
			s8.117-5.995,11.286-21.176c2.773-13.585,24.157-17.781,35.245-13.786c4.158,1.397,7.721-2.996,8.117-6.392
			c1.188-7.592,6.535-18.98,21.582-28.77c12.87-8.59,28.116-12.785,43.56-10.988c10.295,1.199,21.383,5.195,27.522,15.183
			c9.702,15.984,31.086,12.387,42.174,9.191c7.327-2.198,15.246-1.999,22.373,1c12.277,4.994,26.73,17.58,24.75,48.746
			c0,0.996,0,2.197,0,3.195c0.793,6.792-2.177,27.57,18.611,36.561c16.436,7.191,19.999,35.36,19.999,35.36
			s4.752,16.182-9.108,40.354c-8.315,14.386-8.91,32.364-0.594,46.749c0.99,1.798,2.179,3.595,3.563,5.593
			c17.425,24.571,4.158,52.94,4.158,52.94s-13.464,31.167-46.53,29.768c0,0-15.443-1.398-21.185,9.99
			c-3.169,6.192-7.722,11.586-14.059,14.781c-11.88,5.796-30.69,9.593-47.124-9.388l-2.575-31.366c0,0,58.213-12.584,61.777-79.511
			v-63.729c-16.039-6.992-102.168-36.36-118.009-79.112l-26.729,3.996c0,0-10.098,24.374-37.62,33.562v45.95
			C340.474,254.553,334.135,252.754,327.009,258.949z"/>
		<ellipse style="fill:#656668;" cx="381.459" cy="270.335" rx="5.147" ry="5.195"/>
	</g>
</g>
</svg>
