<?xml version="1.0" encoding="utf-8"?>
<!-- Generator: Adobe Illustrator 18.0.0, SVG Export Plug-In . SVG Version: 6.00 Build 0)  -->
<!DOCTYPE svg PUBLIC "-//W3C//DTD SVG 1.1//EN" "http://www.w3.org/Graphics/SVG/1.1/DTD/svg11.dtd">
<svg version="1.1" id="Layer_1" xmlns="http://www.w3.org/2000/svg" xmlns:xlink="http://www.w3.org/1999/xlink" x="0px" y="0px"
	 viewBox="0 0 595.3 595.3" enable-background="new 0 0 595.3 595.3" xml:space="preserve">
<pattern  width="10" height="10" patternUnits="userSpaceOnUse" id="New_Pattern_2" viewBox="2.7 -13.5 10 10" overflow="visible">
	<g>
		<polygon fill="none" points="2.7,-13.5 12.7,-13.5 12.7,-3.5 2.7,-3.5 		"/>
		<g opacity="0.7">
			<path fill="#FFE800" d="M8.3-13.5c0,0.4-0.3,0.7-0.7,0.7c-0.4,0-0.7-0.3-0.7-0.7s0.3-0.7,0.7-0.7C8-14.2,8.3-13.9,8.3-13.5z"/>
			<g>
				<defs>
					<path id="SVGID_1_" d="M7.7-12.3c-0.6,0-1.2-0.5-1.2-1.2s0.5-1.2,1.2-1.2s1.2,0.5,1.2,1.2S8.3-12.3,7.7-12.3z M7.7-13.7
						c-0.1,0-0.2,0.1-0.2,0.2c0,0.2,0.3,0.2,0.3,0C7.8-13.6,7.8-13.7,7.7-13.7z"/>
				</defs>
				<use xlink:href="#SVGID_1_"  overflow="visible" fill="#FFE800"/>
				<clipPath id="SVGID_2_">
					<use xlink:href="#SVGID_1_"  overflow="visible"/>
				</clipPath>
				<g clip-path="url(#SVGID_2_)">
					<defs>
						<rect id="SVGID_3_" x="6.7" y="-13.5" width="6" height="6"/>
					</defs>
					<use xlink:href="#SVGID_3_"  overflow="visible" fill="#FFE800"/>
					<clipPath id="SVGID_4_">
						<use xlink:href="#SVGID_3_"  overflow="visible"/>
					</clipPath>
					<path clip-path="url(#SVGID_4_)" fill="#FFE800" d="M10.3-13.5c0,0.4-0.3,0.7-0.7,0.7S9-13.1,9-13.5s0.3-0.7,0.7-0.7
						S10.3-13.9,10.3-13.5z"/>
					<path clip-path="url(#SVGID_4_)" fill="#FFE800" d="M13.3-12c0,0.4-0.3,0.7-0.7,0.7S12-11.6,12-12s0.3-0.7,0.7-0.7
						S13.3-12.4,13.3-12z"/>
					<path clip-path="url(#SVGID_4_)" fill="#FFE800" d="M10.3-10.5c0,0.4-0.3,0.7-0.7,0.7S9-10.1,9-10.5s0.3-0.7,0.7-0.7
						S10.3-10.9,10.3-10.5z"/>
					<path clip-path="url(#SVGID_4_)" fill="#FFE800" d="M7.3-12c0,0.4-0.3,0.7-0.7,0.7S6-11.6,6-12s0.3-0.7,0.7-0.7
						S7.3-12.4,7.3-12z"/>
					<path clip-path="url(#SVGID_4_)" fill="#FFE800" d="M13.3-9c0,0.4-0.3,0.7-0.7,0.7S12-8.6,12-9s0.3-0.7,0.7-0.7
						S13.3-9.4,13.3-9z"/>
					<path clip-path="url(#SVGID_4_)" fill="#FFE800" d="M10.3-7.5c0,0.4-0.3,0.7-0.7,0.7S9-7.1,9-7.5s0.3-0.7,0.7-0.7
						S10.3-7.9,10.3-7.5z"/>
					<path clip-path="url(#SVGID_4_)" fill="#FFE800" d="M7.3-9c0,0.4-0.3,0.7-0.7,0.7S6-8.6,6-9s0.3-0.7,0.7-0.7S7.3-9.4,7.3-9z"/>
				</g>
				<g clip-path="url(#SVGID_2_)">
					<defs>
						<rect id="SVGID_5_" x="0.7" y="-13.5" width="6" height="6"/>
					</defs>
					<use xlink:href="#SVGID_5_"  overflow="visible" fill="#FFE800"/>
					<clipPath id="SVGID_6_">
						<use xlink:href="#SVGID_5_"  overflow="visible"/>
					</clipPath>
					<path clip-path="url(#SVGID_6_)" fill="#FFE800" d="M4.3-13.5c0,0.4-0.3,0.7-0.7,0.7S3-13.1,3-13.5s0.3-0.7,0.7-0.7
						S4.3-13.9,4.3-13.5z"/>
					<path clip-path="url(#SVGID_6_)" fill="#FFE800" d="M7.3-12c0,0.4-0.3,0.7-0.7,0.7S6-11.6,6-12s0.3-0.7,0.7-0.7
						S7.3-12.4,7.3-12z"/>
					<path clip-path="url(#SVGID_6_)" fill="#FFE800" d="M4.3-10.5c0,0.4-0.3,0.7-0.7,0.7S3-10.1,3-10.5s0.3-0.7,0.7-0.7
						S4.3-10.9,4.3-10.5z"/>
					<path clip-path="url(#SVGID_6_)" fill="#FFE800" d="M7.3-9c0,0.4-0.3,0.7-0.7,0.7S6-8.6,6-9s0.3-0.7,0.7-0.7S7.3-9.4,7.3-9z"/>
					<path clip-path="url(#SVGID_6_)" fill="#FFE800" d="M4.3-7.5c0,0.4-0.3,0.7-0.7,0.7S3-7.1,3-7.5s0.3-0.7,0.7-0.7
						S4.3-7.9,4.3-7.5z"/>
				</g>
				<g clip-path="url(#SVGID_2_)">
					<defs>
						<rect id="SVGID_7_" x="6.7" y="-13.5" width="6" height="6"/>
					</defs>
					<use xlink:href="#SVGID_7_"  overflow="visible" fill="#FFE800"/>
					<clipPath id="SVGID_8_">
						<use xlink:href="#SVGID_7_"  overflow="visible"/>
					</clipPath>
					<path clip-path="url(#SVGID_8_)" fill="#FFE800" d="M10.3-13.5c0,0.4-0.3,0.7-0.7,0.7S9-13.1,9-13.5s0.3-0.7,0.7-0.7
						S10.3-13.9,10.3-13.5z"/>
					<path clip-path="url(#SVGID_8_)" fill="#FFE800" d="M13.3-12c0,0.4-0.3,0.7-0.7,0.7S12-11.6,12-12s0.3-0.7,0.7-0.7
						S13.3-12.4,13.3-12z"/>
					<path clip-path="url(#SVGID_8_)" fill="#FFE800" d="M10.3-10.5c0,0.4-0.3,0.7-0.7,0.7S9-10.1,9-10.5s0.3-0.7,0.7-0.7
						S10.3-10.9,10.3-10.5z"/>
					<path clip-path="url(#SVGID_8_)" fill="#FFE800" d="M7.3-12c0,0.4-0.3,0.7-0.7,0.7S6-11.6,6-12s0.3-0.7,0.7-0.7
						S7.3-12.4,7.3-12z"/>
					<path clip-path="url(#SVGID_8_)" fill="#FFE800" d="M13.3-9c0,0.4-0.3,0.7-0.7,0.7S12-8.6,12-9s0.3-0.7,0.7-0.7
						S13.3-9.4,13.3-9z"/>
					<path clip-path="url(#SVGID_8_)" fill="#FFE800" d="M10.3-7.5c0,0.4-0.3,0.7-0.7,0.7S9-7.1,9-7.5s0.3-0.7,0.7-0.7
						S10.3-7.9,10.3-7.5z"/>
					<path clip-path="url(#SVGID_8_)" fill="#FFE800" d="M7.3-9c0,0.4-0.3,0.7-0.7,0.7S6-8.6,6-9s0.3-0.7,0.7-0.7S7.3-9.4,7.3-9z"/>
				</g>
			</g>
		</g>
		<g opacity="0.7">
			<path fill="#FFE800" d="M13.3-11c0,0.4-0.3,0.7-0.7,0.7S12-10.6,12-11s0.3-0.7,0.7-0.7S13.3-11.4,13.3-11z"/>
			<g>
				<defs>
					<path id="SVGID_9_" d="M12.7-9.8c-0.6,0-1.2-0.5-1.2-1.2s0.5-1.2,1.2-1.2s1.2,0.5,1.2,1.2S13.3-9.8,12.7-9.8z M12.7-11.2
						c-0.1,0-0.2,0.1-0.2,0.2c0,0.2,0.3,0.2,0.3,0C12.8-11.1,12.8-11.2,12.7-11.2z"/>
				</defs>
				<use xlink:href="#SVGID_9_"  overflow="visible" fill="#FFE800"/>
				<clipPath id="SVGID_10_">
					<use xlink:href="#SVGID_9_"  overflow="visible"/>
				</clipPath>
				<g clip-path="url(#SVGID_10_)">
					<defs>
						<rect id="SVGID_11_" x="11.7" y="-17" width="6" height="6"/>
					</defs>
					<use xlink:href="#SVGID_11_"  overflow="visible" fill="#FFE800"/>
					<clipPath id="SVGID_12_">
						<use xlink:href="#SVGID_11_"  overflow="visible"/>
					</clipPath>
					<path clip-path="url(#SVGID_12_)" fill="#FFE800" d="M12.3-12.5c0,0.4-0.3,0.7-0.7,0.7S11-12.1,11-12.5s0.3-0.7,0.7-0.7
						S12.3-12.9,12.3-12.5z"/>
				</g>
				<g clip-path="url(#SVGID_10_)">
					<defs>
						<rect id="SVGID_13_" x="11.7" y="-11" width="6" height="6"/>
					</defs>
					<use xlink:href="#SVGID_13_"  overflow="visible" fill="#FFE800"/>
					<clipPath id="SVGID_14_">
						<use xlink:href="#SVGID_13_"  overflow="visible"/>
					</clipPath>
					<path clip-path="url(#SVGID_14_)" fill="#FFE800" d="M12.3-9.5c0,0.4-0.3,0.7-0.7,0.7S11-9.1,11-9.5s0.3-0.7,0.7-0.7
						S12.3-9.9,12.3-9.5z"/>
					<path clip-path="url(#SVGID_14_)" fill="#FFE800" d="M12.3-6.5c0,0.4-0.3,0.7-0.7,0.7S11-6.1,11-6.5s0.3-0.7,0.7-0.7
						S12.3-6.9,12.3-6.5z"/>
				</g>
				<g clip-path="url(#SVGID_10_)">
					<defs>
						<rect id="SVGID_15_" x="5.7" y="-17" width="6" height="6"/>
					</defs>
					<use xlink:href="#SVGID_15_"  overflow="visible" fill="#FFE800"/>
					<clipPath id="SVGID_16_">
						<use xlink:href="#SVGID_15_"  overflow="visible"/>
					</clipPath>
					<path clip-path="url(#SVGID_16_)" fill="#FFE800" d="M9.3-14c0,0.4-0.3,0.7-0.7,0.7S8-13.6,8-14s0.3-0.7,0.7-0.7
						S9.3-14.4,9.3-14z"/>
					<path clip-path="url(#SVGID_16_)" fill="#FFE800" d="M12.3-12.5c0,0.4-0.3,0.7-0.7,0.7S11-12.1,11-12.5s0.3-0.7,0.7-0.7
						S12.3-12.9,12.3-12.5z"/>
					<path clip-path="url(#SVGID_16_)" fill="#FFE800" d="M9.3-11c0,0.4-0.3,0.7-0.7,0.7S8-10.6,8-11s0.3-0.7,0.7-0.7
						S9.3-11.4,9.3-11z"/>
					<path clip-path="url(#SVGID_16_)" fill="#FFE800" d="M6.3-12.5c0,0.4-0.3,0.7-0.7,0.7S5-12.1,5-12.5s0.3-0.7,0.7-0.7
						S6.3-12.9,6.3-12.5z"/>
				</g>
				<g clip-path="url(#SVGID_10_)">
					<defs>
						<rect id="SVGID_17_" x="5.7" y="-11" width="6" height="6"/>
					</defs>
					<use xlink:href="#SVGID_17_"  overflow="visible" fill="#FFE800"/>
					<clipPath id="SVGID_18_">
						<use xlink:href="#SVGID_17_"  overflow="visible"/>
					</clipPath>
					<path clip-path="url(#SVGID_18_)" fill="#FFE800" d="M9.3-11c0,0.4-0.3,0.7-0.7,0.7S8-10.6,8-11s0.3-0.7,0.7-0.7
						S9.3-11.4,9.3-11z"/>
					<path clip-path="url(#SVGID_18_)" fill="#FFE800" d="M12.3-9.5c0,0.4-0.3,0.7-0.7,0.7S11-9.1,11-9.5s0.3-0.7,0.7-0.7
						S12.3-9.9,12.3-9.5z"/>
					<path clip-path="url(#SVGID_18_)" fill="#FFE800" d="M9.3-8c0,0.4-0.3,0.7-0.7,0.7S8-7.6,8-8s0.3-0.7,0.7-0.7S9.3-8.4,9.3-8z"
						/>
					<path clip-path="url(#SVGID_18_)" fill="#FFE800" d="M6.3-9.5c0,0.4-0.3,0.7-0.7,0.7S5-9.1,5-9.5s0.3-0.7,0.7-0.7
						S6.3-9.9,6.3-9.5z"/>
					<path clip-path="url(#SVGID_18_)" fill="#FFE800" d="M12.3-6.5c0,0.4-0.3,0.7-0.7,0.7S11-6.1,11-6.5s0.3-0.7,0.7-0.7
						S12.3-6.9,12.3-6.5z"/>
					<path clip-path="url(#SVGID_18_)" fill="#FFE800" d="M9.3-5c0,0.4-0.3,0.7-0.7,0.7S8-4.6,8-5s0.3-0.7,0.7-0.7S9.3-5.4,9.3-5z"
						/>
					<path clip-path="url(#SVGID_18_)" fill="#FFE800" d="M6.3-6.5c0,0.4-0.3,0.7-0.7,0.7S5-6.1,5-6.5s0.3-0.7,0.7-0.7
						S6.3-6.9,6.3-6.5z"/>
				</g>
				<g clip-path="url(#SVGID_10_)">
					<defs>
						<rect id="SVGID_19_" x="11.7" y="-17" width="6" height="6"/>
					</defs>
					<use xlink:href="#SVGID_19_"  overflow="visible" fill="#FFE800"/>
					<clipPath id="SVGID_20_">
						<use xlink:href="#SVGID_19_"  overflow="visible"/>
					</clipPath>
					<path clip-path="url(#SVGID_20_)" fill="#FFE800" d="M12.3-12.5c0,0.4-0.3,0.7-0.7,0.7S11-12.1,11-12.5s0.3-0.7,0.7-0.7
						S12.3-12.9,12.3-12.5z"/>
				</g>
				<g clip-path="url(#SVGID_10_)">
					<defs>
						<rect id="SVGID_21_" x="11.7" y="-11" width="6" height="6"/>
					</defs>
					<use xlink:href="#SVGID_21_"  overflow="visible" fill="#FFE800"/>
					<clipPath id="SVGID_22_">
						<use xlink:href="#SVGID_21_"  overflow="visible"/>
					</clipPath>
					<path clip-path="url(#SVGID_22_)" fill="#FFE800" d="M12.3-9.5c0,0.4-0.3,0.7-0.7,0.7S11-9.1,11-9.5s0.3-0.7,0.7-0.7
						S12.3-9.9,12.3-9.5z"/>
					<path clip-path="url(#SVGID_22_)" fill="#FFE800" d="M12.3-6.5c0,0.4-0.3,0.7-0.7,0.7S11-6.1,11-6.5s0.3-0.7,0.7-0.7
						S12.3-6.9,12.3-6.5z"/>
				</g>
			</g>
		</g>
		<g opacity="0.7">
			<path fill="#FFE800" d="M8.3-8.5c0,0.4-0.3,0.7-0.7,0.7C7.3-7.8,7-8.1,7-8.5s0.3-0.7,0.7-0.7C8-9.2,8.3-8.9,8.3-8.5z"/>
			<g>
				<defs>
					<path id="SVGID_23_" d="M7.7-7.3C7-7.3,6.5-7.9,6.5-8.5S7-9.7,7.7-9.7s1.2,0.5,1.2,1.2S8.3-7.3,7.7-7.3z M7.7-8.7
						c-0.1,0-0.2,0.1-0.2,0.2c0,0.2,0.3,0.2,0.3,0C7.8-8.6,7.8-8.7,7.7-8.7z"/>
				</defs>
				<use xlink:href="#SVGID_23_"  overflow="visible" fill="#FFE800"/>
				<clipPath id="SVGID_24_">
					<use xlink:href="#SVGID_23_"  overflow="visible"/>
				</clipPath>
				<g clip-path="url(#SVGID_24_)">
					<defs>
						<rect id="SVGID_25_" x="6.7" y="-14.5" width="6" height="6"/>
					</defs>
					<use xlink:href="#SVGID_25_"  overflow="visible" fill="#FFE800"/>
					<clipPath id="SVGID_26_">
						<use xlink:href="#SVGID_25_"  overflow="visible"/>
					</clipPath>
					<path clip-path="url(#SVGID_26_)" fill="#FFE800" d="M10.3-14.5c0,0.4-0.3,0.7-0.7,0.7S9-14.1,9-14.5s0.3-0.7,0.7-0.7
						S10.3-14.9,10.3-14.5z"/>
					<path clip-path="url(#SVGID_26_)" fill="#FFE800" d="M13.3-13c0,0.4-0.3,0.7-0.7,0.7S12-12.6,12-13s0.3-0.7,0.7-0.7
						S13.3-13.4,13.3-13z"/>
					<path clip-path="url(#SVGID_26_)" fill="#FFE800" d="M10.3-11.5c0,0.4-0.3,0.7-0.7,0.7S9-11.1,9-11.5s0.3-0.7,0.7-0.7
						S10.3-11.9,10.3-11.5z"/>
					<path clip-path="url(#SVGID_26_)" fill="#FFE800" d="M7.3-13c0,0.4-0.3,0.7-0.7,0.7S6-12.6,6-13s0.3-0.7,0.7-0.7
						S7.3-13.4,7.3-13z"/>
					<path clip-path="url(#SVGID_26_)" fill="#FFE800" d="M13.3-10c0,0.4-0.3,0.7-0.7,0.7S12-9.6,12-10s0.3-0.7,0.7-0.7
						S13.3-10.4,13.3-10z"/>
					<path clip-path="url(#SVGID_26_)" fill="#FFE800" d="M10.3-8.5c0,0.4-0.3,0.7-0.7,0.7S9-8.1,9-8.5s0.3-0.7,0.7-0.7
						S10.3-8.9,10.3-8.5z"/>
					<path clip-path="url(#SVGID_26_)" fill="#FFE800" d="M7.3-10c0,0.4-0.3,0.7-0.7,0.7S6-9.6,6-10s0.3-0.7,0.7-0.7
						S7.3-10.4,7.3-10z"/>
				</g>
				<g clip-path="url(#SVGID_24_)">
					<defs>
						<rect id="SVGID_27_" x="6.7" y="-8.5" width="6" height="6"/>
					</defs>
					<use xlink:href="#SVGID_27_"  overflow="visible" fill="#FFE800"/>
					<clipPath id="SVGID_28_">
						<use xlink:href="#SVGID_27_"  overflow="visible"/>
					</clipPath>
					<path clip-path="url(#SVGID_28_)" fill="#FFE800" d="M10.3-8.5c0,0.4-0.3,0.7-0.7,0.7S9-8.1,9-8.5s0.3-0.7,0.7-0.7
						S10.3-8.9,10.3-8.5z"/>
					<path clip-path="url(#SVGID_28_)" fill="#FFE800" d="M13.3-7c0,0.4-0.3,0.7-0.7,0.7S12-6.6,12-7s0.3-0.7,0.7-0.7
						S13.3-7.4,13.3-7z"/>
					<path clip-path="url(#SVGID_28_)" fill="#FFE800" d="M10.3-5.5c0,0.4-0.3,0.7-0.7,0.7S9-5.1,9-5.5s0.3-0.7,0.7-0.7
						S10.3-5.9,10.3-5.5z"/>
					<path clip-path="url(#SVGID_28_)" fill="#FFE800" d="M7.3-7c0,0.4-0.3,0.7-0.7,0.7S6-6.6,6-7s0.3-0.7,0.7-0.7S7.3-7.4,7.3-7z"
						/>
					<path clip-path="url(#SVGID_28_)" fill="#FFE800" d="M13.3-4c0,0.4-0.3,0.7-0.7,0.7S12-3.6,12-4s0.3-0.7,0.7-0.7
						S13.3-4.4,13.3-4z"/>
					<path clip-path="url(#SVGID_28_)" fill="#FFE800" d="M10.3-2.5c0,0.4-0.3,0.7-0.7,0.7S9-2.1,9-2.5s0.3-0.7,0.7-0.7
						S10.3-2.9,10.3-2.5z"/>
					<path clip-path="url(#SVGID_28_)" fill="#FFE800" d="M7.3-4c0,0.4-0.3,0.7-0.7,0.7S6-3.6,6-4s0.3-0.7,0.7-0.7S7.3-4.4,7.3-4z"
						/>
				</g>
				<g clip-path="url(#SVGID_24_)">
					<defs>
						<rect id="SVGID_29_" x="0.7" y="-14.5" width="6" height="6"/>
					</defs>
					<use xlink:href="#SVGID_29_"  overflow="visible" fill="#FFE800"/>
					<clipPath id="SVGID_30_">
						<use xlink:href="#SVGID_29_"  overflow="visible"/>
					</clipPath>
					<path clip-path="url(#SVGID_30_)" fill="#FFE800" d="M4.3-14.5c0,0.4-0.3,0.7-0.7,0.7S3-14.1,3-14.5s0.3-0.7,0.7-0.7
						S4.3-14.9,4.3-14.5z"/>
					<path clip-path="url(#SVGID_30_)" fill="#FFE800" d="M7.3-13c0,0.4-0.3,0.7-0.7,0.7S6-12.6,6-13s0.3-0.7,0.7-0.7
						S7.3-13.4,7.3-13z"/>
					<path clip-path="url(#SVGID_30_)" fill="#FFE800" d="M4.3-11.5c0,0.4-0.3,0.7-0.7,0.7S3-11.1,3-11.5s0.3-0.7,0.7-0.7
						S4.3-11.9,4.3-11.5z"/>
					<path clip-path="url(#SVGID_30_)" fill="#FFE800" d="M1.3-13c0,0.4-0.3,0.7-0.7,0.7S0-12.6,0-13s0.3-0.7,0.7-0.7
						S1.3-13.4,1.3-13z"/>
					<path clip-path="url(#SVGID_30_)" fill="#FFE800" d="M7.3-10c0,0.4-0.3,0.7-0.7,0.7S6-9.6,6-10s0.3-0.7,0.7-0.7
						S7.3-10.4,7.3-10z"/>
					<path clip-path="url(#SVGID_30_)" fill="#FFE800" d="M4.3-8.5c0,0.4-0.3,0.7-0.7,0.7S3-8.1,3-8.5s0.3-0.7,0.7-0.7
						S4.3-8.9,4.3-8.5z"/>
					<path clip-path="url(#SVGID_30_)" fill="#FFE800" d="M1.3-10c0,0.4-0.3,0.7-0.7,0.7S0-9.6,0-10s0.3-0.7,0.7-0.7
						S1.3-10.4,1.3-10z"/>
				</g>
				<g clip-path="url(#SVGID_24_)">
					<defs>
						<rect id="SVGID_31_" x="0.7" y="-8.5" width="6" height="6"/>
					</defs>
					<use xlink:href="#SVGID_31_"  overflow="visible" fill="#FFE800"/>
					<clipPath id="SVGID_32_">
						<use xlink:href="#SVGID_31_"  overflow="visible"/>
					</clipPath>
					<path clip-path="url(#SVGID_32_)" fill="#FFE800" d="M4.3-8.5c0,0.4-0.3,0.7-0.7,0.7S3-8.1,3-8.5s0.3-0.7,0.7-0.7
						S4.3-8.9,4.3-8.5z"/>
					<path clip-path="url(#SVGID_32_)" fill="#FFE800" d="M7.3-7c0,0.4-0.3,0.7-0.7,0.7S6-6.6,6-7s0.3-0.7,0.7-0.7S7.3-7.4,7.3-7z"
						/>
					<path clip-path="url(#SVGID_32_)" fill="#FFE800" d="M4.3-5.5c0,0.4-0.3,0.7-0.7,0.7S3-5.1,3-5.5s0.3-0.7,0.7-0.7
						S4.3-5.9,4.3-5.5z"/>
					<path clip-path="url(#SVGID_32_)" fill="#FFE800" d="M1.3-7c0,0.4-0.3,0.7-0.7,0.7S0-6.6,0-7s0.3-0.7,0.7-0.7S1.3-7.4,1.3-7z"
						/>
					<path clip-path="url(#SVGID_32_)" fill="#FFE800" d="M7.3-4c0,0.4-0.3,0.7-0.7,0.7S6-3.6,6-4s0.3-0.7,0.7-0.7S7.3-4.4,7.3-4z"
						/>
					<path clip-path="url(#SVGID_32_)" fill="#FFE800" d="M4.3-2.5c0,0.4-0.3,0.7-0.7,0.7S3-2.1,3-2.5s0.3-0.7,0.7-0.7
						S4.3-2.9,4.3-2.5z"/>
					<path clip-path="url(#SVGID_32_)" fill="#FFE800" d="M1.3-4c0,0.4-0.3,0.7-0.7,0.7S0-3.6,0-4s0.3-0.7,0.7-0.7S1.3-4.4,1.3-4z"
						/>
				</g>
				<g clip-path="url(#SVGID_24_)">
					<defs>
						<rect id="SVGID_33_" x="6.7" y="-14.5" width="6" height="6"/>
					</defs>
					<use xlink:href="#SVGID_33_"  overflow="visible" fill="#FFE800"/>
					<clipPath id="SVGID_34_">
						<use xlink:href="#SVGID_33_"  overflow="visible"/>
					</clipPath>
					<path clip-path="url(#SVGID_34_)" fill="#FFE800" d="M10.3-14.5c0,0.4-0.3,0.7-0.7,0.7S9-14.1,9-14.5s0.3-0.7,0.7-0.7
						S10.3-14.9,10.3-14.5z"/>
					<path clip-path="url(#SVGID_34_)" fill="#FFE800" d="M13.3-13c0,0.4-0.3,0.7-0.7,0.7S12-12.6,12-13s0.3-0.7,0.7-0.7
						S13.3-13.4,13.3-13z"/>
					<path clip-path="url(#SVGID_34_)" fill="#FFE800" d="M10.3-11.5c0,0.4-0.3,0.7-0.7,0.7S9-11.1,9-11.5s0.3-0.7,0.7-0.7
						S10.3-11.9,10.3-11.5z"/>
					<path clip-path="url(#SVGID_34_)" fill="#FFE800" d="M7.3-13c0,0.4-0.3,0.7-0.7,0.7S6-12.6,6-13s0.3-0.7,0.7-0.7
						S7.3-13.4,7.3-13z"/>
					<path clip-path="url(#SVGID_34_)" fill="#FFE800" d="M13.3-10c0,0.4-0.3,0.7-0.7,0.7S12-9.6,12-10s0.3-0.7,0.7-0.7
						S13.3-10.4,13.3-10z"/>
					<path clip-path="url(#SVGID_34_)" fill="#FFE800" d="M10.3-8.5c0,0.4-0.3,0.7-0.7,0.7S9-8.1,9-8.5s0.3-0.7,0.7-0.7
						S10.3-8.9,10.3-8.5z"/>
					<path clip-path="url(#SVGID_34_)" fill="#FFE800" d="M7.3-10c0,0.4-0.3,0.7-0.7,0.7S6-9.6,6-10s0.3-0.7,0.7-0.7
						S7.3-10.4,7.3-10z"/>
				</g>
				<g clip-path="url(#SVGID_24_)">
					<defs>
						<rect id="SVGID_35_" x="6.7" y="-8.5" width="6" height="6"/>
					</defs>
					<use xlink:href="#SVGID_35_"  overflow="visible" fill="#FFE800"/>
					<clipPath id="SVGID_36_">
						<use xlink:href="#SVGID_35_"  overflow="visible"/>
					</clipPath>
					<path clip-path="url(#SVGID_36_)" fill="#FFE800" d="M10.3-8.5c0,0.4-0.3,0.7-0.7,0.7S9-8.1,9-8.5s0.3-0.7,0.7-0.7
						S10.3-8.9,10.3-8.5z"/>
					<path clip-path="url(#SVGID_36_)" fill="#FFE800" d="M13.3-7c0,0.4-0.3,0.7-0.7,0.7S12-6.6,12-7s0.3-0.7,0.7-0.7
						S13.3-7.4,13.3-7z"/>
					<path clip-path="url(#SVGID_36_)" fill="#FFE800" d="M10.3-5.5c0,0.4-0.3,0.7-0.7,0.7S9-5.1,9-5.5s0.3-0.7,0.7-0.7
						S10.3-5.9,10.3-5.5z"/>
					<path clip-path="url(#SVGID_36_)" fill="#FFE800" d="M7.3-7c0,0.4-0.3,0.7-0.7,0.7S6-6.6,6-7s0.3-0.7,0.7-0.7S7.3-7.4,7.3-7z"
						/>
					<path clip-path="url(#SVGID_36_)" fill="#FFE800" d="M13.3-4c0,0.4-0.3,0.7-0.7,0.7S12-3.6,12-4s0.3-0.7,0.7-0.7
						S13.3-4.4,13.3-4z"/>
					<path clip-path="url(#SVGID_36_)" fill="#FFE800" d="M10.3-2.5c0,0.4-0.3,0.7-0.7,0.7S9-2.1,9-2.5s0.3-0.7,0.7-0.7
						S10.3-2.9,10.3-2.5z"/>
					<path clip-path="url(#SVGID_36_)" fill="#FFE800" d="M7.3-4c0,0.4-0.3,0.7-0.7,0.7S6-3.6,6-4s0.3-0.7,0.7-0.7S7.3-4.4,7.3-4z"
						/>
				</g>
			</g>
		</g>
		<g opacity="0.7">
			<path fill="#FFE800" d="M3.3-11c0,0.4-0.3,0.7-0.7,0.7S2-10.6,2-11s0.3-0.7,0.7-0.7S3.3-11.4,3.3-11z"/>
			<g>
				<defs>
					<path id="SVGID_37_" d="M2.7-9.8C2-9.8,1.5-10.4,1.5-11s0.5-1.2,1.2-1.2s1.2,0.5,1.2,1.2S3.3-9.8,2.7-9.8z M2.7-11.2
						c-0.1,0-0.2,0.1-0.2,0.2c0,0.2,0.3,0.2,0.3,0C2.8-11.1,2.8-11.2,2.7-11.2z"/>
				</defs>
				<use xlink:href="#SVGID_37_"  overflow="visible" fill="#FFE800"/>
				<clipPath id="SVGID_38_">
					<use xlink:href="#SVGID_37_"  overflow="visible"/>
				</clipPath>
				<g clip-path="url(#SVGID_38_)">
					<defs>
						<rect id="SVGID_39_" x="1.7" y="-17" width="6" height="6"/>
					</defs>
					<use xlink:href="#SVGID_39_"  overflow="visible" fill="#FFE800"/>
					<clipPath id="SVGID_40_">
						<use xlink:href="#SVGID_39_"  overflow="visible"/>
					</clipPath>
					<path clip-path="url(#SVGID_40_)" fill="#FFE800" d="M5.3-14c0,0.4-0.3,0.7-0.7,0.7S4-13.6,4-14s0.3-0.7,0.7-0.7
						S5.3-14.4,5.3-14z"/>
					<path clip-path="url(#SVGID_40_)" fill="#FFE800" d="M8.3-12.5c0,0.4-0.3,0.7-0.7,0.7S7-12.1,7-12.5s0.3-0.7,0.7-0.7
						S8.3-12.9,8.3-12.5z"/>
					<path clip-path="url(#SVGID_40_)" fill="#FFE800" d="M5.3-11c0,0.4-0.3,0.7-0.7,0.7S4-10.6,4-11s0.3-0.7,0.7-0.7
						S5.3-11.4,5.3-11z"/>
				</g>
				<g clip-path="url(#SVGID_38_)">
					<defs>
						<rect id="SVGID_41_" x="1.7" y="-11" width="6" height="6"/>
					</defs>
					<use xlink:href="#SVGID_41_"  overflow="visible" fill="#FFE800"/>
					<clipPath id="SVGID_42_">
						<use xlink:href="#SVGID_41_"  overflow="visible"/>
					</clipPath>
					<path clip-path="url(#SVGID_42_)" fill="#FFE800" d="M5.3-11c0,0.4-0.3,0.7-0.7,0.7S4-10.6,4-11s0.3-0.7,0.7-0.7
						S5.3-11.4,5.3-11z"/>
					<path clip-path="url(#SVGID_42_)" fill="#FFE800" d="M8.3-9.5c0,0.4-0.3,0.7-0.7,0.7S7-9.1,7-9.5s0.3-0.7,0.7-0.7
						S8.3-9.9,8.3-9.5z"/>
					<path clip-path="url(#SVGID_42_)" fill="#FFE800" d="M5.3-8c0,0.4-0.3,0.7-0.7,0.7S4-7.6,4-8s0.3-0.7,0.7-0.7S5.3-8.4,5.3-8z"
						/>
					<path clip-path="url(#SVGID_42_)" fill="#FFE800" d="M8.3-6.5c0,0.4-0.3,0.7-0.7,0.7S7-6.1,7-6.5s0.3-0.7,0.7-0.7
						S8.3-6.9,8.3-6.5z"/>
					<path clip-path="url(#SVGID_42_)" fill="#FFE800" d="M5.3-5c0,0.4-0.3,0.7-0.7,0.7S4-4.6,4-5s0.3-0.7,0.7-0.7S5.3-5.4,5.3-5z"
						/>
				</g>
				<g clip-path="url(#SVGID_38_)">
					<defs>
						<rect id="SVGID_43_" x="1.7" y="-17" width="6" height="6"/>
					</defs>
					<use xlink:href="#SVGID_43_"  overflow="visible" fill="#FFE800"/>
					<clipPath id="SVGID_44_">
						<use xlink:href="#SVGID_43_"  overflow="visible"/>
					</clipPath>
					<path clip-path="url(#SVGID_44_)" fill="#FFE800" d="M5.3-14c0,0.4-0.3,0.7-0.7,0.7S4-13.6,4-14s0.3-0.7,0.7-0.7
						S5.3-14.4,5.3-14z"/>
					<path clip-path="url(#SVGID_44_)" fill="#FFE800" d="M8.3-12.5c0,0.4-0.3,0.7-0.7,0.7S7-12.1,7-12.5s0.3-0.7,0.7-0.7
						S8.3-12.9,8.3-12.5z"/>
					<path clip-path="url(#SVGID_44_)" fill="#FFE800" d="M5.3-11c0,0.4-0.3,0.7-0.7,0.7S4-10.6,4-11s0.3-0.7,0.7-0.7
						S5.3-11.4,5.3-11z"/>
				</g>
				<g clip-path="url(#SVGID_38_)">
					<defs>
						<rect id="SVGID_45_" x="1.7" y="-11" width="6" height="6"/>
					</defs>
					<use xlink:href="#SVGID_45_"  overflow="visible" fill="#FFE800"/>
					<clipPath id="SVGID_46_">
						<use xlink:href="#SVGID_45_"  overflow="visible"/>
					</clipPath>
					<path clip-path="url(#SVGID_46_)" fill="#FFE800" d="M5.3-11c0,0.4-0.3,0.7-0.7,0.7S4-10.6,4-11s0.3-0.7,0.7-0.7
						S5.3-11.4,5.3-11z"/>
					<path clip-path="url(#SVGID_46_)" fill="#FFE800" d="M8.3-9.5c0,0.4-0.3,0.7-0.7,0.7S7-9.1,7-9.5s0.3-0.7,0.7-0.7
						S8.3-9.9,8.3-9.5z"/>
					<path clip-path="url(#SVGID_46_)" fill="#FFE800" d="M5.3-8c0,0.4-0.3,0.7-0.7,0.7S4-7.6,4-8s0.3-0.7,0.7-0.7S5.3-8.4,5.3-8z"
						/>
					<path clip-path="url(#SVGID_46_)" fill="#FFE800" d="M8.3-6.5c0,0.4-0.3,0.7-0.7,0.7S7-6.1,7-6.5s0.3-0.7,0.7-0.7
						S8.3-6.9,8.3-6.5z"/>
					<path clip-path="url(#SVGID_46_)" fill="#FFE800" d="M5.3-5c0,0.4-0.3,0.7-0.7,0.7S4-4.6,4-5s0.3-0.7,0.7-0.7S5.3-5.4,5.3-5z"
						/>
				</g>
			</g>
		</g>
		<g opacity="0.7">
			<path fill="#FFE800" d="M13.3-6c0,0.4-0.3,0.7-0.7,0.7S12-5.6,12-6c0-0.4,0.3-0.7,0.7-0.7S13.3-6.4,13.3-6z"/>
			<g>
				<defs>
					<path id="SVGID_47_" d="M12.7-4.8c-0.6,0-1.2-0.5-1.2-1.2s0.5-1.2,1.2-1.2s1.2,0.5,1.2,1.2S13.3-4.8,12.7-4.8z M12.7-6.2
						c-0.1,0-0.2,0.1-0.2,0.2c0,0.2,0.3,0.2,0.3,0C12.8-6.1,12.8-6.2,12.7-6.2z"/>
				</defs>
				<use xlink:href="#SVGID_47_"  overflow="visible" fill="#FFE800"/>
				<clipPath id="SVGID_48_">
					<use xlink:href="#SVGID_47_"  overflow="visible"/>
				</clipPath>
				<g clip-path="url(#SVGID_48_)">
					<defs>
						<rect id="SVGID_49_" x="11.7" y="-12" width="6" height="6"/>
					</defs>
					<use xlink:href="#SVGID_49_"  overflow="visible" fill="#FFE800"/>
					<clipPath id="SVGID_50_">
						<use xlink:href="#SVGID_49_"  overflow="visible"/>
					</clipPath>
					<path clip-path="url(#SVGID_50_)" fill="#FFE800" d="M12.3-10.5c0,0.4-0.3,0.7-0.7,0.7S11-10.1,11-10.5s0.3-0.7,0.7-0.7
						S12.3-10.9,12.3-10.5z"/>
					<path clip-path="url(#SVGID_50_)" fill="#FFE800" d="M12.3-7.5c0,0.4-0.3,0.7-0.7,0.7S11-7.1,11-7.5s0.3-0.7,0.7-0.7
						S12.3-7.9,12.3-7.5z"/>
				</g>
				<g clip-path="url(#SVGID_48_)">
					<defs>
						<rect id="SVGID_51_" x="11.7" y="-6" width="6" height="6"/>
					</defs>
					<use xlink:href="#SVGID_51_"  overflow="visible" fill="#FFE800"/>
					<clipPath id="SVGID_52_">
						<use xlink:href="#SVGID_51_"  overflow="visible"/>
					</clipPath>
					<path clip-path="url(#SVGID_52_)" fill="#FFE800" d="M12.3-4.5c0,0.4-0.3,0.7-0.7,0.7S11-4.1,11-4.5s0.3-0.7,0.7-0.7
						S12.3-4.9,12.3-4.5z"/>
				</g>
				<g clip-path="url(#SVGID_48_)">
					<defs>
						<rect id="SVGID_53_" x="5.7" y="-12" width="6" height="6"/>
					</defs>
					<use xlink:href="#SVGID_53_"  overflow="visible" fill="#FFE800"/>
					<clipPath id="SVGID_54_">
						<use xlink:href="#SVGID_53_"  overflow="visible"/>
					</clipPath>
					<path clip-path="url(#SVGID_54_)" fill="#FFE800" d="M9.3-12c0,0.4-0.3,0.7-0.7,0.7S8-11.6,8-12s0.3-0.7,0.7-0.7
						S9.3-12.4,9.3-12z"/>
					<path clip-path="url(#SVGID_54_)" fill="#FFE800" d="M12.3-10.5c0,0.4-0.3,0.7-0.7,0.7S11-10.1,11-10.5s0.3-0.7,0.7-0.7
						S12.3-10.9,12.3-10.5z"/>
					<path clip-path="url(#SVGID_54_)" fill="#FFE800" d="M9.3-9c0,0.4-0.3,0.7-0.7,0.7S8-8.6,8-9s0.3-0.7,0.7-0.7S9.3-9.4,9.3-9z"
						/>
					<path clip-path="url(#SVGID_54_)" fill="#FFE800" d="M6.3-10.5c0,0.4-0.3,0.7-0.7,0.7S5-10.1,5-10.5s0.3-0.7,0.7-0.7
						S6.3-10.9,6.3-10.5z"/>
					<path clip-path="url(#SVGID_54_)" fill="#FFE800" d="M12.3-7.5c0,0.4-0.3,0.7-0.7,0.7S11-7.1,11-7.5s0.3-0.7,0.7-0.7
						S12.3-7.9,12.3-7.5z"/>
					<path clip-path="url(#SVGID_54_)" fill="#FFE800" d="M9.3-6c0,0.4-0.3,0.7-0.7,0.7S8-5.6,8-6s0.3-0.7,0.7-0.7S9.3-6.4,9.3-6z"
						/>
					<path clip-path="url(#SVGID_54_)" fill="#FFE800" d="M6.3-7.5c0,0.4-0.3,0.7-0.7,0.7S5-7.1,5-7.5s0.3-0.7,0.7-0.7
						S6.3-7.9,6.3-7.5z"/>
				</g>
				<g clip-path="url(#SVGID_48_)">
					<defs>
						<rect id="SVGID_55_" x="5.7" y="-6" width="6" height="6"/>
					</defs>
					<use xlink:href="#SVGID_55_"  overflow="visible" fill="#FFE800"/>
					<clipPath id="SVGID_56_">
						<use xlink:href="#SVGID_55_"  overflow="visible"/>
					</clipPath>
					<path clip-path="url(#SVGID_56_)" fill="#FFE800" d="M9.3-6c0,0.4-0.3,0.7-0.7,0.7S8-5.6,8-6s0.3-0.7,0.7-0.7S9.3-6.4,9.3-6z"
						/>
					<path clip-path="url(#SVGID_56_)" fill="#FFE800" d="M12.3-4.5c0,0.4-0.3,0.7-0.7,0.7S11-4.1,11-4.5s0.3-0.7,0.7-0.7
						S12.3-4.9,12.3-4.5z"/>
					<path clip-path="url(#SVGID_56_)" fill="#FFE800" d="M9.3-3c0,0.4-0.3,0.7-0.7,0.7S8-2.6,8-3s0.3-0.7,0.7-0.7S9.3-3.4,9.3-3z"
						/>
					<path clip-path="url(#SVGID_56_)" fill="#FFE800" d="M6.3-4.5c0,0.4-0.3,0.7-0.7,0.7S5-4.1,5-4.5s0.3-0.7,0.7-0.7
						S6.3-4.9,6.3-4.5z"/>
				</g>
				<g clip-path="url(#SVGID_48_)">
					<defs>
						<rect id="SVGID_57_" x="11.7" y="-12" width="6" height="6"/>
					</defs>
					<use xlink:href="#SVGID_57_"  overflow="visible" fill="#FFE800"/>
					<clipPath id="SVGID_58_">
						<use xlink:href="#SVGID_57_"  overflow="visible"/>
					</clipPath>
					<path clip-path="url(#SVGID_58_)" fill="#FFE800" d="M12.3-10.5c0,0.4-0.3,0.7-0.7,0.7S11-10.1,11-10.5s0.3-0.7,0.7-0.7
						S12.3-10.9,12.3-10.5z"/>
					<path clip-path="url(#SVGID_58_)" fill="#FFE800" d="M12.3-7.5c0,0.4-0.3,0.7-0.7,0.7S11-7.1,11-7.5s0.3-0.7,0.7-0.7
						S12.3-7.9,12.3-7.5z"/>
				</g>
				<g clip-path="url(#SVGID_48_)">
					<defs>
						<rect id="SVGID_59_" x="11.7" y="-6" width="6" height="6"/>
					</defs>
					<use xlink:href="#SVGID_59_"  overflow="visible" fill="#FFE800"/>
					<clipPath id="SVGID_60_">
						<use xlink:href="#SVGID_59_"  overflow="visible"/>
					</clipPath>
					<path clip-path="url(#SVGID_60_)" fill="#FFE800" d="M12.3-4.5c0,0.4-0.3,0.7-0.7,0.7S11-4.1,11-4.5s0.3-0.7,0.7-0.7
						S12.3-4.9,12.3-4.5z"/>
				</g>
			</g>
		</g>
		<g opacity="0.7">
			<path fill="#FFE800" d="M8.3-3.5c0,0.4-0.3,0.7-0.7,0.7C7.3-2.8,7-3.1,7-3.5s0.3-0.7,0.7-0.7C8-4.2,8.3-3.9,8.3-3.5z"/>
			<g>
				<defs>
					<path id="SVGID_61_" d="M7.7-2.3C7-2.3,6.5-2.9,6.5-3.5S7-4.7,7.7-4.7s1.2,0.5,1.2,1.2S8.3-2.3,7.7-2.3z M7.7-3.7
						c-0.1,0-0.2,0.1-0.2,0.2c0,0.2,0.3,0.2,0.3,0C7.8-3.6,7.8-3.7,7.7-3.7z"/>
				</defs>
				<use xlink:href="#SVGID_61_"  overflow="visible" fill="#FFE800"/>
				<clipPath id="SVGID_62_">
					<use xlink:href="#SVGID_61_"  overflow="visible"/>
				</clipPath>
				<g clip-path="url(#SVGID_62_)">
					<defs>
						<rect id="SVGID_63_" x="6.7" y="-9.5" width="6" height="6"/>
					</defs>
					<use xlink:href="#SVGID_63_"  overflow="visible" fill="#FFE800"/>
					<clipPath id="SVGID_64_">
						<use xlink:href="#SVGID_63_"  overflow="visible"/>
					</clipPath>
					<path clip-path="url(#SVGID_64_)" fill="#FFE800" d="M10.3-9.5c0,0.4-0.3,0.7-0.7,0.7S9-9.1,9-9.5s0.3-0.7,0.7-0.7
						S10.3-9.9,10.3-9.5z"/>
					<path clip-path="url(#SVGID_64_)" fill="#FFE800" d="M13.3-8c0,0.4-0.3,0.7-0.7,0.7S12-7.6,12-8s0.3-0.7,0.7-0.7
						S13.3-8.4,13.3-8z"/>
					<path clip-path="url(#SVGID_64_)" fill="#FFE800" d="M10.3-6.5c0,0.4-0.3,0.7-0.7,0.7S9-6.1,9-6.5s0.3-0.7,0.7-0.7
						S10.3-6.9,10.3-6.5z"/>
					<path clip-path="url(#SVGID_64_)" fill="#FFE800" d="M7.3-8c0,0.4-0.3,0.7-0.7,0.7S6-7.6,6-8s0.3-0.7,0.7-0.7S7.3-8.4,7.3-8z"
						/>
					<path clip-path="url(#SVGID_64_)" fill="#FFE800" d="M13.3-5c0,0.4-0.3,0.7-0.7,0.7S12-4.6,12-5s0.3-0.7,0.7-0.7
						S13.3-5.4,13.3-5z"/>
					<path clip-path="url(#SVGID_64_)" fill="#FFE800" d="M10.3-3.5c0,0.4-0.3,0.7-0.7,0.7S9-3.1,9-3.5s0.3-0.7,0.7-0.7
						S10.3-3.9,10.3-3.5z"/>
					<path clip-path="url(#SVGID_64_)" fill="#FFE800" d="M7.3-5c0,0.4-0.3,0.7-0.7,0.7S6-4.6,6-5s0.3-0.7,0.7-0.7S7.3-5.4,7.3-5z"
						/>
				</g>
				<g clip-path="url(#SVGID_62_)">
					<defs>
						<rect id="SVGID_65_" x="0.7" y="-9.5" width="6" height="6"/>
					</defs>
					<use xlink:href="#SVGID_65_"  overflow="visible" fill="#FFE800"/>
					<clipPath id="SVGID_66_">
						<use xlink:href="#SVGID_65_"  overflow="visible"/>
					</clipPath>
					<path clip-path="url(#SVGID_66_)" fill="#FFE800" d="M4.3-9.5c0,0.4-0.3,0.7-0.7,0.7S3-9.1,3-9.5s0.3-0.7,0.7-0.7
						S4.3-9.9,4.3-9.5z"/>
					<path clip-path="url(#SVGID_66_)" fill="#FFE800" d="M7.3-8c0,0.4-0.3,0.7-0.7,0.7S6-7.6,6-8s0.3-0.7,0.7-0.7S7.3-8.4,7.3-8z"
						/>
					<path clip-path="url(#SVGID_66_)" fill="#FFE800" d="M4.3-6.5c0,0.4-0.3,0.7-0.7,0.7S3-6.1,3-6.5s0.3-0.7,0.7-0.7
						S4.3-6.9,4.3-6.5z"/>
					<path clip-path="url(#SVGID_66_)" fill="#FFE800" d="M7.3-5c0,0.4-0.3,0.7-0.7,0.7S6-4.6,6-5s0.3-0.7,0.7-0.7S7.3-5.4,7.3-5z"
						/>
					<path clip-path="url(#SVGID_66_)" fill="#FFE800" d="M4.3-3.5c0,0.4-0.3,0.7-0.7,0.7S3-3.1,3-3.5s0.3-0.7,0.7-0.7
						S4.3-3.9,4.3-3.5z"/>
				</g>
				<g clip-path="url(#SVGID_62_)">
					<defs>
						<rect id="SVGID_67_" x="6.7" y="-9.5" width="6" height="6"/>
					</defs>
					<use xlink:href="#SVGID_67_"  overflow="visible" fill="#FFE800"/>
					<clipPath id="SVGID_68_">
						<use xlink:href="#SVGID_67_"  overflow="visible"/>
					</clipPath>
					<path clip-path="url(#SVGID_68_)" fill="#FFE800" d="M10.3-9.5c0,0.4-0.3,0.7-0.7,0.7S9-9.1,9-9.5s0.3-0.7,0.7-0.7
						S10.3-9.9,10.3-9.5z"/>
					<path clip-path="url(#SVGID_68_)" fill="#FFE800" d="M13.3-8c0,0.4-0.3,0.7-0.7,0.7S12-7.6,12-8s0.3-0.7,0.7-0.7
						S13.3-8.4,13.3-8z"/>
					<path clip-path="url(#SVGID_68_)" fill="#FFE800" d="M10.3-6.5c0,0.4-0.3,0.7-0.7,0.7S9-6.1,9-6.5s0.3-0.7,0.7-0.7
						S10.3-6.9,10.3-6.5z"/>
					<path clip-path="url(#SVGID_68_)" fill="#FFE800" d="M7.3-8c0,0.4-0.3,0.7-0.7,0.7S6-7.6,6-8s0.3-0.7,0.7-0.7S7.3-8.4,7.3-8z"
						/>
					<path clip-path="url(#SVGID_68_)" fill="#FFE800" d="M13.3-5c0,0.4-0.3,0.7-0.7,0.7S12-4.6,12-5s0.3-0.7,0.7-0.7
						S13.3-5.4,13.3-5z"/>
					<path clip-path="url(#SVGID_68_)" fill="#FFE800" d="M10.3-3.5c0,0.4-0.3,0.7-0.7,0.7S9-3.1,9-3.5s0.3-0.7,0.7-0.7
						S10.3-3.9,10.3-3.5z"/>
					<path clip-path="url(#SVGID_68_)" fill="#FFE800" d="M7.3-5c0,0.4-0.3,0.7-0.7,0.7S6-4.6,6-5s0.3-0.7,0.7-0.7S7.3-5.4,7.3-5z"
						/>
				</g>
			</g>
		</g>
		<g opacity="0.7">
			<path fill="#FFE800" d="M3.3-6c0,0.4-0.3,0.7-0.7,0.7S2-5.6,2-6c0-0.4,0.3-0.7,0.7-0.7S3.3-6.4,3.3-6z"/>
			<g>
				<defs>
					<path id="SVGID_69_" d="M2.7-4.8C2-4.8,1.5-5.4,1.5-6S2-7.2,2.7-7.2S3.8-6.6,3.8-6S3.3-4.8,2.7-4.8z M2.7-6.2
						C2.6-6.2,2.5-6.1,2.5-6c0,0.2,0.3,0.2,0.3,0C2.8-6.1,2.8-6.2,2.7-6.2z"/>
				</defs>
				<use xlink:href="#SVGID_69_"  overflow="visible" fill="#FFE800"/>
				<clipPath id="SVGID_70_">
					<use xlink:href="#SVGID_69_"  overflow="visible"/>
				</clipPath>
				<g clip-path="url(#SVGID_70_)">
					<defs>
						<rect id="SVGID_71_" x="1.7" y="-12" width="6" height="6"/>
					</defs>
					<use xlink:href="#SVGID_71_"  overflow="visible" fill="#FFE800"/>
					<clipPath id="SVGID_72_">
						<use xlink:href="#SVGID_71_"  overflow="visible"/>
					</clipPath>
					<path clip-path="url(#SVGID_72_)" fill="#FFE800" d="M5.3-12c0,0.4-0.3,0.7-0.7,0.7S4-11.6,4-12s0.3-0.7,0.7-0.7
						S5.3-12.4,5.3-12z"/>
					<path clip-path="url(#SVGID_72_)" fill="#FFE800" d="M8.3-10.5c0,0.4-0.3,0.7-0.7,0.7S7-10.1,7-10.5s0.3-0.7,0.7-0.7
						S8.3-10.9,8.3-10.5z"/>
					<path clip-path="url(#SVGID_72_)" fill="#FFE800" d="M5.3-9c0,0.4-0.3,0.7-0.7,0.7S4-8.6,4-9s0.3-0.7,0.7-0.7S5.3-9.4,5.3-9z"
						/>
					<path clip-path="url(#SVGID_72_)" fill="#FFE800" d="M8.3-7.5c0,0.4-0.3,0.7-0.7,0.7S7-7.1,7-7.5s0.3-0.7,0.7-0.7
						S8.3-7.9,8.3-7.5z"/>
					<path clip-path="url(#SVGID_72_)" fill="#FFE800" d="M5.3-6c0,0.4-0.3,0.7-0.7,0.7S4-5.6,4-6s0.3-0.7,0.7-0.7S5.3-6.4,5.3-6z"
						/>
				</g>
				<g clip-path="url(#SVGID_70_)">
					<defs>
						<rect id="SVGID_73_" x="1.7" y="-6" width="6" height="6"/>
					</defs>
					<use xlink:href="#SVGID_73_"  overflow="visible" fill="#FFE800"/>
					<clipPath id="SVGID_74_">
						<use xlink:href="#SVGID_73_"  overflow="visible"/>
					</clipPath>
					<path clip-path="url(#SVGID_74_)" fill="#FFE800" d="M5.3-6c0,0.4-0.3,0.7-0.7,0.7S4-5.6,4-6s0.3-0.7,0.7-0.7S5.3-6.4,5.3-6z"
						/>
					<path clip-path="url(#SVGID_74_)" fill="#FFE800" d="M8.3-4.5c0,0.4-0.3,0.7-0.7,0.7S7-4.1,7-4.5s0.3-0.7,0.7-0.7
						S8.3-4.9,8.3-4.5z"/>
					<path clip-path="url(#SVGID_74_)" fill="#FFE800" d="M5.3-3c0,0.4-0.3,0.7-0.7,0.7S4-2.6,4-3s0.3-0.7,0.7-0.7S5.3-3.4,5.3-3z"
						/>
				</g>
				<g clip-path="url(#SVGID_70_)">
					<defs>
						<rect id="SVGID_75_" x="1.7" y="-12" width="6" height="6"/>
					</defs>
					<use xlink:href="#SVGID_75_"  overflow="visible" fill="#FFE800"/>
					<clipPath id="SVGID_76_">
						<use xlink:href="#SVGID_75_"  overflow="visible"/>
					</clipPath>
					<path clip-path="url(#SVGID_76_)" fill="#FFE800" d="M5.3-12c0,0.4-0.3,0.7-0.7,0.7S4-11.6,4-12s0.3-0.7,0.7-0.7
						S5.3-12.4,5.3-12z"/>
					<path clip-path="url(#SVGID_76_)" fill="#FFE800" d="M8.3-10.5c0,0.4-0.3,0.7-0.7,0.7S7-10.1,7-10.5s0.3-0.7,0.7-0.7
						S8.3-10.9,8.3-10.5z"/>
					<path clip-path="url(#SVGID_76_)" fill="#FFE800" d="M5.3-9c0,0.4-0.3,0.7-0.7,0.7S4-8.6,4-9s0.3-0.7,0.7-0.7S5.3-9.4,5.3-9z"
						/>
					<path clip-path="url(#SVGID_76_)" fill="#FFE800" d="M8.3-7.5c0,0.4-0.3,0.7-0.7,0.7S7-7.1,7-7.5s0.3-0.7,0.7-0.7
						S8.3-7.9,8.3-7.5z"/>
					<path clip-path="url(#SVGID_76_)" fill="#FFE800" d="M5.3-6c0,0.4-0.3,0.7-0.7,0.7S4-5.6,4-6s0.3-0.7,0.7-0.7S5.3-6.4,5.3-6z"
						/>
				</g>
				<g clip-path="url(#SVGID_70_)">
					<defs>
						<rect id="SVGID_77_" x="1.7" y="-6" width="6" height="6"/>
					</defs>
					<use xlink:href="#SVGID_77_"  overflow="visible" fill="#FFE800"/>
					<clipPath id="SVGID_78_">
						<use xlink:href="#SVGID_77_"  overflow="visible"/>
					</clipPath>
					<path clip-path="url(#SVGID_78_)" fill="#FFE800" d="M5.3-6c0,0.4-0.3,0.7-0.7,0.7S4-5.6,4-6s0.3-0.7,0.7-0.7S5.3-6.4,5.3-6z"
						/>
					<path clip-path="url(#SVGID_78_)" fill="#FFE800" d="M8.3-4.5c0,0.4-0.3,0.7-0.7,0.7S7-4.1,7-4.5s0.3-0.7,0.7-0.7
						S8.3-4.9,8.3-4.5z"/>
					<path clip-path="url(#SVGID_78_)" fill="#FFE800" d="M5.3-3c0,0.4-0.3,0.7-0.7,0.7S4-2.6,4-3s0.3-0.7,0.7-0.7S5.3-3.4,5.3-3z"
						/>
				</g>
			</g>
		</g>
	</g>
</pattern>
<circle opacity="0.54" fill="#FFE000" cx="298" cy="297.5" r="247.4"/>
<g>
	<path fill="#FFFFFF" stroke="#FFE000" stroke-width="2" stroke-miterlimit="10" d="M232.7,410.6c0,0-5.5,31.7,0,40.9
		c9.4,15.6,61.5,14.2,72.9,0c5.3-6.5,0-25.3,0-33.7"/>
	<path fill="#FFFFFF" stroke="#FFE000" stroke-width="2" stroke-miterlimit="10" d="M253,212.5l-24.9,3.7c0,0-5.5,19.3-35.1,31.1
		v41.4v55.5c0,47,38.1,77.3,85.1,77.3c47,0,85.1-30.3,85.1-77.3v-58.4C363.2,285.7,274.7,258.5,253,212.5z"/>
	<circle fill="none" stroke="#FFE000" stroke-width="2" stroke-miterlimit="10" cx="231.3" cy="304.4" r="25"/>
	
		<line fill="none" stroke="#FFE000" stroke-width="2" stroke-linecap="round" stroke-miterlimit="10" x1="211.6" y1="264.9" x2="244.7" y2="264.9"/>
	<path fill="none" stroke="#FFE000" stroke-width="2" stroke-linecap="round" stroke-miterlimit="10" d="M269.1,300.2l-1.3,50.3
		c-0.1,3.9,3.1,7.2,7,7.2c0,0,9.6,1.5,15.8,0"/>
	<circle fill="none" stroke="#FFE800" stroke-width="2" stroke-miterlimit="10" cx="324.9" cy="304.4" r="25"/>
	<circle fill="#FFE000" cx="324.9" cy="304.4" r="4.7"/>
	<path fill="none" stroke="#FFE800" stroke-width="2" stroke-miterlimit="10" d="M256.4,304.4c14.5-6.8,29-6.8,43.5,0"/>
	<path fill="none" stroke="#FFE000" stroke-width="2" stroke-linecap="round" stroke-miterlimit="10" d="M256.4,384.9
		c14.5,6.8,29,6.8,43.5,0"/>
	<polygon fill="#FFE000" points="232.2,450.4 257.8,419.5 233.6,411.1 230.9,425 230.3,440.7 	"/>
	
		<line fill="none" stroke="#FFE000" stroke-width="2" stroke-linecap="round" stroke-miterlimit="10" x1="224.4" y1="341.3" x2="229.4" y2="348.3"/>
	
		<line fill="none" stroke="#FFE000" stroke-width="2" stroke-linecap="round" stroke-miterlimit="10" x1="215.1" y1="341.3" x2="220" y2="348.3"/>
	
		<line fill="none" stroke="#FFE000" stroke-width="2" stroke-linecap="round" stroke-miterlimit="10" x1="339" y1="341.3" x2="343.9" y2="348.3"/>
	
		<line fill="none" stroke="#FFE000" stroke-width="2" stroke-linecap="round" stroke-miterlimit="10" x1="329.6" y1="341.3" x2="334.6" y2="348.3"/>
	<path fill="#FFFFFF" stroke="#FFE000" stroke-width="2" stroke-miterlimit="10" d="M191.9,289.8c0,0-18.1-1.7-16.5,21.5
		c1.6,23.2,16.5,30,16.5,30"/>
	<path fill="#FDF59A" stroke="#FFE800" stroke-width="2" stroke-miterlimit="10" d="M180.4,293.8c0,0-18.8-4.2-10-28.9
		c0,0,3.6-17-4.8-33.1s7.5-24.1,7.5-24.1s7.6-5.5,10.5-19.5c2.6-12.6,22.5-16.5,33-12.7c3.8,1.4,7.2-2.8,7.7-5.9
		c1.1-7,6.2-17.5,20.1-26.7c12-7.9,26.3-11.8,40.6-10.1c9.6,1.1,19.9,4.7,25.7,14.1c9,14.8,29.1,11.5,39.4,8.6c6.9-2,14.3-1.8,21,1
		c11.4,4.7,25,16.3,23.1,45.1c-0.1,1-0.1,1.9,0,2.9c0.7,6.3-1.9,25.5,17.3,33.8c15.3,6.6,18.6,32.7,18.6,32.7s4.3,15-8.5,37.3
		c-7.7,13.4-8.4,29.9-0.5,43.2c1,1.7,2.1,3.4,3.3,5.1c16.4,22.7,3.9,49.1,3.9,49.1s-12.5,28.8-43.4,27.5c0,0-14.4-1.3-19.8,9.3
		c-2.9,5.8-7.3,10.8-13.2,13.6c-11.1,5.3-28.6,8.9-44-8.6l-2.3-29c0,0,54.4-11.6,57.6-73.5l0-59c0,0-99.2-35.6-110.2-73.2l-24.9,3.7
		c0,0-9.5,22.5-35.1,31.1v42.5C193,289.8,187.1,288.1,180.4,293.8z"/>
	<pattern  id="SVGID_79_" xlink:href="#New_Pattern_2" patternTransform="matrix(3.9507 0 0 3.9507 23704.0625 23392.1191)">
	</pattern>
	<path fill="url(#SVGID_79_)" stroke="#FFE000" stroke-width="2" stroke-miterlimit="10" d="M180.4,293.8c0,0-18.8-4.2-10-28.9
		c0,0,3.6-17-4.8-33.1s7.5-24.1,7.5-24.1s7.6-5.5,10.5-19.5c2.6-12.6,22.5-16.5,33-12.7c3.8,1.4,7.2-2.8,7.7-5.9
		c1.1-7,6.2-17.5,20.1-26.7c12-7.9,26.3-11.8,40.6-10.1c9.6,1.1,19.9,4.7,25.7,14.1c9,14.8,29.1,11.5,39.4,8.6c6.9-2,14.3-1.8,21,1
		c11.4,4.7,25,16.3,23.1,45.1c-0.1,1-0.1,1.9,0,2.9c0.7,6.3-1.9,25.5,17.3,33.8c15.3,6.6,18.6,32.7,18.6,32.7s4.3,15-8.5,37.3
		c-7.7,13.4-8.4,29.9-0.5,43.2c1,1.7,2.1,3.4,3.3,5.1c16.4,22.7,3.9,49.1,3.9,49.1s-12.5,28.8-43.4,27.5c0,0-14.4-1.3-19.8,9.3
		c-2.9,5.8-7.3,10.8-13.2,13.6c-11.1,5.3-28.6,8.9-44-8.6l-2.3-29c0,0,54.4-11.6,57.6-73.5l0-59c-15-6.4-95.4-33.6-110.2-73.2
		l-24.9,3.7c0,0-9.5,22.5-35.1,31.1v42.5C193,289.8,187.1,288.1,180.4,293.8z"/>
	<circle fill="#FFE000" cx="231.3" cy="304.4" r="4.7"/>
</g>
</svg>
