<?xml version="1.0" encoding="utf-8"?>
<!-- Generator: Adobe Illustrator 16.0.4, SVG Export Plug-In . SVG Version: 6.00 Build 0)  -->
<!DOCTYPE svg PUBLIC "-//W3C//DTD SVG 1.1//EN" "http://www.w3.org/Graphics/SVG/1.1/DTD/svg11.dtd">
<svg version="1.1" id="Capa_1" xmlns="http://www.w3.org/2000/svg" xmlns:xlink="http://www.w3.org/1999/xlink" x="0px" y="0px"
	 width="960px" height="560px" viewBox="0 0 960 560" enable-background="new 0 0 960 560" xml:space="preserve">
<g>
	<path fill="#FEED90" d="M480.408,278.519c-0.128,0-0.274-0.006-0.408-0.012c-0.14,0.006-0.286,0.012-0.414,0.012
		c-34.749,0-65.368-8.797-83.464,7.816c-10.844,9.97-15.411,21.98-15.411,34.912c0,54.022,43.283,60.655,98.869,60.655h0.828
		c55.586,0,98.869-6.638,98.869-60.655c0-12.938-4.567-24.942-15.411-34.912C545.771,269.722,515.157,278.519,480.408,278.519z
		 M433.146,352.339c-10.575,0-19.15-11.876-19.15-26.523s8.575-26.519,19.15-26.519c10.576,0,19.163,11.871,19.163,26.519
		S443.723,352.339,433.146,352.339z M526.848,352.339c-10.582,0-19.163-11.876-19.163-26.523s8.581-26.519,19.163-26.519
		c10.57,0,19.15,11.871,19.15,26.519S537.424,352.339,526.848,352.339z M480,0C325.353,0,200,125.358,200,280s125.353,280,280,280
		c154.636,0,280-125.358,280-280S634.636,0,480,0z M505.538,394.923c-5.017,0-14.991,0.012-25.538,0.022
		c-10.553-0.011-20.533-0.022-25.544-0.022c-22.185,0-110.034-1.698-110.034-107.597c0-24.365,8.353-42.192,22.021-57.038
		c-2.182-5.384-2.292-35.962,9.345-65.234c0,0,26.693,2.928,67.083,30.643c8.464-2.339,22.797-3.506,37.129-3.506
		c14.32,0,28.653,1.161,37.129,3.506c40.385-27.714,67.072-30.643,67.072-30.643c11.637,29.271,11.532,59.85,9.351,65.234
		c13.673,14.846,22.026,32.679,22.026,57.038C615.578,393.225,527.723,394.923,505.538,394.923z"/>
</g>
</svg>
