<?xml version="1.0" encoding="utf-8"?>
<!-- Generator: Adobe Illustrator 16.0.4, SVG Export Plug-In . SVG Version: 6.00 Build 0)  -->
<!DOCTYPE svg PUBLIC "-//W3C//DTD SVG 1.1//EN" "http://www.w3.org/Graphics/SVG/1.1/DTD/svg11.dtd">
<svg version="1.1" id="Capa_1" xmlns="http://www.w3.org/2000/svg" xmlns:xlink="http://www.w3.org/1999/xlink" x="0px" y="0px"
	 width="45.532px" height="45.532px" viewBox="0 0 45.532 45.532" enable-background="new 0 0 45.532 45.532" xml:space="preserve">
<g>
	<path fill="#FEED90" d="M22.766,0.001C10.194,0.001,0,10.193,0,22.766c0,12.572,10.193,22.766,22.766,22.766
		c12.574,0,22.766-10.193,22.766-22.766C45.532,10.193,35.34,0.001,22.766,0.001z M22.766,6.808c4.16,0,7.531,3.372,7.531,7.53
		c0,4.159-3.371,7.53-7.531,7.53c-4.158,0-7.529-3.371-7.529-7.53C15.237,10.18,18.608,6.808,22.766,6.808z M22.761,39.579
		c-4.149,0-7.949-1.511-10.88-4.012c-0.714-0.609-1.126-1.502-1.126-2.439c0-4.217,3.413-7.592,7.631-7.592h8.762
		c4.22,0,7.619,3.375,7.619,7.592c0,0.938-0.41,1.83-1.125,2.438C30.711,38.068,26.911,39.579,22.761,39.579z"/>
</g>
</svg>
