<?xml version="1.0" encoding="UTF-8"?>
<svg width="172px" height="191px" viewBox="0 0 172 191" version="1.1" xmlns="http://www.w3.org/2000/svg" xmlns:xlink="http://www.w3.org/1999/xlink">
    <!-- Generator: Sketch 51.2 (57519) - http://www.bohemiancoding.com/sketch -->
    <title>🧠 Brain</title>
    <desc>Created with Sketch.</desc>
    <defs></defs>
    <g id="Page-1" stroke="none" stroke-width="1" fill="none" fill-rule="evenodd">
        <g id="Light-Theme" transform="translate(-747.000000, -428.000000)" fill="#59C7F1" fill-rule="nonzero">
            <g id="cards" transform="translate(41.000000, 314.000000)">
                <g id="card" transform="translate(640.000000, 0.000000)">
                    <g id="🧠-Brain" transform="translate(66.000000, 114.000000)">
                        <path d="M47.0327375,31.9077093 C48.1670676,32.3702612 49.3420781,32.9787182 50.5213427,33.7634678 C56.5823781,37.7968252 59.8723572,44.9675746 59.1302954,55.2503077 C58.9456159,57.8094065 56.7213441,59.7342537 54.1622453,59.5495743 C51.6031465,59.3648948 49.6782992,57.140623 49.8629787,54.5815242 C50.3703264,47.5512195 48.5688895,43.6248564 45.3738726,41.4987106 C43.9385828,40.5435872 42.478363,40.098601 41.5374776,39.9715885 C41.1065407,40.070993 40.4438953,40.2625463 39.6134291,40.5779917 C37.5948916,41.3447158 35.560825,42.5150612 33.6553904,44.1702523 C28.5913965,48.5691847 25.2741182,55.567052 24.6565981,66.0639846 L24.5267822,68.2706654 L22.7326136,69.5618862 C22.3970718,69.8033677 21.7099435,70.3518298 20.789928,71.1824983 C19.2181789,72.6016076 17.6402837,74.2575337 16.1728319,76.1201751 C8.70680619,85.5968262 6.95345205,95.8905018 14.0820342,107.285947 C16.2004529,104.323705 18.8281724,101.526511 21.9226171,98.9028645 C26.9381896,94.6503765 31.9286968,91.8909575 35.4029324,90.4822528 C37.7806623,89.5181502 40.4897528,90.6641216 41.4538554,93.0418515 C42.417958,95.4195814 41.2719866,98.1286719 38.8942567,99.0927745 C38.2938801,99.3362103 37.1231983,99.8848734 35.5773488,100.739625 C32.9664092,102.183302 30.3530309,103.936625 27.9313667,105.98985 C24.1088025,109.230837 21.1910474,112.732507 19.3426944,116.539689 C19.2360802,117.360695 18.9110146,118.15552 18.3747394,118.829365 C14.9557131,128.291154 17.9253151,139.575574 29.5813996,153.308497 C29.8926587,151.103674 30.446634,148.975464 31.2040085,146.941173 C31.9296429,144.992136 32.6849578,143.547351 33.2626914,142.665585 C34.6688352,140.51946 37.5485182,139.919587 39.6946432,141.325731 C41.8407683,142.731875 42.4406416,145.611558 41.0344977,147.757683 C40.8168179,148.089916 40.3790126,148.927361 39.911527,150.183017 C38.3341827,154.419728 38.0279282,159.23369 39.7691675,164.418535 C39.8443325,164.5972 39.9078694,164.779688 39.9597481,164.96483 C40.0582713,165.237076 40.1624584,165.510316 40.2724199,165.784518 C46.8890699,182.284725 63.4104453,185.797117 81.4892304,176.617582 L81.4892304,12.177863 C80.9228845,11.9157164 80.2762868,11.6371266 79.5594859,11.3563425 C74.04413,9.1958767 68.4194536,8.5791005 63.376372,10.3123016 C56.4700826,12.685848 50.8108544,19.3947286 47.0327375,31.9077093 Z M31.4824841,168.82092 C10.7573192,148.839416 4.60341679,131.196691 9.30528393,116.634421 C-3.55063514,100.082571 -1.8403498,83.970371 8.87434151,70.3701779 C11.2259419,67.3852838 13.5817819,65.0475965 15.5412972,63.4006213 C16.6412607,51.5466866 20.9592409,42.8915177 27.5621426,37.1557844 C31.0258169,34.1469993 34.5181932,32.3531673 37.5098887,31.4123716 C42.0575288,14.8512183 49.922422,5.11130699 60.3564785,1.52534121 C67.8125116,-1.03714058 75.5656114,-0.186971253 82.9483777,2.7049934 C84.169265,3.18323732 85.2502635,3.6652348 86.1736426,4.11841168 C87.1366944,3.66060985 88.2688859,3.17164873 89.5495476,2.68631336 C96.6265834,0.00431251523 104.005789,-0.913672144 111.115862,1.08782827 C122.328965,4.24434012 130.575275,14.1237345 134.846679,31.4398274 C137.819039,32.3878777 141.277462,34.1760143 144.707735,37.1557844 C151.335752,42.9133346 155.661432,51.6125718 156.740992,63.5360259 C158.590112,65.245347 160.822422,67.6747491 163.047354,70.7652388 C173.352584,85.0794797 174.703016,101.69701 161.49467,118.427447 C166.183343,135.706288 161.665473,149.194793 151.222379,158.740249 C147.711219,161.949606 144.200255,164.161114 141.324994,165.530701 C136.381121,180.629638 126.598959,188.485877 113.73812,189.884286 C106.562852,190.664481 99.0695041,189.389424 91.7204789,186.812838 C89.5661082,186.05751 87.7148971,185.298023 86.2363907,184.62323 C63.5650627,196.363197 40.6653547,191.728309 31.6485735,169.242798 C31.5921297,169.102049 31.536769,168.961422 31.4824841,168.82092 Z M117.343621,65.1192673 C119.03697,60.6432524 121.554939,56.4371936 124.683207,52.5499715 C126.291812,50.5511008 129.216249,50.2347278 131.215119,51.8433325 C133.21399,53.4519373 133.530363,56.376374 131.921758,58.3752447 C125.345009,66.5475886 122.289116,76.1857402 125.596189,86.7091803 C126.365408,89.156913 125.004704,91.7647677 122.556971,92.5339867 C120.109239,93.3032058 117.501384,91.9425017 116.732165,89.494769 C115.061293,84.1778853 114.607056,79.0551943 115.145487,74.1777768 C113.243238,73.513818 111.084895,73.2235548 108.683201,73.2886359 C104.50837,73.4017653 99.8701718,74.5744272 95.1765112,76.472904 C93.6038275,77.1090181 92.1265148,77.7861926 90.7806473,78.4657621 L90.7806473,176.466317 C92.0067709,177.004335 93.3527726,177.539194 94.7946078,178.044705 C100.947397,180.201887 107.139755,181.25557 112.733748,180.647313 C122.426697,179.593362 129.380203,173.709998 133.045444,160.837909 C136.311007,149.368972 132.920688,142.701977 125.531278,140.572463 C118.894184,138.659755 111.434513,141.327336 109.718228,145.840281 C108.806193,148.238465 106.12273,149.443225 103.724546,148.53119 C101.326363,147.619154 100.121602,144.935691 101.033638,142.537508 C104.662753,132.994805 117.214731,128.506212 128.10421,131.644392 C137.75646,134.426021 143.560581,142.191023 143.53304,153.107506 C144.013527,152.716435 144.487746,152.30801 144.953717,151.882092 C151.967678,145.471017 155.411121,136.976266 153.569325,125.62371 C145.656165,129.860508 136.705892,126.942368 128.195443,119.78323 C126.232011,118.131556 125.97928,115.200933 127.630954,113.237501 C129.282628,111.274068 132.213251,111.021338 134.176683,112.673012 C141.658815,118.967112 147.837096,120.154964 152.819459,114.348428 C164.663321,100.545414 163.90497,87.8591941 155.506794,76.1939025 C154.126405,74.2765046 152.643946,72.5669078 151.168188,71.0970387 C150.305898,70.2381891 149.662835,69.6699017 149.349921,69.4197263 L147.734725,68.1283738 L147.61328,66.0639846 C146.995759,55.567052 143.678481,48.5691847 138.614487,44.1702523 C136.709053,42.5150612 134.674986,41.3447158 132.656449,40.5779917 C131.504055,40.140265 130.674811,39.9411002 130.339424,39.8956795 L127.095603,39.4563762 L126.41785,36.2538747 C123.036086,20.2744528 116.767576,12.3313384 108.598163,10.0316317 C103.702109,8.65338234 98.2252785,9.33470859 92.8422205,11.3747387 C92.0756011,11.6652662 91.3845768,11.9536663 90.7806473,12.2245963 L90.7806473,68.2353091 C91.0786017,68.1101511 91.382648,67.9847486 91.692549,67.8594009 C97.3293723,65.5794366 102.990862,64.148059 108.431515,64.0006284 C111.583516,63.9152155 114.570003,64.270293 117.343621,65.1192673 Z M49.3752944,73.9590193 C47.0536309,72.8667866 46.0569804,70.099277 47.1492131,67.7776135 C48.2414458,65.4559501 51.0089554,64.4592996 53.3306188,65.5515323 C55.9858997,66.8007162 59.7666916,69.12761 63.5689003,72.5703161 C72.2057399,80.3905341 76.3929518,90.2257312 73.1052621,101.648565 C72.3956025,104.114225 69.8214979,105.537744 67.3558384,104.828084 C64.8901789,104.118425 63.4666597,101.54432 64.1763193,99.0786605 C66.3363008,91.5739648 63.5902742,85.1239178 57.332563,79.4578793 C55.5696823,77.8616807 53.6640542,76.4678081 51.7610157,75.2965803 C50.6385676,74.605768 49.794722,74.1563401 49.3752944,73.9590193 Z M62.358539,124.250387 C64.4280983,122.733806 67.3352393,123.182084 68.8518202,125.251643 C70.3684011,127.321202 69.9201235,130.228343 67.8505642,131.744924 C67.6674652,131.8791 67.2595028,132.20662 66.7037116,132.704707 C65.7467982,133.562269 64.7857327,134.54916 63.8966728,135.636407 C59.0306519,141.587152 58.4489845,147.155037 64.4579944,153.153921 C66.2737857,154.966652 66.2762662,157.908151 64.4635348,159.723943 C62.6508034,161.539734 59.7093045,161.542214 57.8935132,159.729483 C47.9927507,149.845405 49.1230977,139.025402 56.7038722,129.754737 C58.7866627,127.207655 60.8664852,125.34377 62.358539,124.250387 Z" id="Brain" transform="translate(85.666552, 95.434789) scale(-1, 1) translate(-85.666552, -95.434789) "></path>
                    </g>
                </g>
            </g>
        </g>
    </g>
</svg>