<?xml version="1.0" encoding="UTF-8"?>
<svg width="181px" height="213px" viewBox="0 0 181 213" version="1.1" xmlns="http://www.w3.org/2000/svg" xmlns:xlink="http://www.w3.org/1999/xlink">
    <!-- Generator: Sketch 51.2 (57519) - http://www.bohemiancoding.com/sketch -->
    <title>👻  Ghost</title>
    <desc>Created with Sketch.</desc>
    <defs>
        <filter x="-6.0%" y="-4.0%" width="111.3%" height="110.0%" filterUnits="objectBoundingBox" id="filter-1">
            <feOffset dx="0" dy="2" in="SourceAlpha" result="shadowOffsetOuter1"></feOffset>
            <feGaussianBlur stdDeviation="2" in="shadowOffsetOuter1" result="shadowBlurOuter1"></feGaussianBlur>
            <feColorMatrix values="0 0 0 0 0   0 0 0 0 0   0 0 0 0 0  0 0 0 0.0507246377 0" type="matrix" in="shadowBlurOuter1" result="shadowMatrixOuter1"></feColorMatrix>
            <feMerge>
                <feMergeNode in="shadowMatrixOuter1"></feMergeNode>
                <feMergeNode in="SourceGraphic"></feMergeNode>
            </feMerge>
        </filter>
    </defs>
    <g id="Page-1" stroke="none" stroke-width="1" fill="none" fill-rule="evenodd">
        <g id="Light-Theme" transform="translate(-101.000000, -423.000000)" stroke="#59C7F1" stroke-width="4.352">
            <g id="cards" transform="translate(41.000000, 314.000000)">
                <g id="card">
                    <g id="👻--Ghost" filter="url(#filter-1)" transform="translate(67.000000, 113.000000)">
                        <path d="M53.5253018,111.904587 C60.6579531,111.904587 66.4401094,106.122431 66.4401094,98.9897796 C66.4401094,91.8571283 60.6579531,86.074972 53.5253018,86.074972 C46.3926506,86.074972 40.6104943,91.8571283 40.6104943,98.9897796 C40.6104943,106.122431 46.3926506,111.904587 53.5253018,111.904587 Z M116.089996,111.904587 C123.222647,111.904587 129.004804,106.122431 129.004804,98.9897796 C129.004804,91.8571283 123.222647,86.074972 116.089996,86.074972 C108.957345,86.074972 103.175189,91.8571283 103.175189,98.9897796 C103.175189,106.122431 108.957345,111.904587 116.089996,111.904587 Z M0,85.7707404 L0,190.796966 C0,195.341867 5.49474076,197.618298 8.70862905,194.40441 L17.3332407,185.779798 C19.3257806,183.787258 22.555588,183.787258 24.548128,185.779798 L38.273925,199.505595 C40.266465,201.498135 43.4962724,201.498135 45.4888123,199.505595 L59.2146093,185.779798 C61.2071493,183.787258 64.4369567,183.787258 66.4294967,185.779798 L80.1552937,199.505595 C82.1478336,201.498135 85.377641,201.498135 87.370181,199.505595 L101.095978,185.779798 C103.088518,183.787258 106.318325,183.787258 108.310865,185.779798 L122.036662,199.505595 C124.029202,201.498135 127.25901,201.498135 129.25155,199.505595 L142.977347,185.779798 C144.969887,183.787258 148.199694,183.787258 150.192234,185.779798 L158.815961,194.40441 C162.02985,197.618298 167.52459,195.341867 167.52459,190.796966 L167.52459,83.7631658 C167.526359,36.4878773 128.363618,-1.6401227 80.7098088,0.0543764677 C35.3191642,1.66839576 0,40.3517952 0,85.7707404 Z" id="Ghost"></path>
                    </g>
                </g>
            </g>
        </g>
    </g>
</svg>