<?xml version="1.0" encoding="UTF-8"?>
<svg width="27px" height="27px" viewBox="0 0 27 27" version="1.1" xmlns="http://www.w3.org/2000/svg" xmlns:xlink="http://www.w3.org/1999/xlink">
    <!-- Generator: Sketch 51.2 (57519) - http://www.bohemiancoding.com/sketch -->
    <title>002-moon</title>
    <desc>Created with Sketch.</desc>
    <defs></defs>
    <g id="Page-1" stroke="none" stroke-width="1" fill="none" fill-rule="evenodd">
        <g id="Light-Theme" transform="translate(-953.000000, -114.000000)" fill="#59C7F1" fill-rule="nonzero">
            <g id="Header" transform="translate(41.000000, 105.000000)">
                <g id="002-moon" transform="translate(912.000000, 9.000000)">
                    <path d="M26.5615664,17.327034 C26.1432773,16.985214 25.5538652,16.978626 25.1282461,17.311374 C23.2510605,18.77985 21.0074238,19.555992 18.6397559,19.555992 C17.9954473,19.555992 17.3496094,19.496592 16.7201719,19.37952 C16.4691035,19.332648 16.2288457,19.503234 16.1832832,19.760274 C16.137668,20.017206 16.3041504,20.263392 16.5551133,20.310048 C17.2388672,20.437272 17.9402344,20.501748 18.6397031,20.501748 C21.2117695,20.501748 23.6493105,19.65843 25.6887598,18.063 C25.7768262,17.994096 25.898748,17.9955 25.9853379,18.066186 C26.071875,18.136926 26.1000879,18.258372 26.0540508,18.361512 C25.048459,20.612934 23.4452812,22.52205 21.4179082,23.882364 C19.3372207,25.278318 16.9169238,26.016282 14.418791,26.016282 C7.36725586,26.016282 1.63038867,20.14173 1.63038867,12.920958 C1.63038867,10.362708 2.35100391,7.884378 3.71429297,5.753916 C5.04272461,3.677778 6.90704297,2.036178 9.10596094,1.006398 C9.20657812,0.959202 9.32491406,0.9882 9.39399609,1.076868 C9.46302539,1.165482 9.46444922,1.29033 9.39721289,1.380402 C7.83912305,3.469122 7.01557031,5.965164 7.01557031,8.598744 C7.01557031,11.149164 7.79514258,13.582728 9.27007031,15.636456 C10.714834,17.648172 12.695168,19.123668 14.9970234,19.903374 C15.2393379,19.985238 15.500373,19.850778 15.5805293,19.602918 C15.6605801,19.35495 15.5292187,19.08738 15.2871152,19.005408 C10.8920742,17.51679 7.93921289,13.334706 7.93921289,8.598798 C7.93921289,6.174468 8.6972168,3.87693 10.1312227,1.95453 C10.4562246,1.518858 10.4498437,0.915354 10.1158242,0.486864 C9.78164648,0.058104 9.20800195,-0.081594 8.72158008,0.146448 C6.36440625,1.250316 4.3657207,3.010176 2.94173437,5.235516 C1.47956836,7.520418 0.706746094,10.178028 0.706746094,12.920958 C0.706746094,20.663262 6.858,26.962092 14.418791,26.962092 C17.0972754,26.962092 19.6925977,26.170722 21.9241582,24.673464 C24.0972891,23.215302 25.8159551,21.168702 26.8941094,18.754902 C27.1167012,18.256374 26.9800664,17.669232 26.5615664,17.327034 Z" id="Shape"></path>
                    <path d="M13.2602695,8.53659 C14.3513965,8.53659 15.2391797,9.445626 15.2391797,10.56294 C15.2391797,10.824084 15.4459512,11.035818 15.7009746,11.035818 C15.955998,11.035818 16.1627695,10.824084 16.1627695,10.56294 C16.1627695,9.445626 17.0505,8.53659 18.141627,8.53659 C18.3966504,8.53659 18.6034219,8.324856 18.6034219,8.063712 C18.6034219,7.802568 18.3966504,7.590834 18.141627,7.590834 C17.0505,7.590834 16.1627695,6.681744 16.1627695,5.56443 C16.1627695,5.303286 15.955998,5.091552 15.7009746,5.091552 C15.4459512,5.091552 15.2391797,5.303286 15.2391797,5.56443 C15.2391797,6.681744 14.3513965,7.590834 13.2602695,7.590834 C13.0052461,7.590834 12.7984746,7.802568 12.7984746,8.063712 C12.7984746,8.324856 13.0052461,8.53659 13.2602695,8.53659 Z M15.7009746,7.171416 C15.9259922,7.528572 16.2235195,7.83324 16.5723047,8.063712 C16.2235195,8.29413 15.9260449,8.598798 15.7009746,8.955954 C15.475957,8.598798 15.178377,8.294184 14.8295918,8.063712 C15.178377,7.833294 15.475957,7.528572 15.7009746,7.171416 Z" id="Shape"></path>
                    <path d="M19.7966953,14.617584 C20.5888711,14.617584 21.2333906,13.95765 21.2333906,13.146516 C21.2333906,12.335328 20.5888711,11.67534 19.7966953,11.67534 C19.0045195,11.67534 18.3600527,12.335328 18.3600527,13.146516 C18.3601582,13.95765 19.0045723,14.617584 19.7966953,14.617584 Z M19.7966953,12.621204 C20.0795625,12.621204 20.309748,12.85686 20.309748,13.14657 C20.309748,13.436172 20.0796152,13.671828 19.7966953,13.671828 C19.5137754,13.671828 19.2836953,13.436226 19.2836953,13.14657 C19.283748,12.85686 19.5138281,12.621204 19.7966953,12.621204 Z" id="Shape"></path>
                    <path d="M2.1331582,23.261472 C1.34098242,23.261472 0.696515625,23.921406 0.696515625,24.732594 C0.696515625,25.543782 1.34098242,26.20377 2.1331582,26.20377 C2.92533398,26.20377 3.56980078,25.543782 3.56980078,24.732594 C3.56980078,23.921406 2.92533398,23.261472 2.1331582,23.261472 Z M2.1331582,25.257906 C1.85029102,25.257906 1.6201582,25.02225 1.6201582,24.73254 C1.6201582,24.44283 1.85029102,24.207282 2.1331582,24.207282 C2.41602539,24.207282 2.6461582,24.442884 2.6461582,24.732594 C2.6461582,25.02225 2.41607813,25.257906 2.1331582,25.257906 Z" id="Shape"></path>
                    <ellipse id="Oval" cx="15.7009219" cy="13.73976" rx="1" ry="1"></ellipse>
                    <ellipse id="Oval" cx="0.578970703" cy="20.85858" rx="1" ry="1"></ellipse>
                    <ellipse id="Oval" cx="19.4138437" cy="4.57569" rx="1" ry="1"></ellipse>
                </g>
            </g>
        </g>
    </g>
</svg>