<?xml version="1.0" encoding="UTF-8"?>
<svg width="241px" height="173px" viewBox="0 0 241 173" version="1.1" xmlns="http://www.w3.org/2000/svg" xmlns:xlink="http://www.w3.org/1999/xlink">
    <!-- Generator: Sketch 51.2 (57519) - http://www.bohemiancoding.com/sketch -->
    <title>Planet</title>
    <desc>Created with Sketch.</desc>
    <defs></defs>
    <g id="Page-1" stroke="none" stroke-width="1" fill="none" fill-rule="evenodd">
        <g id="Light-Theme" transform="translate(-391.000000, -445.000000)" stroke="#59C7F1" stroke-width="4.35">
            <g id="cards" transform="translate(41.000000, 314.000000)">
                <g id="card" transform="translate(320.000000, 0.000000)">
                    <g id="🌎-Planet" transform="translate(33.000000, 134.000000)">
                        <path d="M82.473776,159.315665 C133.149118,183.855185 193.415994,151.021558 200.475271,93.2918126 M196.232622,62.2751419 C191.737892,44.3167815 181.733864,29.319465 168.597587,18.5005107 C148.907234,2.28375348 122.774261,-3.99917861 97.5069017,2.56818352 C63.7532012,11.3388171 40.4816476,40.4982021 36.9327383,73.8200297 C33.8723639,102.53685 45.450329,130.212529 67.6614806,147.851436 C111.165046,133.691491 163.07683,104.705098 198.275302,74.6818102 C197.875307,70.5554521 197.270107,66.415297 196.232622,62.2751419 L196.232622,62.2751419 Z M188.1244,13.1769993 C238.960157,1.98234255 250.154794,22.9622415 213.294886,60.7192672 C208.86578,65.2574121 203.8471,69.9303428 198.275302,74.6818102 M22.0319024,105.667703 C-15.5665366,143.974485 -3.84899014,165.141174 48.0773761,153.317163 C54.2064581,151.922607 60.7605342,150.09716 67.6604389,147.851436 M74.2988889,86.5228023 C81.6211631,86.5228023 87.5570391,80.4749286 87.5570391,73.0144983 C87.5570391,65.554068 81.6211631,59.5061943 74.2988889,59.5061943 C66.9766147,59.5061943 61.0407387,65.554068 61.0407387,73.0144983 C61.0407387,80.4749286 66.9766147,86.5228023 74.2988889,86.5228023 Z M101.284961,48.3852063 C106.19992,48.3852063 110.184282,44.3256677 110.184282,39.3179731 C110.184282,34.3102785 106.19992,30.2507399 101.284961,30.2507399 C96.370001,30.2507399 92.3856391,34.3102785 92.3856391,39.3179731 C92.3856391,44.3256677 96.370001,48.3852063 101.284961,48.3852063 Z" id="Planet"></path>
                    </g>
                </g>
            </g>
        </g>
    </g>
</svg>