<?xml version="1.0" encoding="UTF-8"?>
<svg width="41px" height="41px" viewBox="0 0 41 41" version="1.1" xmlns="http://www.w3.org/2000/svg" xmlns:xlink="http://www.w3.org/1999/xlink">
    <!-- Generator: Sketch 51.2 (57519) - http://www.bohemiancoding.com/sketch -->
    <title>001-sun</title>
    <desc>Created with Sketch.</desc>
    <defs></defs>
    <g id="Page-1" stroke="none" stroke-width="1" fill="none" fill-rule="evenodd">
        <g id="Dark-Theme" transform="translate(-946.000000, -108.000000)" fill="#59C7F1" fill-rule="nonzero">
            <g id="Header" transform="translate(41.000000, 105.000000)">
                <g id="001-sun" transform="translate(905.000000, 3.000000)">
                    <path d="M38.2021106,10.2541 C37.9950503,9.8997575 37.5383844,9.779525 37.1822613,9.98555 L33.5396482,12.08065 C33.1835251,12.286675 33.0626884,12.7410575 33.2697487,13.0954 C33.476809,13.4497425 33.9334749,13.569975 34.289598,13.36395 L37.9322111,11.26885 C38.2883342,11.0627225 38.4091709,10.6084425 38.2021106,10.2541 Z" id="Shape"></path>
                    <path d="M37.9322111,29.64095 L34.289598,27.54585 C33.9334749,27.339825 33.476809,27.4600575 33.2697487,27.8144 C33.0626884,28.1687425 33.1835251,28.623125 33.5396482,28.82915 L37.1822613,30.92425 C37.5383844,31.130275 37.9950503,31.0100425 38.2021106,30.6557 C38.4091709,30.301255 38.2883342,29.846975 37.9322111,29.64095 Z" id="Shape"></path>
                    <path d="M20.5101985,35.11855 C20.097108,35.088005 19.7374824,35.3964275 19.7067839,35.8074525 C19.7040025,35.84425 19.7040025,35.88115 19.7067839,35.9179475 L19.7067839,40.1040475 C19.6760854,40.5150725 19.9860578,40.8729 20.3991482,40.903445 C20.8122387,40.93399 21.1718643,40.6255675 21.2025628,40.2145425 C21.2053442,40.177745 21.2053442,40.140845 21.2025628,40.1040475 L21.2025628,35.9179475 C21.2331583,35.507025 20.9231859,35.149095 20.5101985,35.11855 Z" id="Shape"></path>
                    <path d="M7.36557789,12.08065 L3.72296482,9.98555 C3.36684171,9.779525 2.91017588,9.8997575 2.70311558,10.2541 C2.49605528,10.6084425 2.61689196,11.062825 2.97301508,11.26885 L6.61562814,13.36395 C6.97175126,13.569975 7.42841709,13.4497425 7.63547739,13.0954 C7.84253769,12.740955 7.72170101,12.286675 7.36557789,12.08065 Z" id="Shape"></path>
                    <path d="M20.5101985,0.00205 C20.097108,-0.028495 19.7374824,0.2799275 19.7067839,0.6909525 C19.7040025,0.72775 19.7040025,0.76465 19.7067839,0.8014475 L19.7067839,4.9875475 C19.7090503,5.39642 20.0416859,5.7273925 20.4526131,5.7296475 C20.8668367,5.7296475 21.2025628,5.3956 21.2025628,4.9834475 L21.2025628,0.80155 C21.2331583,0.390525 20.9231859,0.032595 20.5101985,0.00205 Z" id="Shape"></path>
                    <path d="M13.3239698,6.68505 L11.2224623,3.06065 C11.015402,2.7063075 10.5587362,2.586075 10.2026131,2.7921 C9.84648995,2.998125 9.72565327,3.4525075 9.93271357,3.80685 L12.0342211,7.43125 C12.2412814,7.7855925 12.6979472,7.905825 13.0540704,7.6998 C13.4101935,7.4936725 13.5310302,7.0393925 13.3239698,6.68505 Z" id="Shape"></path>
                    <path d="M20.5636633,13.83135 C20.5266809,13.8285825 20.4895955,13.8285825 20.4526131,13.83135 C16.7772412,13.83135 13.7978392,16.795855 13.7978392,20.45285 C13.7978392,20.8650025 14.1335653,21.19905 14.5477889,21.19905 C14.9603643,21.196795 15.2936181,20.8633625 15.2936181,20.45285 C15.2913518,17.62016 17.5974472,15.321905 20.4443719,15.31965 C20.4471533,15.31965 20.4498317,15.31965 20.4526131,15.31965 C20.8657035,15.350195 21.2253291,15.0417725 21.2560276,14.6307475 C21.2867261,14.2197225 20.9767538,13.8617925 20.5636633,13.83135 Z" id="Shape"></path>
                    <path d="M40.8949246,20.39545 C40.8674196,20.0269625 40.5730025,19.733915 40.2025603,19.7065475 L35.9954246,19.7065475 C35.5823342,19.6760025 35.2227085,19.984425 35.1920101,20.39545 C35.1613116,20.806475 35.4712839,21.1643025 35.8843744,21.1948475 C35.9213568,21.197615 35.9585452,21.197615 35.9955276,21.1948475 L40.2026633,21.1948475 C40.6156508,21.164405 40.9256231,20.806475 40.8949246,20.39545 Z" id="Shape"></path>
                    <path d="M5.02074874,19.71075 C4.98376633,19.7079825 4.9466809,19.7079825 4.90969849,19.71075 L0.702562814,19.71075 C0.289472362,19.741295 -0.0205,20.099225 0.0101984925,20.5101475 C0.0377035176,20.878635 0.332120603,21.1716825 0.702562814,21.19905 L4.90969849,21.19905 C5.32278894,21.229595 5.68241457,20.9211725 5.71311307,20.5101475 C5.74381156,20.0991225 5.4338392,19.7411925 5.02074874,19.71075 Z" id="Shape"></path>
                    <path d="M20.4556005,9.50175 C14.377093,9.50093 9.44885176,14.4031975 9.44792462,20.4513125 C9.44751256,23.35688 10.6076683,26.1435475 12.6728116,28.19775 C14.7340402,30.2537975 17.5338869,31.40764 20.4525101,31.40395 C26.5310176,31.40477 31.4593618,26.5025025 31.4601859,20.4543875 C31.4610101,14.4062725 26.534108,9.50257 20.4556005,9.50175 Z M27.1773342,27.15635 C23.4633317,30.8517825 17.4416884,30.8517825 13.7276859,27.15635 C11.9410955,25.3786925 10.9388618,22.966765 10.9421583,20.45285 C10.9385528,17.94242 11.9410955,15.5341825 13.7276859,13.76165 L13.7276859,13.77395 C17.4416884,10.0785175 23.4633317,10.0785175 27.1773342,13.77395 C30.8914397,17.4693825 30.8914397,23.4609175 27.1773342,27.15635 Z" id="Shape"></path>
                    <path d="M30.9743668,37.10213 C30.9737487,37.1010025 30.9731307,37.099875 30.9724095,37.09885 L28.8667814,33.47445 C28.6597211,33.1201075 28.2030553,32.999875 27.8469322,33.2059 C27.490809,33.411925 27.3699724,33.8663075 27.5770327,34.22065 L29.6826608,37.84505 C29.888897,38.1989825 30.3442236,38.320035 30.7004497,38.11565 C31.057397,37.9109575 31.1800879,37.45719 30.9743668,37.10213 Z" id="Shape"></path>
                    <path d="M30.7273367,2.7921 C30.3712136,2.586075 29.9145477,2.7063075 29.7074874,3.06065 L27.6018593,6.68505 C27.3933568,7.0385725 27.5124422,7.4932625 27.8676382,7.70062 C27.8683593,7.70103 27.8689774,7.70144 27.8696985,7.70185 C28.2255126,7.908285 28.6821784,7.7886675 28.8896508,7.43453 C28.8902688,7.4334025 28.8909899,7.432275 28.891608,7.43125 L30.9972362,3.80685 C31.2042965,3.452405 31.0834598,2.998125 30.7273367,2.7921 Z" id="Shape"></path>
                    <path d="M13.058191,33.2059 C12.7020678,32.999875 12.245402,33.1201075 12.0383417,33.47445 L9.93271357,37.09885 C9.72565327,37.4531925 9.84648995,37.907575 10.2026131,38.1136 C10.5587362,38.319625 11.015402,38.1993925 11.2224623,37.84505 L13.3280905,34.22065 C13.5351508,33.866205 13.4143141,33.411925 13.058191,33.2059 Z" id="Shape"></path>
                    <path d="M7.63547739,27.8103 C7.42841709,27.4559575 6.97175126,27.335725 6.61562814,27.54175 L2.97301508,29.63685 C2.61689196,29.842875 2.49605528,30.2972575 2.70311558,30.6516 C2.91017588,31.0059425 3.36684171,31.126175 3.72296482,30.92015 L7.36557789,28.82505 C7.72170101,28.6189225 7.84253769,28.1646425 7.63547739,27.8103 Z" id="Shape"></path>
                </g>
            </g>
        </g>
    </g>
</svg>