<?xml version="1.0" encoding="utf-8"?>
<!-- Generator: Adobe Illustrator 16.0.4, SVG Export Plug-In . SVG Version: 6.00 Build 0)  -->
<!DOCTYPE svg PUBLIC "-//W3C//DTD SVG 1.1//EN" "http://www.w3.org/Graphics/SVG/1.1/DTD/svg11.dtd">
<svg version="1.1" id="Layer_1" xmlns="http://www.w3.org/2000/svg" xmlns:xlink="http://www.w3.org/1999/xlink" x="0px" y="0px"
	 width="612px" height="322px" viewBox="0 234.5 612 322" enable-background="new 0 234.5 612 322" xml:space="preserve">
<g>
	<path fill="#222222" stroke="#222222" stroke-width="10" stroke-miterlimit="10" d="M405.887,264.131h8.209v215.704h55.43v-72.497
		h80.706l0.081,0.081v8.209l-0.081,0.081h-72.416v64.207h72.497v8.209l-0.081,0.081H405.806V371.577H288.445l-0.082-0.082v-8.208
		h117.442C405.887,330.208,405.887,297.21,405.887,264.131L405.887,264.131z M107.039,519.578v-68.271h144.425l0.082-0.081v-175.31
		h-73.96v167.101H98.83v84.933H549.5v-8.29C401.985,519.578,254.472,519.578,107.039,519.578L107.039,519.578z M185.713,284.125
		h57.461v158.812h-57.461V284.125L185.713,284.125z M307.869,275.917v68.027c20.726,0,41.45,0,62.257,0.082l0.081-0.082v-68.027
		H307.869z M361.917,335.735h-45.758v-51.528h45.758V335.735z M117.361,310.702v39.256c12.435,0,24.87,0,37.305,0.081l0.082-0.081
		v-39.256H117.361z M146.458,341.749h-20.807v-22.757h20.807V341.749z M117.361,416.359c12.435,0,24.87,0,37.305,0.081l0.082-0.081
		v-39.256h-37.387V416.359z M125.651,385.394h20.807v22.757h-20.807V385.394z M369.15,407.338h-80.625l-0.081,0.081v72.416H139.143
		v8.209l0.082,0.081H369.15l0.081-0.081C369.231,461.223,369.231,434.321,369.15,407.338L369.15,407.338z M360.941,479.835h-64.125
		v-64.207h64.125V479.835z"/>
</g>
</svg>
