<?xml version="1.0" encoding="utf-8"?>
<!-- Generator: Adobe Illustrator 16.0.4, SVG Export Plug-In . SVG Version: 6.00 Build 0)  -->
<!DOCTYPE svg PUBLIC "-//W3C//DTD SVG 1.1//EN" "http://www.w3.org/Graphics/SVG/1.1/DTD/svg11.dtd">
<svg version="1.1" id="Layer_1" xmlns="http://www.w3.org/2000/svg" xmlns:xlink="http://www.w3.org/1999/xlink" x="0px" y="0px"
	 width="387px" height="514px" viewBox="-60.409 -48.788 387 514" enable-background="new -60.409 -48.788 387 514"
	 xml:space="preserve">
<g>
	<path d="M199.421,110.965c-32.671,12.706-63.527,26.188-88.159,40.968C85.072,167.75,67.7,189.013,67.7,209.237
		c0,43.561,47.71,73.379,118.496,73.379c25.671,0,49.007-3.111,66.119-7.52l1.815,4.668c-13.226,9.854-27.485,19.965-43.562,29.041
		c-8.298,4.666-23.596,7.52-44.339,7.52c-63.008,0-116.163-29.818-116.163-96.717c0-33.967,18.15-61.972,43.042-83.751
		c-28.003-19.965-38.894-33.967-38.894-56.526c0-11.149,3.89-26.448,11.668-39.671c11.928-19.707,29.56-30.337,48.229-30.337
		c22.818,0,39.933,11.409,55.748,32.671l-4.147,5.445c-13.483-6.223-26.448-8.557-40.19-8.557c-28.78,0-51.857,14.52-51.857,25.151
		c0,11.668,6.74,21.002,22.559,32.93c9.334,6.741,22.299,14.001,27.484,14.001c5.187,0,9.854-2.593,14.262-4.667
		c23.336-11.15,46.672-21.262,70.009-30.078l1.296,0.778L199.421,110.965z"/>
</g>
<g>
	<path fill="#333333" d="M98.942,291.427c-23.77,1.436-44.962-8.501-46.592-35.521c-0.81-13.408,3.583-25.091,10.894-35.728
		c8.73-10.722,18.483-18.039,28.031-18.615c11.783-0.711,23.258,6.956,32.062,21.105c8.564,13.553,15.013,32.532,16.373,55.082
		c1.141,18.893-2.453,37.053-12.215,54.359c-16.426,28.518-33.021,40.732-49.881,41.75c-18.689,1.129-38.356-3.801-59.508-16.39
		l2.656-6.686c10.261,4.479,20.122,5.718,30.077,5.116c20.518-1.237,40.411-12.836,57.851-34.687
		c8.541-10.507,16.352-23.007,17.05-35.079C117.152,289.104,108.084,290.875,98.942,291.427z M86.117,227.567
		c-9.55,0.576-22.115,11.938-21.662,19.453c0.761,12.597,19.177,20.455,35.836,19.449c7.72-0.466,15.594-1.757,22.796-4.025
		C116.363,242.257,103.588,226.512,86.117,227.567z"/>
</g>
<g>
	<path fill="#1A1A1A" d="M172.512,201.983c-3.875,12.187-2.229,23.502,15.265,29.745c10.917,3.895,21.354,3.83,33.617,1.736
		c2.17-0.331,3.601-1.24,3.998-2.359c2.697-7.56,1.344-19.244-3.669-31.288c-4.933-11.384-12.874-22.737-21.014-31.321
		c-2.762-2.878-3.23-5.098-2.631-6.776c1.248-3.499,7.764-9.38,12.83-13.409l1.17,0.259c8.84,11.043,17.883,25.944,23.114,40.907
		c4.743,13.684,6.218,26.357,2.022,38.114c-3.096,8.678-8.28,16.139-14.616,22.397c-15.104,2.974-30.396,3.829-43.555-0.865
		c-15.955-5.69-23.729-18.404-16.337-39.119c0.799-2.239,2.047-5.738,4.345-9.968L172.512,201.983z M225.666,101.192
		c4.241,6.247,8.042,13.282,11.453,20.968c-4.878,3.94-10.305,7.211-16.512,9.572c-3.61-7.126-7.472-13.552-11.372-20.308
		C214.812,107.733,220.339,104.183,225.666,101.192z"/>
</g>
<g>
	<path fill="#4D4D4D" d="M165.381,320.169c-15.062,0.146-28.11-2.375-37.124-8.395c-11.473-7.828-14.424-18.383-14.569-33.441
		c-0.069-7.327,3.102-16.312,7.101-23.68c6.997-13.094,19.708-24.816,33.14-24.945c16.484-0.158,29.836,12.535,40.671,38.688
		c3.979,11.562,9.47,32.271,9.634,49.364c0.104,10.583-0.616,20.359-2.976,29.134c-0.952,6.727-8.191,15.955-14.848,22.125
		c-19.773,17.896-50.144,34.677-84.942,35.012c-40.093,0.386-77.19-26.531-77.669-76.188c-0.199-20.759,4.279-41.766,11.658-57.508
		l8.568,2.156c-3.955,12.046-6.693,23.471-6.595,33.85c0.411,42.737,27.121,68.736,64.364,68.378
		c18.927-0.183,42.691-5.093,65.14-20.166c12.333-8.465,24.85-19.169,24.794-24.865c-0.037-3.867-1.297-7.927-2.962-11.777
		C182.061,319.194,174.131,320.085,165.381,320.169z M125.153,200.677c-8.421-7.856-15.811-14.298-24.016-20.936
		c5.221-7.377,10.854-14.148,15.892-19.488c8.406,6.432,15.392,13.082,23.41,21.552C134.819,190,130.8,195.331,125.153,200.677z
		 M150.722,256.199c-11.6,0.11-24.74,9.396-24.645,19.368c0.082,8.548,11.576,18.613,40.271,18.338
		c7.326-0.07,13.228-0.331,18.305-1.397C177.511,269.374,165.782,256.054,150.722,256.199z M164.405,197.653
		c-8.42-7.856-15.811-14.298-24.015-20.936c5.221-7.377,10.854-14.147,15.893-19.488c8.405,6.433,15.39,13.081,23.408,21.553
		C174.071,186.976,170.053,192.307,164.405,197.653z"/>
</g>
</svg>
