<?xml version="1.0" encoding="utf-8"?>
<!-- Generator: Adobe Illustrator 16.0.4, SVG Export Plug-In . SVG Version: 6.00 Build 0)  -->
<!DOCTYPE svg PUBLIC "-//W3C//DTD SVG 1.1//EN" "http://www.w3.org/Graphics/SVG/1.1/DTD/svg11.dtd">
<svg version="1.1" xmlns="http://www.w3.org/2000/svg" xmlns:xlink="http://www.w3.org/1999/xlink" x="0px" y="0px" width="640px"
	 height="480px" viewBox="0 0 640 480" enable-background="new 0 0 640 480" xml:space="preserve">
<g id="action">
	<g>
		<path d="M93.045,192.513v9.176H77.542v42.645H66.643v-42.645H51.069v-9.176H93.045z"/>
		<path d="M108.883,192.513h12.252l18.334,51.821h-11.742l-3.419-10.653h-19.083l-3.513,10.653H90.385L108.883,192.513z
			 M108.17,224.751h13.271l-6.546-20.391L108.17,224.751z"/>
		<path d="M146.237,192.513h10.652v21.352l20.021-21.352h13.992l-21.265,21.312l22.355,30.508H178.07l-15.966-22.621l-5.215,5.288
			v17.333h-10.652V192.513z"/>
		<path d="M236.377,201.689h-27.422v11.004h25.172v9h-25.172v13.324h28.688v9.317h-39.27v-51.821h38.004V201.689z"/>
		<path d="M278.266,192.513h12.252l18.334,51.821H297.11l-3.42-10.653h-19.083l-3.513,10.653h-11.326L278.266,192.513z
			 M277.552,224.751h13.271l-6.546-20.391L277.552,224.751z"/>
		<path d="M320.394,197.927c4.174-4.266,9.483-6.398,15.93-6.398c8.625,0,14.932,2.86,18.92,8.578
			c2.203,3.211,3.385,6.434,3.547,9.668h-10.828c-0.688-2.484-1.572-4.359-2.652-5.625c-1.928-2.25-4.787-3.375-8.574-3.375
			c-3.857,0-6.9,1.588-9.127,4.764c-2.229,3.176-3.342,7.67-3.342,13.482c0,5.813,1.176,10.166,3.525,13.061
			c2.35,2.895,5.336,4.342,8.959,4.342c3.713,0,6.545-1.242,8.494-3.727c1.076-1.336,1.971-3.34,2.682-6.012h10.758
			c-0.928,5.648-3.299,10.243-7.111,13.781c-3.814,3.54-8.701,5.309-14.66,5.309c-7.373,0-13.17-2.391-17.39-7.172
			c-4.22-4.804-6.33-11.391-6.33-19.758C313.194,209.798,315.594,202.826,320.394,197.927z"/>
		<path d="M405.092,192.513v9.176h-15.504v42.645h-10.898v-42.645h-15.574v-9.176H405.092z"/>
		<path d="M421.299,244.334h-10.758v-51.821h10.758V244.334z"/>
		<path d="M471.326,239.728c-3.914,4.032-9.574,6.047-16.98,6.047s-13.066-2.016-16.98-6.047c-5.25-4.945-7.875-12.07-7.875-21.375
			c0-9.492,2.625-16.617,7.875-21.375c3.914-4.031,9.574-6.047,16.98-6.047s13.066,2.016,16.98,6.047
			c5.227,4.758,7.84,11.883,7.84,21.375C479.166,227.658,476.553,234.783,471.326,239.728z M464.559,231.853
			c2.52-3.164,3.779-7.664,3.779-13.5c0-5.812-1.26-10.306-3.779-13.482c-2.52-3.176-5.924-4.764-10.213-4.764
			s-7.711,1.582-10.266,4.746s-3.832,7.664-3.832,13.5s1.277,10.336,3.832,13.5s5.977,4.746,10.266,4.746
			S462.039,235.017,464.559,231.853z"/>
		<path d="M487.252,192.513h11.352l20.57,36.133v-36.133h10.09v51.821h-10.826l-21.096-36.769v36.769h-10.09V192.513z"/>
	</g>
	<g>
		<path d="M578.848,216.861l-4.557,0.731c-0.354,0.055-0.741-0.191-0.85-0.512l-2.887-8.442c-0.026-0.077-0.064-0.138-0.099-0.205
			c-0.026-0.067-0.052-0.135-0.088-0.199c-0.223-0.392-0.581-0.673-1.013-0.794l-3.446-0.959c-0.017-0.004-0.031-0.004-0.048-0.008
			l-1.659-0.457c-0.762-0.21-1.849,0.026-2.451,0.522l-6.757,5.563c-0.639,0.525-0.983,1.565-0.786,2.368l1.898,7.696
			c0.194,0.789,0.96,1.577,1.741,1.794l0.072,0.02l-2.758,6.878c-0.242,0.606-0.981,1.364-1.582,1.622l-6.929,2.983
			c-0.519,0.223-0.877,0.631-0.988,1.12c-0.109,0.488,0.04,1.011,0.413,1.436l0.704,0.799c0.46,0.524,1.225,0.851,1.992,0.851
			c0.342,0,0.662-0.062,0.951-0.188l6.928-2.981c0.864-0.373,1.839-1.338,2.218-2.198l2.539-5.762l1.915,3.499
			c0.314,0.573,0.435,1.631,0.259,2.261l-2.305,8.222c-0.15,0.538-0.062,1.078,0.244,1.48c0.305,0.402,0.802,0.635,1.36,0.635h1.065
			c1.056,0,2.105-0.797,2.39-1.812l2.304-8.222c0.246-0.882,0.207-2.25-0.092-3.115l-2.289-6.643l2.5-8.989l1.612,4.879
			c0.246,0.744,1.005,1.284,1.802,1.284l0,0c0.094,0,0.187-0.007,0.278-0.022l6.573-1.066c0.883-0.144,1.576-0.958,1.576-1.854
			v-0.719C580.604,217.406,579.824,216.704,578.848,216.861z M558.43,215.528c-0.104-0.365,0.082-0.899,0.391-1.121l3.412-2.449
			l-2.665,7.538L558.43,215.528z"/>
		<path d="M568.928,204.87c3.142,0,5.698-2.557,5.698-5.698c0-3.143-2.557-5.699-5.698-5.699c-3.143,0-5.698,2.557-5.698,5.699
			C563.229,202.313,565.785,204.87,568.928,204.87z"/>
	</g>
</g>
<g id="one">
	<g>
		<path d="M316.904,196.138v-48.784c22.573-1.006,38.375-2.515,47.405-4.526c14.381-3.183,26.09-9.556,35.118-19.111
			c6.185-6.538,10.868-15.253,14.047-26.152c1.839-6.538,2.758-11.398,2.758-14.585h59.849v364.621h-73.427V196.138H316.904z"/>
	</g>
</g>
<g id="two">
	<g>
		<path d="M118.087,379.105c8.934-21.238,30.028-43.729,63.284-67.459c28.857-20.656,47.535-35.449,56.033-44.387
			c13.036-13.916,19.557-29.15,19.557-45.706c0-13.476-3.736-24.683-11.207-33.62c-7.471-8.934-18.166-13.404-32.081-13.404
			c-19.045,0-32.01,7.107-38.894,21.314c-3.956,8.206-6.3,21.242-7.032,39.113h-60.867c1.023-27.1,5.936-49.001,14.736-65.702
			c16.717-31.786,46.413-47.683,89.086-47.683c33.726,0,60.561,9.339,80.506,28.016c19.94,18.678,29.915,43.398,29.915,74.161
			c0,23.586-7.046,44.534-21.137,62.844c-9.246,12.162-24.435,25.709-45.571,40.652l-25.098,17.799
			c-15.704,11.133-26.45,19.191-32.236,24.17c-5.788,4.982-10.657,10.768-14.612,17.359h139.094v55.154H103.365
			C103.949,418.877,108.858,398.002,118.087,379.105z"/>
	</g>
</g>
<g id="three">
	<g>
		<path d="M458.943,204.04c0,7.72,1.238,14.109,3.719,19.167c4.602,9.318,12.967,13.977,25.097,13.977
			c7.438,0,13.923-2.55,19.454-7.654c5.533-5.102,8.301-12.446,8.301-22.029c0-12.689-5.131-21.165-15.393-25.424
			c-5.84-2.396-15.039-3.594-27.602-3.594v-27.154c12.292-0.177,20.869-1.375,25.734-3.594c8.4-3.727,12.602-11.269,12.602-22.628
			c0-7.365-2.146-13.354-6.439-17.97c-4.293-4.613-10.334-6.922-18.121-6.922c-8.939,0-15.512,2.841-19.715,8.519
			c-4.205,5.68-6.219,13.267-6.04,22.762h-35.407c0.354-9.584,1.994-18.679,4.919-27.287c3.103-7.542,7.979-14.509,14.628-20.898
			c4.962-4.525,10.856-7.986,17.682-10.382c6.826-2.396,15.204-3.594,25.133-3.594c18.438,0,33.309,4.771,44.611,14.309
			c11.301,9.54,16.952,22.341,16.952,38.402c0,11.36-3.374,20.944-10.116,28.751c-4.26,4.881-8.698,8.209-13.311,9.983
			c3.461,0,8.43,2.974,14.908,8.918c9.671,8.964,14.508,21.21,14.508,36.738c0,16.329-5.652,30.682-16.954,43.06
			c-11.304,12.38-28.036,18.569-50.198,18.569c-27.305,0-46.277-8.918-56.913-26.755c-5.587-9.495-8.689-21.917-9.31-37.271H458.943
			z"/>
	</g>
</g>
<g id="four">
	<g>
		<path d="M428.609,327.719h-36.037v68.557h-61.307v-68.557H205.137v-54.715l117.12-193.368h70.315v199.081h36.037V327.719z
			 M331.266,278.717V141.481l-79.527,137.235H331.266z"/>
	</g>
</g>
<g id="five">
	<g>
		<path d="M133.535,198.869c1.504,8.253,4.38,14.622,8.631,19.102c4.249,4.482,10.447,6.722,18.592,6.722
			c9.384,0,16.532-3.305,21.445-9.917c4.913-6.61,7.371-14.929,7.371-24.958c0-9.85-2.302-18.169-6.905-24.958
			c-4.604-6.789-11.776-10.183-21.514-10.183c-4.604,0-8.587,0.578-11.951,1.73c-5.932,2.13-10.403,6.079-13.413,11.847
			l-34.007-1.597l13.544-106.621H221.52v32.212h-78.821l-6.907,42.196c5.848-3.814,10.412-6.344,13.691-7.587
			c5.495-2.041,12.186-3.062,20.072-3.062c15.95,0,29.862,5.37,41.738,16.106c11.875,10.738,17.813,26.355,17.813,46.854
			c0,17.837-5.72,33.766-17.154,47.786c-11.437,14.022-28.546,21.032-51.328,21.032c-18.353,0-33.423-4.926-45.213-14.775
			c-11.791-9.85-18.35-23.827-19.679-41.93H133.535z"/>
	</g>
</g>
</svg>
