<?xml version="1.0" encoding="utf-8"?>
<!-- Generator: Adobe Illustrator 16.0.4, SVG Export Plug-In . SVG Version: 6.00 Build 0)  -->
<!DOCTYPE svg PUBLIC "-//W3C//DTD SVG 1.1//EN" "http://www.w3.org/Graphics/SVG/1.1/DTD/svg11.dtd">
<svg version="1.1" xmlns="http://www.w3.org/2000/svg" xmlns:xlink="http://www.w3.org/1999/xlink" x="0px" y="0px" width="250px"
	 height="250px" viewBox="0 0 250 250" enable-background="new 0 0 250 250" xml:space="preserve">
<g id="background">
	<circle fill="#FFFFFF" stroke="#000000" stroke-width="3" stroke-miterlimit="10" cx="127.404" cy="125.447" r="120.5"/>
</g>
<g id="title">
	<g>
		<path d="M72.713,99.214c-0.371,0.631-0.761,1.095-1.169,1.392c-0.409,0.297-0.928,0.445-1.559,0.445
			c-0.668,0-1.429-0.306-2.282-0.918c-0.854-0.612-1.92-1.299-3.201-2.06c-1.28-0.76-2.811-1.447-4.592-2.06
			s-3.916-0.918-6.401-0.918c-2.338,0-4.389,0.306-6.151,0.918c-1.763,0.612-3.238,1.447-4.425,2.505
			c-1.188,1.058-2.087,2.301-2.7,3.729c-0.612,1.429-0.918,2.978-0.918,4.648c0,2.152,0.547,3.934,1.642,5.344
			c1.094,1.411,2.533,2.616,4.314,3.618s3.803,1.874,6.067,2.616c2.263,0.743,4.583,1.512,6.958,2.31
			c2.375,0.798,4.694,1.717,6.958,2.755c2.263,1.039,4.286,2.348,6.067,3.924c1.781,1.578,3.219,3.507,4.314,5.789
			c1.094,2.282,1.642,5.075,1.642,8.378c0,3.526-0.604,6.828-1.809,9.908c-1.206,3.081-2.959,5.771-5.26,8.071
			c-2.301,2.302-5.13,4.11-8.489,5.427c-3.359,1.317-7.172,1.977-11.439,1.977c-2.561,0-5.047-0.25-7.459-0.751
			c-2.413-0.502-4.695-1.206-6.847-2.116c-2.153-0.908-4.166-2.004-6.04-3.284c-1.875-1.28-3.554-2.718-5.038-4.313l3.396-5.678
			c0.334-0.445,0.732-0.815,1.197-1.113c0.463-0.297,0.992-0.445,1.586-0.445c0.779,0,1.679,0.409,2.7,1.225
			c1.02,0.816,2.282,1.717,3.785,2.699c1.503,0.984,3.302,1.885,5.399,2.7c2.096,0.816,4.648,1.225,7.654,1.225
			c2.449,0,4.639-0.324,6.568-0.975c1.929-0.648,3.553-1.576,4.871-2.783c1.317-1.205,2.329-2.662,3.034-4.369
			c0.705-1.706,1.058-3.599,1.058-5.678c0-2.338-0.538-4.249-1.614-5.733c-1.077-1.483-2.505-2.728-4.286-3.729
			s-3.804-1.855-6.067-2.561c-2.264-0.704-4.583-1.438-6.958-2.199c-2.375-0.76-4.695-1.642-6.958-2.644
			c-2.264-1.002-4.286-2.31-6.067-3.924s-3.21-3.637-4.286-6.067c-1.077-2.43-1.614-5.427-1.614-8.99
			c0-2.857,0.557-5.622,1.67-8.294s2.736-5.038,4.871-7.097c2.133-2.06,4.759-3.71,7.876-4.954c3.117-1.243,6.68-1.865,10.688-1.865
			c4.49,0,8.619,0.715,12.385,2.143c3.766,1.429,7.042,3.479,9.825,6.151L72.713,99.214z"/>
		<path d="M156.32,86.188l-32.508,79.934h-10.631L80.673,86.188h9.463c1.039,0,1.883,0.26,2.533,0.779
			c0.649,0.52,1.141,1.188,1.475,2.004l21.598,54.328c0.52,1.336,1.03,2.803,1.531,4.397c0.501,1.596,0.955,3.266,1.364,5.01
			c0.371-1.744,0.779-3.414,1.225-5.01c0.445-1.595,0.927-3.062,1.447-4.397l21.542-54.328c0.26-0.742,0.732-1.392,1.42-1.948
			c0.686-0.557,1.531-0.835,2.533-0.835H156.32z"/>
		<path d="M229.185,127.213v31.172c-4.045,2.895-8.35,5.057-12.914,6.484c-4.564,1.429-9.538,2.144-14.918,2.144
			c-6.457,0-12.293-1.002-17.506-3.006c-5.215-2.004-9.658-4.806-13.332-8.405c-3.674-3.599-6.504-7.904-8.488-12.914
			c-1.986-5.01-2.979-10.521-2.979-16.532c0-6.048,0.955-11.587,2.867-16.616c1.91-5.028,4.647-9.333,8.21-12.914
			c3.562-3.581,7.877-6.364,12.942-8.35c5.065-1.985,10.751-2.978,17.061-2.978c3.191,0,6.151,0.242,8.879,0.724
			c2.728,0.482,5.26,1.169,7.598,2.06s4.499,1.958,6.485,3.201c1.984,1.244,3.831,2.644,5.538,4.203l-3.396,5.344
			c-0.52,0.854-1.206,1.392-2.06,1.614s-1.781,0.019-2.783-0.612c-0.965-0.557-2.031-1.206-3.2-1.948
			c-1.169-0.742-2.561-1.428-4.175-2.06c-1.614-0.631-3.499-1.169-5.65-1.614c-2.152-0.445-4.695-0.668-7.626-0.668
			c-4.379,0-8.331,0.715-11.856,2.143c-3.526,1.429-6.532,3.479-9.018,6.151c-2.486,2.672-4.397,5.892-5.733,9.658
			c-1.336,3.767-2.004,7.988-2.004,12.664c0,4.898,0.704,9.287,2.115,13.164c1.41,3.879,3.404,7.163,5.984,9.853
			c2.578,2.691,5.714,4.741,9.407,6.151c3.691,1.411,7.82,2.115,12.385,2.115c1.781,0,3.441-0.102,4.982-0.307
			c1.539-0.203,3.014-0.491,4.425-0.862c1.41-0.37,2.773-0.835,4.092-1.392c1.316-0.557,2.625-1.169,3.924-1.837v-16.755h-11.801
			c-0.743,0-1.346-0.223-1.809-0.668c-0.465-0.445-0.696-1.002-0.696-1.67v-6.735H229.185z"/>
	</g>
</g>
</svg>
