<?xml version="1.0" encoding="utf-8"?>
<!-- Generator: Adobe Illustrator 16.0.4, SVG Export Plug-In . SVG Version: 6.00 Build 0)  -->
<!DOCTYPE svg PUBLIC "-//W3C//DTD SVG 1.1//EN" "http://www.w3.org/Graphics/SVG/1.1/DTD/svg11.dtd">
<svg version="1.1" id="Layer_1" xmlns="http://www.w3.org/2000/svg" xmlns:xlink="http://www.w3.org/1999/xlink" x="0px" y="0px"
	 width="125px" height="96px" viewBox="0 0 125 96" enable-background="new 0 0 125 96" xml:space="preserve">
<g>
	<path fill="#FFFFFF" d="M47.793,88.484c6.234-6.08,14.749-13.047,23.864-15.188c1.374-0.599,2.753-1.108,4.108-1.565
		c5.842-1.971,12.345-3.369,18.801-3.551c9.533-2.078,19.204-2.885,27.992-2.568c0.813-0.11,1.627-0.217,2.441-0.316V0H0v96h41.019
		C43.182,93.221,45.545,90.676,47.793,88.484z"/>
	<path fill="#FFFFFF" d="M109.32,67.931c-2.138,0.187-4.295,0.433-6.464,0.745c0.621,0.1,1.239,0.212,1.853,0.341
		C106.238,68.625,107.777,68.27,109.32,67.931z"/>
	<path fill="#FFFFFF" d="M96.977,92.592c0.605-1.066,1.289-2.07,2.027-3.03c-1.712,0.862-3.475,1.657-5.304,2.333
		c0.226,0.365,0.417,0.764,0.56,1.201c0.097,0.295,0.171,0.596,0.26,0.893C95.334,93.516,96.157,93.057,96.977,92.592z"/>
	<path fill="#FFFFFF" d="M113.771,74.28c0.08,0.362,0.13,0.728,0.156,1.097c3.314-2.135,8.431-4.596,11.072-2.596v-2.738
		c-2.447,0.715-4.921,1.282-7.434,1.629C116.238,72.477,114.976,73.348,113.771,74.28z"/>
	<path opacity="0.7" fill="#336666" d="M113.771,74.28c0.08,0.362,0.13,0.728,0.156,1.097c3.314-2.135,8.431-4.596,11.072-2.596
		v-2.738c-2.447,0.715-4.921,1.282-7.434,1.629C116.238,72.477,114.976,73.348,113.771,74.28z"/>
	<path fill="#FFFFFF" d="M98.639,91.3c0.795-1.733,1.627-3.453,2.534-5.143c2.728-5.075,6.137-9.232,10.22-12.604
		c-0.319-0.637-0.762-1.25-1.385-1.824c-0.631-0.584-0.154-1.744,0.707-1.708c2.116,0.091,4.2-0.051,6.258-0.349
		c1.316-0.77,2.684-1.485,4.107-2.143c-3.786-0.078-7.732,0.051-11.76,0.401c-1.543,0.339-3.082,0.694-4.611,1.086
		c-0.613-0.129-1.231-0.241-1.853-0.341C82.638,71.595,61.676,80.132,50.474,96h44.538C96.101,94.309,97.308,92.734,98.639,91.3z
		 M93.7,91.895c1.829-0.676,3.592-1.471,5.304-2.333c-0.738,0.96-1.422,1.964-2.027,3.03c-0.819,0.465-1.643,0.924-2.457,1.396
		c-0.089-0.297-0.163-0.598-0.26-0.893C94.117,92.658,93.926,92.26,93.7,91.895z"/>
	<path opacity="0.7" fill="#336666" d="M98.639,91.3c0.795-1.733,1.627-3.453,2.534-5.143c2.728-5.075,6.137-9.232,10.22-12.604
		c-0.319-0.637-0.762-1.25-1.385-1.824c-0.631-0.584-0.154-1.744,0.707-1.708c2.116,0.091,4.2-0.051,6.258-0.349
		c1.316-0.77,2.684-1.485,4.107-2.143c-3.786-0.078-7.732,0.051-11.76,0.401c-1.543,0.339-3.082,0.694-4.611,1.086
		c-0.613-0.129-1.231-0.241-1.853-0.341C82.638,71.595,61.676,80.132,50.474,96h44.538C96.101,94.309,97.308,92.734,98.639,91.3z
		 M93.7,91.895c1.829-0.676,3.592-1.471,5.304-2.333c-0.738,0.96-1.422,1.964-2.027,3.03c-0.819,0.465-1.643,0.924-2.457,1.396
		c-0.089-0.297-0.163-0.598-0.26-0.893C94.117,92.658,93.926,92.26,93.7,91.895z"/>
	<path fill="#FFFFFF" d="M122.508,74.152c-0.58-0.069-1.292,0.023-2.171,0.336c-2.335,0.83-4.613,1.982-6.603,3.479
		c-0.198,0.975-0.522,1.949-0.938,2.904C115.903,78.203,119.045,75.799,122.508,74.152z"/>
	<path opacity="0.7" fill="#336666" d="M122.508,74.152c-0.58-0.069-1.292,0.023-2.171,0.336c-2.335,0.83-4.613,1.982-6.603,3.479
		c-0.198,0.975-0.522,1.949-0.938,2.904C115.903,78.203,119.045,75.799,122.508,74.152z"/>
	<path fill="#FFFFFF" d="M108.476,84.387c0.774-1.078,1.559-2.275,2.195-3.528c-0.844,1.017-1.565,2.138-2.128,3.368
		C108.52,84.279,108.5,84.334,108.476,84.387z"/>
	<path opacity="0.7" fill="#336666" d="M108.476,84.387c0.774-1.078,1.559-2.275,2.195-3.528c-0.844,1.017-1.565,2.138-2.128,3.368
		C108.52,84.279,108.5,84.334,108.476,84.387z"/>
	<path fill="#FFFFFF" d="M111.419,77.184c0.157-0.131,0.345-0.28,0.554-0.441c0.028-0.332,0.029-0.662,0.009-0.989
		c-3.766,3.288-6.877,7.278-9.369,12.019c0.952-0.694,1.952-1.329,3.011-1.892C106.866,82.535,108.671,79.482,111.419,77.184z"/>
	<path opacity="0.7" fill="#336666" d="M111.419,77.184c0.157-0.131,0.345-0.28,0.554-0.441c0.028-0.332,0.029-0.662,0.009-0.989
		c-3.766,3.288-6.877,7.278-9.369,12.019c0.952-0.694,1.952-1.329,3.011-1.892C106.866,82.535,108.671,79.482,111.419,77.184z"/>
	<path fill="#FFFFFF" d="M99.953,96h3.299c0.186-1.271,0.399-2.562,0.656-3.854C102.522,93.338,101.202,94.629,99.953,96z"/>
	<path opacity="0.7" fill="#336666" d="M99.953,96h3.299c0.186-1.271,0.399-2.562,0.656-3.854
		C102.522,93.338,101.202,94.629,99.953,96z"/>
	<path fill="#FFFFFF" d="M113.004,72.289c0.12-0.09,0.244-0.174,0.366-0.262c-0.172,0.005-0.345,0.01-0.517,0.014
		C112.905,72.123,112.956,72.206,113.004,72.289z"/>
	<path opacity="0.7" fill="#336666" d="M113.004,72.289c0.12-0.09,0.244-0.174,0.366-0.262c-0.172,0.005-0.345,0.01-0.517,0.014
		C112.905,72.123,112.956,72.206,113.004,72.289z"/>
	<path fill="#FFFFFF" d="M125,87.646c-1.075,2.931-2.431,5.78-3.611,8.354H125V87.646z"/>
	<path opacity="0.7" fill="#336666" d="M125,87.646c-1.075,2.931-2.431,5.78-3.611,8.354H125V87.646z"/>
	<path fill="#FFFFFF" d="M104.646,88.963c0.02-0.074,0.037-0.15,0.058-0.226c-1.524,0.995-2.916,2.155-4.188,3.452
		c-0.09,0.203-0.177,0.404-0.266,0.607C101.645,91.414,103.111,90.127,104.646,88.963z"/>
	<path opacity="0.7" fill="#336666" d="M104.646,88.963c0.02-0.074,0.037-0.15,0.058-0.226c-1.524,0.995-2.916,2.155-4.188,3.452
		c-0.09,0.203-0.177,0.404-0.266,0.607C101.645,91.414,103.111,90.127,104.646,88.963z"/>
	<path fill="#FFFFFF" d="M124.296,75.467c-4.13,1.732-7.74,4.689-11.304,7.852c1.628-0.308,3.344-0.497,5.17-0.533
		c1.109-0.021,1.39,1.754,0.266,1.964c-4.291,0.8-8.337,2.735-12.01,5.409c-0.528,1.913-0.939,3.865-1.27,5.842h14.337
		c1.686-3.889,3.243-7.818,4.294-11.875C124.311,82.072,125.35,77.684,124.296,75.467z"/>
	<path opacity="0.7" fill="#336666" d="M124.296,75.467c-4.13,1.732-7.74,4.689-11.304,7.852c1.628-0.308,3.344-0.497,5.17-0.533
		c1.109-0.021,1.39,1.754,0.266,1.964c-4.291,0.8-8.337,2.735-12.01,5.409c-0.528,1.913-0.939,3.865-1.27,5.842h14.337
		c1.686-3.889,3.243-7.818,4.294-11.875C124.311,82.072,125.35,77.684,124.296,75.467z"/>
	<path fill="#FFFFFF" d="M125,65.295c-0.814,0.1-1.628,0.206-2.441,0.316c0.823,0.029,1.635,0.073,2.441,0.122V65.295z"/>
	<path opacity="0.7" fill="#336666" d="M125,65.295c-0.814,0.1-1.628,0.206-2.441,0.316c0.823,0.029,1.635,0.073,2.441,0.122V65.295
		z"/>
	<path fill="#FFFFFF" d="M94.566,68.18c-6.456,0.182-12.959,1.58-18.801,3.551c-1.355,0.457-2.734,0.967-4.108,1.565
		c-9.115,2.142-17.63,9.108-23.864,15.188c-2.248,2.191-4.611,4.736-6.774,7.516h7.049C57.995,81.098,76.014,72.223,94.566,68.18z"
		/>
	<path opacity="0.7" fill="#336666" d="M94.566,68.18c-6.456,0.182-12.959,1.58-18.801,3.551c-1.355,0.457-2.734,0.967-4.108,1.565
		c-9.115,2.142-17.63,9.108-23.864,15.188c-2.248,2.191-4.611,4.736-6.774,7.516h7.049C57.995,81.098,76.014,72.223,94.566,68.18z"
		/>
	<path fill="#00CCFF" d="M102.856,68.676c2.169-0.312,4.326-0.559,6.464-0.745c4.377-0.96,8.801-1.718,13.238-2.319
		c-8.788-0.316-18.459,0.49-27.992,2.568C97.357,68.1,100.141,68.244,102.856,68.676z"/>
	<path fill="#00CCFF" d="M111.324,83.682c0.543-0.139,1.102-0.256,1.668-0.363c3.563-3.162,7.174-6.119,11.304-7.852
		c-0.344-0.721-0.911-1.209-1.788-1.314c-3.463,1.646-6.604,4.051-9.712,6.719C112.376,81.835,111.875,82.779,111.324,83.682z"/>
	<path fill="#00CCFF" d="M124.296,75.467c0.232-0.097,0.469-0.186,0.704-0.274v-2.063c-0.852,0.295-1.681,0.639-2.492,1.023
		C123.385,74.258,123.952,74.746,124.296,75.467z"/>
	<path fill="#00CCFF" d="M110.715,72.021c0.718,0.03,1.43,0.032,2.139,0.021c-0.372-0.6-0.837-1.179-1.432-1.728
		C111.187,70.883,110.951,71.451,110.715,72.021z"/>
	<path fill="#00CCFF" d="M102.612,87.771c2.492-4.74,5.604-8.73,9.369-12.019c-0.047-0.755-0.233-1.492-0.589-2.2
		c-4.083,3.372-7.492,7.529-10.22,12.604c-0.907,1.689-1.739,3.409-2.534,5.143C99.851,89.993,101.177,88.816,102.612,87.771z"/>
	<path fill="#00CCFF" d="M112.854,72.041c-0.709,0.012-1.421,0.01-2.139-0.021c0.236-0.569,0.472-1.138,0.707-1.707
		C112.017,70.862,112.481,71.441,112.854,72.041c0.172-0.004,0.345-0.009,0.517-0.014c1.152-0.84,2.354-1.623,3.603-2.355
		c-2.058,0.298-4.142,0.439-6.258,0.349c-0.861-0.036-1.338,1.124-0.707,1.708c0.623,0.574,1.065,1.188,1.385,1.824
		c0.525-0.435,1.063-0.855,1.611-1.264C112.956,72.206,112.905,72.123,112.854,72.041z"/>
	<path fill="#00CCFF" d="M110.671,80.858c0.896-1.081,1.935-2.041,3.063-2.892c0.178-0.869,0.256-1.737,0.193-2.59
		c-0.765,0.492-1.435,0.967-1.955,1.365C111.856,78.116,111.353,79.516,110.671,80.858z"/>
	<path fill="#00CCFF" d="M118.162,84.787c-0.089-0.655-0.178-1.311-0.266-1.965c-2.362,0.44-4.654,1.208-6.855,2.24
		c-0.446,0.4-0.894,0.799-1.341,1.197C112.226,85.368,115.031,84.848,118.162,84.787z"/>
	<path fill="#00CCFF" d="M117.896,82.822c0.088,0.654,0.177,1.31,0.266,1.965c-3.131,0.061-5.937,0.581-8.462,1.473
		c-0.136,0.121-0.271,0.242-0.405,0.361c-0.284,0.252-0.652,0.285-0.98,0.191c-0.329,0.14-0.657,0.28-0.977,0.434
		c-0.34,0.959-0.648,1.93-0.92,2.912c3.673-2.674,7.719-4.609,12.01-5.409c1.124-0.21,0.844-1.985-0.266-1.964
		c-1.826,0.036-3.542,0.226-5.17,0.533c-0.65,0.578-1.301,1.16-1.951,1.744C113.242,84.03,115.534,83.263,117.896,82.822z"/>
	<path fill="#00CCFF" d="M111.973,76.742c0.521-0.398,1.19-0.873,1.955-1.365c-0.026-0.369-0.076-0.734-0.156-1.097
		c-0.612,0.474-1.209,0.965-1.79,1.473C112.002,76.08,112.001,76.41,111.973,76.742z"/>
	<path fill="#00CCFF" d="M108.067,85.352c0.322,0.248,0.644,0.497,0.966,0.746c0.354-0.197,0.711-0.388,1.07-0.57
		c0.418-0.589,0.83-1.207,1.221-1.846c-0.924,0.234-1.81,0.518-2.669,0.837c-0.126,0.112-0.251,0.224-0.378,0.335
		C108.206,85.02,108.137,85.186,108.067,85.352z"/>
	<path fill="#00CCFF" d="M110.104,85.527c0.312-0.158,0.622-0.317,0.938-0.465c0.65-0.584,1.301-1.166,1.951-1.744
		c-0.566,0.107-1.125,0.225-1.668,0.363C110.934,84.32,110.521,84.938,110.104,85.527z"/>
	<path fill="#00CCFF" d="M113.771,74.28c1.204-0.933,2.467-1.804,3.795-2.608c-1.386,0.191-2.784,0.312-4.196,0.355
		c-0.122,0.088-0.246,0.172-0.366,0.262C113.369,72.933,113.621,73.599,113.771,74.28z"/>
	<path fill="#00CCFF" d="M109.451,86.419c-0.021-0.017-0.042-0.032-0.063-0.048c-0.366,0.135-0.719,0.29-1.073,0.441
		c0.328,0.094,0.696,0.061,0.98-0.191c0.135-0.119,0.27-0.24,0.405-0.361c-0.056,0.02-0.116,0.033-0.173,0.055
		C109.502,86.348,109.477,86.385,109.451,86.419z"/>
	<path fill="#00CCFF" d="M100.25,92.797c0.089-0.203,0.176-0.404,0.266-0.607c-1.005,1.025-1.938,2.131-2.801,3.313
		C98.528,94.566,99.375,93.664,100.25,92.797z"/>
	<path fill="#00CCFF" d="M108.655,84.519c-0.097,0.036-0.188,0.077-0.283,0.114c-0.033,0.072-0.062,0.147-0.095,0.221
		C108.404,84.742,108.529,84.631,108.655,84.519z"/>
	<path fill="#00CCFF" d="M116.973,69.672c-1.249,0.732-2.45,1.516-3.603,2.355c1.412-0.044,2.811-0.164,4.196-0.355
		c2.289-1.387,4.768-2.585,7.434-3.604v-0.312C122.366,68.605,119.692,69.279,116.973,69.672z"/>
	<path fill="#00CCFF" d="M109.7,86.26c0.447-0.398,0.895-0.797,1.341-1.197c-0.315,0.147-0.626,0.307-0.938,0.465
		c-0.191,0.27-0.384,0.53-0.576,0.787C109.584,86.293,109.645,86.279,109.7,86.26z"/>
	<path fill="#00CCFF" d="M121.08,67.529c1.265-0.583,2.57-1.123,3.92-1.621v-0.175c-0.807-0.049-1.618-0.093-2.441-0.122
		c-4.438,0.602-8.861,1.359-13.238,2.319C113.348,67.58,117.294,67.451,121.08,67.529z"/>
	<path fill="#00CCFF" d="M113.771,74.28c-0.15-0.682-0.402-1.348-0.768-1.991c-0.548,0.408-1.086,0.829-1.611,1.264
		c0.355,0.708,0.542,1.445,0.589,2.2C112.562,75.245,113.159,74.754,113.771,74.28z"/>
	<path fill="#00CCFF" d="M108.02,86.681c0.335-0.201,0.674-0.395,1.014-0.583c-0.322-0.249-0.644-0.498-0.966-0.746
		c-0.137,0.328-0.274,0.656-0.401,0.989C107.752,86.479,107.873,86.592,108.02,86.681z"/>
	<path fill="#00CCFF" d="M48.067,96h2.406c11.202-15.868,32.164-24.405,52.383-27.324c-2.716-0.432-5.499-0.576-8.29-0.496
		C76.014,72.223,57.995,81.098,48.067,96z"/>
	<path fill="#00CCFF" d="M107.666,86.341c0.127-0.333,0.265-0.661,0.401-0.989c-0.062-0.049-0.125-0.096-0.187-0.145
		c0.133-0.117,0.264-0.235,0.396-0.354c0.032-0.073,0.062-0.148,0.095-0.221c-0.034,0.012-0.067,0.026-0.101,0.039
		c-0.186,0.254-0.368,0.5-0.548,0.738C107.472,85.744,107.5,86.076,107.666,86.341z"/>
	<path fill="#00CCFF" d="M108.372,84.633c0.095-0.037,0.187-0.078,0.283-0.114c1.391-1.236,2.764-2.465,4.141-3.647
		c0.416-0.955,0.74-1.93,0.938-2.904c-1.129,0.851-2.167,1.811-3.063,2.892c-0.637,1.253-1.421,2.45-2.195,3.528
		C108.439,84.467,108.408,84.551,108.372,84.633z"/>
	<path fill="#00CCFF" d="M107.881,85.207c0.062,0.049,0.124,0.096,0.187,0.145c0.069-0.166,0.139-0.332,0.21-0.498
		C108.145,84.972,108.014,85.09,107.881,85.207z"/>
	<path fill="#00CCFF" d="M125,70.043v-1.975c-2.666,1.019-5.145,2.217-7.434,3.604C120.079,71.325,122.553,70.758,125,70.043z"/>
	<path fill="#00CCFF" d="M108.476,84.387c-0.067,0.094-0.137,0.193-0.204,0.285c0.033-0.013,0.066-0.027,0.101-0.039
		C108.408,84.551,108.439,84.467,108.476,84.387z"/>
	<path fill="#00CCFF" d="M97.293,96c0.141-0.166,0.279-0.333,0.422-0.497c0.862-1.183,1.796-2.288,2.801-3.313
		c0.293-0.662,0.589-1.325,0.892-1.986c0.383-0.834,0.788-1.641,1.205-2.432c-1.436,1.045-2.762,2.222-3.974,3.528
		c-0.714,1.558-1.397,3.126-2.066,4.7H97.293z"/>
	<path fill="#00CCFF" d="M109.388,86.371c0.048-0.018,0.093-0.04,0.14-0.057c0.192-0.257,0.385-0.518,0.576-0.787
		c-0.359,0.183-0.716,0.373-1.07,0.57C109.151,86.188,109.27,86.279,109.388,86.371z"/>
	<path fill="#00CCFF" d="M106.303,87.78c0.34-0.185,0.684-0.364,1.035-0.534c0.022-0.062,0.045-0.125,0.068-0.188
		C107.035,87.291,106.668,87.533,106.303,87.78z"/>
	<path fill="#00CCFF" d="M98.639,91.3c-1.331,1.435-2.538,3.009-3.627,4.7h1.561C97.241,94.426,97.925,92.857,98.639,91.3z"/>
	<path fill="#00CCFF" d="M98.871,96c0.453-1.068,0.912-2.137,1.379-3.203c-0.875,0.867-1.722,1.77-2.535,2.706
		C97.593,95.67,97.464,95.83,97.344,96H98.871z"/>
	<path fill="#00CCFF" d="M106.303,87.78c-0.56,0.38-1.113,0.771-1.656,1.183c-0.284,1.053-0.526,2.117-0.738,3.184
		c0.814-0.7,1.652-1.364,2.51-1.988c0.271-0.982,0.58-1.953,0.92-2.912C106.986,87.416,106.643,87.596,106.303,87.78z"/>
	<path fill="#00CCFF" d="M107.406,87.059c-0.023,0.062-0.046,0.125-0.068,0.188c0.319-0.153,0.647-0.294,0.977-0.434
		c-0.105-0.031-0.203-0.076-0.295-0.132C107.814,86.805,107.609,86.93,107.406,87.059z"/>
	<path fill="#00CCFF" d="M105.623,85.88c0.846-0.45,1.73-0.85,2.648-1.208c0.067-0.092,0.137-0.191,0.204-0.285
		c0.024-0.053,0.044-0.107,0.067-0.16c0.562-1.23,1.284-2.352,2.128-3.368c0.682-1.343,1.186-2.742,1.302-4.116
		c-0.209,0.161-0.396,0.311-0.554,0.441C108.671,79.482,106.866,82.535,105.623,85.88z"/>
	<path fill="#00CCFF" d="M107.666,86.341c-0.091,0.237-0.174,0.478-0.26,0.718c0.203-0.129,0.408-0.254,0.613-0.378
		C107.873,86.592,107.752,86.479,107.666,86.341z"/>
	<path fill="#00CCFF" d="M112.796,80.871c-1.377,1.183-2.75,2.411-4.141,3.647c0.859-0.319,1.745-0.603,2.669-0.837
		C111.875,82.779,112.376,81.835,112.796,80.871z"/>
	<path fill="#00CCFF" d="M113.734,77.967c1.989-1.496,4.268-2.648,6.603-3.479c0.879-0.312,1.591-0.405,2.171-0.336
		c0.812-0.385,1.641-0.729,2.492-1.023v-0.348c-2.642-2-7.758,0.461-11.072,2.596C113.99,76.229,113.912,77.098,113.734,77.967z"/>
	<path fill="#00CCFF" d="M109.033,86.098c-0.34,0.188-0.679,0.382-1.014,0.583c0.092,0.056,0.189,0.101,0.295,0.132
		c0.354-0.151,0.707-0.307,1.073-0.441C109.27,86.279,109.151,86.188,109.033,86.098z"/>
	<path fill="#00CCFF" d="M109.527,86.314c-0.047,0.017-0.092,0.039-0.14,0.057c0.021,0.016,0.042,0.031,0.063,0.048
		C109.477,86.385,109.502,86.348,109.527,86.314z"/>
	<path fill="#00CCFF" d="M104.704,88.737c-0.021,0.075-0.038,0.151-0.058,0.226c0.543-0.412,1.097-0.803,1.656-1.183
		C105.754,88.079,105.223,88.398,104.704,88.737z"/>
	<path fill="#00CCFF" d="M107.406,87.059c0.086-0.24,0.169-0.48,0.26-0.718c-0.166-0.265-0.194-0.597,0.058-0.931
		c0.18-0.238,0.362-0.484,0.548-0.738c-0.918,0.358-1.803,0.758-2.648,1.208c-0.348,0.933-0.651,1.888-0.919,2.857
		c0.519-0.339,1.05-0.658,1.599-0.957C106.668,87.533,107.035,87.291,107.406,87.059z"/>
	<path fill="#00CCFF" d="M100.25,92.797c-0.467,1.066-0.926,2.135-1.379,3.203h1.082c1.249-1.371,2.569-2.662,3.955-3.854
		c0.212-1.066,0.454-2.131,0.738-3.184C103.111,90.127,101.645,91.414,100.25,92.797z"/>
	<path fill="#00CCFF" d="M125,87.646V75.192c-0.235,0.089-0.472,0.178-0.704,0.274c1.054,2.217,0.015,6.605-0.517,8.658
		c-1.051,4.057-2.608,7.986-4.294,11.875h1.903C122.569,93.426,123.925,90.576,125,87.646z"/>
	<path fill="#00CCFF" d="M125,65.908c-1.35,0.498-2.655,1.038-3.92,1.621c1.327,0.027,2.637,0.078,3.92,0.156V65.908z"/>
	<path fill="#00CCFF" d="M103.908,92.146c-0.257,1.291-0.471,2.582-0.656,3.854h1.896c0.33-1.977,0.741-3.929,1.27-5.842
		C105.561,90.782,104.723,91.446,103.908,92.146z"/>
	<path fill="#00CCFF" d="M104.704,88.737c0.268-0.97,0.571-1.925,0.919-2.857c-1.059,0.562-2.059,1.197-3.011,1.892
		c-0.417,0.791-0.822,1.598-1.205,2.432c-0.303,0.661-0.599,1.324-0.892,1.986C101.788,90.893,103.18,89.732,104.704,88.737z"/>
	<path fill="#00CCFF" d="M125,67.756v-0.07c-1.283-0.078-2.593-0.129-3.92-0.156c-1.424,0.657-2.791,1.373-4.107,2.143
		C119.692,69.279,122.366,68.605,125,67.756z"/>
	<path fill="#00CCFF" d="M125.182,67.695c0.136-0.044,0.271-0.092,0.405-0.137c-0.081-0.598-0.163-1.18-0.244-1.781
		c-0.116,0.042-0.228,0.089-0.343,0.131v1.777C125.061,67.689,125.122,67.691,125.182,67.695z"/>
	<path fill="#00CCFF" d="M125.587,67.559c-0.135,0.045-0.27,0.093-0.405,0.137c0.142,0.009,0.287,0.014,0.428,0.022
		C125.602,67.664,125.595,67.612,125.587,67.559z"/>
	<path fill="#00CCFF" d="M125,67.686v0.07c0.061-0.02,0.121-0.041,0.182-0.061C125.122,67.691,125.061,67.689,125,67.686z"/>
	<path fill="#00CCFF" d="M125.287,73.023c-0.092-0.088-0.188-0.167-0.287-0.242v0.348C125.097,73.096,125.189,73.056,125.287,73.023
		z"/>
</g>
</svg>
