<?xml version="1.0" encoding="utf-8"?>
<!-- Generator: Adobe Illustrator 16.0.4, SVG Export Plug-In . SVG Version: 6.00 Build 0)  -->
<!DOCTYPE svg PUBLIC "-//W3C//DTD SVG 1.1//EN" "http://www.w3.org/Graphics/SVG/1.1/DTD/svg11.dtd">
<svg version="1.1" id="Capa_1" xmlns="http://www.w3.org/2000/svg" xmlns:xlink="http://www.w3.org/1999/xlink" x="0px" y="0px"
	 width="960px" height="560px" viewBox="0 0 960 560" enable-background="new 0 0 960 560" xml:space="preserve">
<g>
	<g>
		<path fill="#FEED90" d="M480,560c-25.76,0-50.587-3.36-74.48-10.08c-23.893-6.723-46.2-16.146-66.919-28.28
			c-20.72-12.133-39.573-26.693-56.56-43.68c-16.987-16.984-31.547-35.84-43.68-56.56c-12.133-20.723-21.56-43.027-28.28-66.921
			C203.36,330.587,200,305.76,200,280s3.36-50.587,10.08-74.48c6.72-23.894,16.146-46.2,28.28-66.92
			c12.133-20.72,26.693-39.573,43.68-56.56s35.84-31.547,56.56-43.68c20.72-12.133,43.026-21.56,66.919-28.28
			C429.413,3.36,454.24,0,480,0c38.453,0,74.76,7.374,108.92,22.12s63.84,34.72,89.04,59.92s45.173,54.88,59.92,89.04
			S760,241.547,760,280c0,25.76-3.36,50.587-10.08,74.48c-6.723,23.891-16.146,46.197-28.28,66.92
			c-12.133,20.72-26.693,39.573-43.68,56.56c-16.985,16.986-35.84,31.55-56.56,43.68c-20.723,12.134-43.027,21.561-66.922,28.28
			C530.587,556.64,505.76,560,480,560z M614.96,164.64H349.52c-2.613,0-4.854,0.84-6.72,2.52c-1.866,1.68-2.8,4.013-2.8,7v29.68
			c0,1.494,0.56,2.24,1.68,2.24l139.44,79.52l1.123,0.561c0.743,0,1.307-0.188,1.68-0.561l134.96-79.52
			c0.744-0.374,1.307-0.56,1.68-0.56c0.371,0,0.934-0.187,1.681-0.56c1.493,0,2.239-0.747,2.239-2.24v-28.56
			c0-2.987-0.934-5.32-2.803-7C619.812,165.48,617.573,164.64,614.96,164.64z M424.56,283.92c0.374-0.373,0.561-0.934,0.561-1.68
			c0-1.123-0.373-1.68-1.12-1.68l-80.08-45.921c-1.12-0.374-2.053-0.374-2.8,0c-0.747,0-1.12,0.56-1.12,1.68v120.399
			c0,1.123,0.56,1.867,1.68,2.24h1.12c0.747,0,1.12-0.187,1.12-0.56L424.56,283.92z M522,292.88c-0.373-1.122-1.31-1.307-2.803-0.56
			l-30.8,17.92c-3.733,2.24-7.65,2.24-11.76,0l-26.881-15.117c-1.119-0.747-2.053-0.747-2.8,0l-102.48,95.199
			c-0.373,0.371-0.56,1.12-0.56,2.237c0,0.374,0.373,0.935,1.12,1.681c2.24,0.746,3.733,1.122,4.48,1.122h262.641
			c0.747,0,1.496-0.373,2.24-1.122c0-1.493-0.187-2.424-0.561-2.8L522,292.88z M622.8,232.4h-2.237l-76.16,45.36
			c-0.743,0-1.119,0.56-1.119,1.68c-0.374,0.374-0.188,0.934,0.557,1.677L620,363.44c0.747,0.746,1.307,1.122,1.68,1.122h1.12
			c1.123-1.122,1.683-1.866,1.683-2.24V234.641C624.48,233.894,623.92,233.146,622.8,232.4z"/>
	</g>
</g>
</svg>
